<svg xmlns="http://www.w3.org/2000/svg" xmlns:xlink="http://www.w3.org/1999/xlink" version="1.1" class="marks" width="844" height="692" viewBox="0 0 844 692"><rect width="844" height="692" fill="white"/><g fill="none" stroke-miterlimit="10" transform="translate(39,41)"><g class="mark-group role-frame root" role="graphics-object" aria-roledescription="group mark container"><g transform="translate(0,0)"><path class="background" aria-hidden="true" d="M0.5,0.5h800v600h-800Z" stroke="#ddd"/><g><g class="mark-group role-axis" role="graphics-symbol" aria-roledescription="axis" aria-label="X-axis titled 'Parser' for a discrete scale with 8 values: yamlrocks&#xA;v0.2.1, yaml_rs&#xA;v0.1.4, ryaml&#xA;v0.5.1, PyYAML (CDumper)&#xA;v6.0.3, PyYAML (CSafeDumper)&#xA;v6.0.3, ending with ruamel.yaml&#xA;v0.19.1"><g transform="translate(0.5,600.5)"><path class="background" aria-hidden="true" d="M0,0h0v0h0Z" pointer-events="none"/><g><g class="mark-rule role-axis-tick" pointer-events="none"><line transform="translate(50,0)" x2="0" y2="5" stroke="#888" stroke-width="1" opacity="1"/><line transform="translate(150,0)" x2="0" y2="5" stroke="#888" stroke-width="1" opacity="1"/><line transform="translate(250,0)" x2="0" y2="5" stroke="#888" stroke-width="1" opacity="1"/><line transform="translate(350,0)" x2="0" y2="5" stroke="#888" stroke-width="1" opacity="1"/><line transform="translate(450,0)" x2="0" y2="5" stroke="#888" stroke-width="1" opacity="1"/><line transform="translate(550,0)" x2="0" y2="5" stroke="#888" stroke-width="1" opacity="1"/><line transform="translate(650,0)" x2="0" y2="5" stroke="#888" stroke-width="1" opacity="1"/><line transform="translate(750,0)" x2="0" y2="5" stroke="#888" stroke-width="1" opacity="1"/></g><g class="mark-text role-axis-label" pointer-events="none"><text text-anchor="middle" transform="translate(49.5,15)" font-family="sans-serif" font-size="10px" fill="#000" opacity="1"><tspan>yamlrocks</tspan><tspan x="0" dy="14">v0.2.1</tspan></text><text text-anchor="middle" transform="translate(149.5,15)" font-family="sans-serif" font-size="10px" fill="#000" opacity="1"><tspan>yaml_rs</tspan><tspan x="0" dy="14">v0.1.4</tspan></text><text text-anchor="middle" transform="translate(249.5,15)" font-family="sans-serif" font-size="10px" fill="#000" opacity="1"><tspan>ryaml</tspan><tspan x="0" dy="14">v0.5.1</tspan></text><text text-anchor="middle" transform="translate(349.5,15)" font-family="sans-serif" font-size="10px" fill="#000" opacity="1"><tspan>PyYAML (CDumper)</tspan><tspan x="0" dy="14">v6.0.3</tspan></text><text text-anchor="middle" transform="translate(449.5,15)" font-family="sans-serif" font-size="10px" fill="#000" opacity="1"><tspan>PyYAML (CSafeDumper)</tspan><tspan x="0" dy="14">v6.0.3</tspan></text><text text-anchor="middle" transform="translate(549.5,15)" font-family="sans-serif" font-size="10px" fill="#000" opacity="1"><tspan>oyaml</tspan><tspan x="0" dy="14">v1.0</tspan></text><text text-anchor="middle" transform="translate(649.5,15)" font-family="sans-serif" font-size="10px" fill="#000" opacity="1"><tspan>PyYAML</tspan><tspan x="0" dy="14">v6.0.3</tspan></text><text text-anchor="middle" transform="translate(749.5,15)" font-family="sans-serif" font-size="10px" fill="#000" opacity="1"><tspan>ruamel.yaml</tspan><tspan x="0" dy="14">v0.19.1</tspan></text></g><g class="mark-rule role-axis-domain" pointer-events="none"><line transform="translate(0,0)" x2="800" y2="0" stroke="#888" stroke-width="1" opacity="1"/></g><g class="mark-text role-axis-title" pointer-events="none"><text text-anchor="middle" transform="translate(400,44)" font-family="sans-serif" font-size="11px" font-weight="bold" fill="#000" opacity="1">Parser</text></g></g><path class="foreground" aria-hidden="true" d="" pointer-events="none" display="none"/></g></g><g class="mark-group role-axis" role="graphics-symbol" aria-roledescription="axis" aria-label="Y-axis titled 'Execution Time (seconds, lower=better)' for a linear scale with values from 0 to 12"><g transform="translate(0.5,0.5)"><path class="background" aria-hidden="true" d="M0,0h0v0h0Z" pointer-events="none"/><g><g class="mark-rule role-axis-tick" pointer-events="none"><line transform="translate(0,600)" x2="-5" y2="0" stroke="#888" stroke-width="1" opacity="1"/><line transform="translate(0,550)" x2="-5" y2="0" stroke="#888" stroke-width="1" opacity="1"/><line transform="translate(0,500)" x2="-5" y2="0" stroke="#888" stroke-width="1" opacity="1"/><line transform="translate(0,450)" x2="-5" y2="0" stroke="#888" stroke-width="1" opacity="1"/><line transform="translate(0,400)" x2="-5" y2="0" stroke="#888" stroke-width="1" opacity="1"/><line transform="translate(0,350)" x2="-5" y2="0" stroke="#888" stroke-width="1" opacity="1"/><line transform="translate(0,300)" x2="-5" y2="0" stroke="#888" stroke-width="1" opacity="1"/><line transform="translate(0,250)" x2="-5" y2="0" stroke="#888" stroke-width="1" opacity="1"/><line transform="translate(0,200)" x2="-5" y2="0" stroke="#888" stroke-width="1" opacity="1"/><line transform="translate(0,150)" x2="-5" y2="0" stroke="#888" stroke-width="1" opacity="1"/><line transform="translate(0,100)" x2="-5" y2="0" stroke="#888" stroke-width="1" opacity="1"/><line transform="translate(0,50)" x2="-5" y2="0" stroke="#888" stroke-width="1" opacity="1"/><line transform="translate(0,0)" x2="-5" y2="0" stroke="#888" stroke-width="1" opacity="1"/></g><g class="mark-text role-axis-label" pointer-events="none"><text text-anchor="end" transform="translate(-7,603)" font-family="sans-serif" font-size="10px" fill="#000" opacity="1">0</text><text text-anchor="end" transform="translate(-7,553.0341432466201)" font-family="sans-serif" font-size="10px" fill="#000" opacity="1">1</text><text text-anchor="end" transform="translate(-7,503.0682864932403)" font-family="sans-serif" font-size="10px" fill="#000" opacity="1">2</text><text text-anchor="end" transform="translate(-7,453.1024297398604)" font-family="sans-serif" font-size="10px" fill="#000" opacity="1">3</text><text text-anchor="end" transform="translate(-7,403.13657298648053)" font-family="sans-serif" font-size="10px" fill="#000" opacity="1">4</text><text text-anchor="end" transform="translate(-7,353.1707162331006)" font-family="sans-serif" font-size="10px" fill="#000" opacity="1">5</text><text text-anchor="end" transform="translate(-7,303.2048594797207)" font-family="sans-serif" font-size="10px" fill="#000" opacity="1">6</text><text text-anchor="end" transform="translate(-7,253.23900272634089)" font-family="sans-serif" font-size="10px" fill="#000" opacity="1">7</text><text text-anchor="end" transform="translate(-7,203.273145972961)" font-family="sans-serif" font-size="10px" fill="#000" opacity="1">8</text><text text-anchor="end" transform="translate(-7,153.3072892195811)" font-family="sans-serif" font-size="10px" fill="#000" opacity="1">9</text><text text-anchor="end" transform="translate(-7,103.34143246620127)" font-family="sans-serif" font-size="10px" fill="#000" opacity="1">10</text><text text-anchor="end" transform="translate(-7,53.375575712821366)" font-family="sans-serif" font-size="10px" fill="#000" opacity="1">11</text><text text-anchor="end" transform="translate(-7,3.4097189594415296)" font-family="sans-serif" font-size="10px" fill="#000" opacity="1">12</text></g><g class="mark-rule role-axis-domain" pointer-events="none"><line transform="translate(0,600)" x2="0" y2="-600" stroke="#888" stroke-width="1" opacity="1"/></g><g class="mark-text role-axis-title" pointer-events="none"><text text-anchor="middle" transform="translate(-22.123046875,300) rotate(-90) translate(0,-2)" font-family="sans-serif" font-size="11px" font-weight="bold" fill="#000" opacity="1">Execution Time (seconds, lower=better)</text></g></g><path class="foreground" aria-hidden="true" d="" pointer-events="none" display="none"/></g></g><g class="mark-group role-scope" role="graphics-object" aria-roledescription="group mark container"><g transform="translate(5,597.835362498447)"><path class="background" aria-hidden="true" d="M1.0823187507764942,0L88.9176812492235,0C89.51502922906863,0,90,0.4849707709313699,90,1.0823187507764942L90,2.1646375015529884C90,2.1646375015529884,90,2.1646375015529884,90,2.1646375015529884L0,2.1646375015529884C0,2.1646375015529884,0,2.1646375015529884,0,2.1646375015529884L0,1.0823187507764942C0,0.4849707709313699,0.4849707709313699,0,1.0823187507764942,0Z"/><g clip-path="url(#clip10)"><g class="mark-group role-scope" role="graphics-object" aria-roledescription="group mark container"><g transform="translate(0,-597.835362498447)"><path class="background" aria-hidden="true" d="M0,0h90v0h-90Z"/><g><g class="mark-rect role-mark layer_0_marks" role="graphics-object" aria-roledescription="rect mark container"><path aria-label="Parser: yamlrocks&#xA;v0.2.1; Execution Time (seconds, lower=better): 0.0433223333333; parser: yamlrocks; Execution Time (s): 0.0433; Slowdown: 1.00" role="graphics-symbol" aria-roledescription="bar" d="M0,597.835362498447h90v2.1646375015529884h-90Z" fill="#666666"/></g></g><path class="foreground" aria-hidden="true" d="" display="none"/></g></g></g><path class="foreground" aria-hidden="true" d="" display="none"/></g><g transform="translate(105,597.5887077121108)"><path class="background" aria-hidden="true" d="M1.2056461439445911,0L88.79435385605541,0C89.45976807712168,0,90,0.5402319228783155,90,1.2056461439445911L90,2.4112922878891823C90,2.4112922878891823,90,2.4112922878891823,90,2.4112922878891823L0,2.4112922878891823C0,2.4112922878891823,0,2.4112922878891823,0,2.4112922878891823L0,1.2056461439445911C0,0.5402319228783155,0.5402319228783155,0,1.2056461439445911,0Z"/><g clip-path="url(#clip11)"><g class="mark-group role-scope" role="graphics-object" aria-roledescription="group mark container"><g transform="translate(0,-597.5887077121108)"><path class="background" aria-hidden="true" d="M0,0h90v0h-90Z"/><g><g class="mark-rect role-mark layer_0_marks" role="graphics-object" aria-roledescription="rect mark container"><path aria-label="Parser: yaml_rs&#xA;v0.1.4; Execution Time (seconds, lower=better): 0.0482588; parser: yaml_rs; Execution Time (s): 0.0483; Slowdown: 1.11" role="graphics-symbol" aria-roledescription="bar" d="M0,597.5887077121108h90v2.4112922878891823h-90Z" fill="#a6761d"/></g></g><path class="foreground" aria-hidden="true" d="" display="none"/></g></g></g><path class="foreground" aria-hidden="true" d="" display="none"/></g><g transform="translate(205,588.7967155577807)"><path class="background" aria-hidden="true" d="M5.601642221109671,0L84.39835777889033,0C87.4899882825607,0,90,2.5100117174393026,90,5.601642221109671L90,11.203284442219342C90,11.203284442219342,90,11.203284442219342,90,11.203284442219342L0,11.203284442219342C0,11.203284442219342,0,11.203284442219342,0,11.203284442219342L0,5.601642221109671C0,2.5100117174393026,2.5100117174393026,0,5.601642221109671,0Z"/><g clip-path="url(#clip12)"><g class="mark-group role-scope" role="graphics-object" aria-roledescription="group mark container"><g transform="translate(0,-588.7967155577807)"><path class="background" aria-hidden="true" d="M0,0h90v0h-90Z"/><g><g class="mark-rect role-mark layer_0_marks" role="graphics-object" aria-roledescription="rect mark container"><path aria-label="Parser: ryaml&#xA;v0.5.1; Execution Time (seconds, lower=better): 0.2242188; parser: ryaml; Execution Time (s): 0.2242; Slowdown: 5.18" role="graphics-symbol" aria-roledescription="bar" d="M0,588.7967155577807h90v11.203284442219342h-90Z" fill="#e6ab02"/></g></g><path class="foreground" aria-hidden="true" d="" display="none"/></g></g></g><path class="foreground" aria-hidden="true" d="" display="none"/></g><g transform="translate(305,585.367230699672)"><path class="background" aria-hidden="true" d="M6,0L84,0C87.311490146964,0,90,2.688509853036,90,6L90,14.63276930032805C90,14.63276930032805,90,14.63276930032805,90,14.63276930032805L0,14.63276930032805C0,14.63276930032805,0,14.63276930032805,0,14.63276930032805L0,6C0,2.688509853036,2.688509853036,0,6,0Z"/><g clip-path="url(#clip13)"><g class="mark-group role-scope" role="graphics-object" aria-roledescription="group mark container"><g transform="translate(0,-585.367230699672)"><path class="background" aria-hidden="true" d="M0,0h90v0h-90Z"/><g><g class="mark-rect role-mark layer_0_marks" role="graphics-object" aria-roledescription="rect mark container"><path aria-label="Parser: PyYAML (CDumper)&#xA;v6.0.3; Execution Time (seconds, lower=better): 0.292855366667; parser: PyYAML (CDumper); Execution Time (s): 0.2929; Slowdown: 6.76" role="graphics-symbol" aria-roledescription="bar" d="M0,585.367230699672h90v14.63276930032805h-90Z" fill="#d95f02"/></g></g><path class="foreground" aria-hidden="true" d="" display="none"/></g></g></g><path class="foreground" aria-hidden="true" d="" display="none"/></g><g transform="translate(405,585.2401475396055)"><path class="background" aria-hidden="true" d="M6,0L84,0C87.311490146964,0,90,2.688509853036,90,6L90,14.75985246039454C90,14.75985246039454,90,14.75985246039454,90,14.75985246039454L0,14.75985246039454C0,14.75985246039454,0,14.75985246039454,0,14.75985246039454L0,6C0,2.688509853036,2.688509853036,0,6,0Z"/><g clip-path="url(#clip14)"><g class="mark-group role-scope" role="graphics-object" aria-roledescription="group mark container"><g transform="translate(0,-585.2401475396055)"><path class="background" aria-hidden="true" d="M0,0h90v0h-90Z"/><g><g class="mark-rect role-mark layer_0_marks" role="graphics-object" aria-roledescription="rect mark container"><path aria-label="Parser: PyYAML (CSafeDumper)&#xA;v6.0.3; Execution Time (seconds, lower=better): 0.295398766667; parser: PyYAML (CSafeDumper); Execution Time (s): 0.2954; Slowdown: 6.82" role="graphics-symbol" aria-roledescription="bar" d="M0,585.2401475396055h90v14.75985246039454h-90Z" fill="#7570b3"/></g></g><path class="foreground" aria-hidden="true" d="" display="none"/></g></g></g><path class="foreground" aria-hidden="true" d="" display="none"/></g><g transform="translate(505,45.256580350552596)"><path class="background" aria-hidden="true" d="M6,0L84,0C87.311490146964,0,90,2.688509853036,90,6L90,554.7434196494474C90,554.7434196494474,90,554.7434196494474,90,554.7434196494474L0,554.7434196494474C0,554.7434196494474,0,554.7434196494474,0,554.7434196494474L0,6C0,2.688509853036,2.688509853036,0,6,0Z"/><g clip-path="url(#clip15)"><g class="mark-group role-scope" role="graphics-object" aria-roledescription="group mark container"><g transform="translate(0,-45.256580350552596)"><path class="background" aria-hidden="true" d="M0,0h90v0h-90Z"/><g><g class="mark-rect role-mark layer_0_marks" role="graphics-object" aria-roledescription="rect mark container"><path aria-label="Parser: oyaml&#xA;v1.0; Execution Time (seconds, lower=better): 11.1024498667; parser: oyaml; Execution Time (s): 11.1024; Slowdown: 256.28" role="graphics-symbol" aria-roledescription="bar" d="M0,45.256580350552596h90v554.7434196494474h-90Z" fill="#e7298a"/></g></g><path class="foreground" aria-hidden="true" d="" display="none"/></g></g></g><path class="foreground" aria-hidden="true" d="" display="none"/></g><g transform="translate(605,36.316076345727645)"><path class="background" aria-hidden="true" d="M6,0L84,0C87.311490146964,0,90,2.688509853036,90,6L90,563.6839236542723C90,563.6839236542723,90,563.6839236542723,90,563.6839236542723L0,563.6839236542723C0,563.6839236542723,0,563.6839236542723,0,563.6839236542723L0,6C0,2.688509853036,2.688509853036,0,6,0Z"/><g clip-path="url(#clip16)"><g class="mark-group role-scope" role="graphics-object" aria-roledescription="group mark container"><g transform="translate(0,-36.316076345727645)"><path class="background" aria-hidden="true" d="M0,0h90v0h-90Z"/><g><g class="mark-rect role-mark layer_0_marks" role="graphics-object" aria-roledescription="rect mark container"><path aria-label="Parser: PyYAML&#xA;v6.0.3; Execution Time (seconds, lower=better): 11.2813821333; parser: PyYAML; Execution Time (s): 11.2814; Slowdown: 260.41" role="graphics-symbol" aria-roledescription="bar" d="M0,36.316076345727645h90v563.6839236542723h-90Z" fill="#1b9e77"/></g></g><path class="foreground" aria-hidden="true" d="" display="none"/></g></g></g><path class="foreground" aria-hidden="true" d="" display="none"/></g><g transform="translate(705,23.07692307692313)"><path class="background" aria-hidden="true" d="M6,0L84,0C87.311490146964,0,90,2.688509853036,90,6L90,576.9230769230769C90,576.9230769230769,90,576.9230769230769,90,576.9230769230769L0,576.9230769230769C0,576.9230769230769,0,576.9230769230769,0,576.9230769230769L0,6C0,2.688509853036,2.688509853036,0,6,0Z"/><g clip-path="url(#clip17)"><g class="mark-group role-scope" role="graphics-object" aria-roledescription="group mark container"><g transform="translate(0,-23.07692307692313)"><path class="background" aria-hidden="true" d="M0,0h90v0h-90Z"/><g><g class="mark-rect role-mark layer_0_marks" role="graphics-object" aria-roledescription="rect mark container"><path aria-label="Parser: ruamel.yaml&#xA;v0.19.1; Execution Time (seconds, lower=better): 11.5463461333; parser: ruamel.yaml; Execution Time (s): 11.5463; Slowdown: 266.52" role="graphics-symbol" aria-roledescription="bar" d="M0,23.07692307692313h90v576.9230769230769h-90Z" fill="#66a61e"/></g></g><path class="foreground" aria-hidden="true" d="" display="none"/></g></g></g><path class="foreground" aria-hidden="true" d="" display="none"/></g></g><g class="mark-text role-mark layer_1_marks" role="graphics-object" aria-roledescription="text mark container"><text aria-label="Parser: yamlrocks&#xA;v0.2.1; Execution Time (seconds, lower=better): 0.0433223333333; parser: yamlrocks; label: 0.0433s (x1.00); Execution Time (s): 0.0433; Slowdown: 1.00" role="graphics-symbol" aria-roledescription="text mark" text-anchor="middle" transform="translate(50,593.835362498447)" font-family="sans-serif" font-size="9px" font-weight="bold" fill="#666666">0.0433s (x1.00)</text><text aria-label="Parser: yaml_rs&#xA;v0.1.4; Execution Time (seconds, lower=better): 0.0482588; parser: yaml_rs; label: 0.0483s (x1.11); Execution Time (s): 0.0483; Slowdown: 1.11" role="graphics-symbol" aria-roledescription="text mark" text-anchor="middle" transform="translate(150,593.5887077121108)" font-family="sans-serif" font-size="9px" font-weight="bold" fill="#a6761d">0.0483s (x1.11)</text><text aria-label="Parser: ryaml&#xA;v0.5.1; Execution Time (seconds, lower=better): 0.2242188; parser: ryaml; label: 0.2242s (x5.18); Execution Time (s): 0.2242; Slowdown: 5.18" role="graphics-symbol" aria-roledescription="text mark" text-anchor="middle" transform="translate(250,584.7967155577807)" font-family="sans-serif" font-size="9px" font-weight="bold" fill="#e6ab02">0.2242s (x5.18)</text><text aria-label="Parser: PyYAML (CDumper)&#xA;v6.0.3; Execution Time (seconds, lower=better): 0.292855366667; parser: PyYAML (CDumper); label: 0.2929s (x6.76); Execution Time (s): 0.2929; Slowdown: 6.76" role="graphics-symbol" aria-roledescription="text mark" text-anchor="middle" transform="translate(350,581.367230699672)" font-family="sans-serif" font-size="9px" font-weight="bold" fill="#d95f02">0.2929s (x6.76)</text><text aria-label="Parser: PyYAML (CSafeDumper)&#xA;v6.0.3; Execution Time (seconds, lower=better): 0.295398766667; parser: PyYAML (CSafeDumper); label: 0.2954s (x6.82); Execution Time (s): 0.2954; Slowdown: 6.82" role="graphics-symbol" aria-roledescription="text mark" text-anchor="middle" transform="translate(450,581.2401475396055)" font-family="sans-serif" font-size="9px" font-weight="bold" fill="#7570b3">0.2954s (x6.82)</text><text aria-label="Parser: oyaml&#xA;v1.0; Execution Time (seconds, lower=better): 11.1024498667; parser: oyaml; label: 11.1024s (x256.28); Execution Time (s): 11.1024; Slowdown: 256.28" role="graphics-symbol" aria-roledescription="text mark" text-anchor="middle" transform="translate(550,41.256580350552596)" font-family="sans-serif" font-size="9px" font-weight="bold" fill="#e7298a">11.1024s (x256.28)</text><text aria-label="Parser: PyYAML&#xA;v6.0.3; Execution Time (seconds, lower=better): 11.2813821333; parser: PyYAML; label: 11.2814s (x260.41); Execution Time (s): 11.2814; Slowdown: 260.41" role="graphics-symbol" aria-roledescription="text mark" text-anchor="middle" transform="translate(650,32.316076345727645)" font-family="sans-serif" font-size="9px" font-weight="bold" fill="#1b9e77">11.2814s (x260.41)</text><text aria-label="Parser: ruamel.yaml&#xA;v0.19.1; Execution Time (seconds, lower=better): 11.5463461333; parser: ruamel.yaml; label: 11.5463s (x266.52); Execution Time (s): 11.5463; Slowdown: 266.52" role="graphics-symbol" aria-roledescription="text mark" text-anchor="middle" transform="translate(750,19.07692307692313)" font-family="sans-serif" font-size="9px" font-weight="bold" fill="#66a61e">11.5463s (x266.52)</text></g><g class="mark-group role-title"><g transform="translate(400,-35.590281040558466)"><path class="background" aria-hidden="true" d="M0,0h0v0h0Z" pointer-events="none"/><g><g class="mark-text role-title-text" role="graphics-symbol" aria-roledescription="title" aria-label="Title text 'YAML parsers benchmark (dumps)'" pointer-events="none"><text text-anchor="middle" transform="translate(0,10)" font-family="sans-serif" font-size="13px" font-weight="bold" fill="#000" opacity="1">YAML parsers benchmark (dumps)</text></g><g class="mark-text role-title-subtitle" role="graphics-symbol" aria-roledescription="subtitle" aria-label="Subtitle text 'Python: 3.14.5 (Windows 10) | CPU: 11th Gen Intel(R) Core(TM) i5-11300H @ 3.10GHz'" pointer-events="none"><text text-anchor="middle" transform="translate(0,25)" font-family="sans-serif" font-size="12px" fill="#000" opacity="1">Python: 3.14.5 (Windows 10) | CPU: 11th Gen Intel(R) Core(TM) i5-11300H @ 3.10GHz</text></g></g><path class="foreground" aria-hidden="true" d="" pointer-events="none" display="none"/></g></g></g><path class="foreground" aria-hidden="true" d="" display="none"/></g></g></g><defs><clipPath id="clip10"><path d="M1.0823187507764942,0L88.9176812492235,0C89.51502922906863,0,90,0.4849707709313699,90,1.0823187507764942L90,2.1646375015529884C90,2.1646375015529884,90,2.1646375015529884,90,2.1646375015529884L0,2.1646375015529884C0,2.1646375015529884,0,2.1646375015529884,0,2.1646375015529884L0,1.0823187507764942C0,0.4849707709313699,0.4849707709313699,0,1.0823187507764942,0Z"/></clipPath><clipPath id="clip11"><path d="M1.2056461439445911,0L88.79435385605541,0C89.45976807712168,0,90,0.5402319228783155,90,1.2056461439445911L90,2.4112922878891823C90,2.4112922878891823,90,2.4112922878891823,90,2.4112922878891823L0,2.4112922878891823C0,2.4112922878891823,0,2.4112922878891823,0,2.4112922878891823L0,1.2056461439445911C0,0.5402319228783155,0.5402319228783155,0,1.2056461439445911,0Z"/></clipPath><clipPath id="clip12"><path d="M5.601642221109671,0L84.39835777889033,0C87.4899882825607,0,90,2.5100117174393026,90,5.601642221109671L90,11.203284442219342C90,11.203284442219342,90,11.203284442219342,90,11.203284442219342L0,11.203284442219342C0,11.203284442219342,0,11.203284442219342,0,11.203284442219342L0,5.601642221109671C0,2.5100117174393026,2.5100117174393026,0,5.601642221109671,0Z"/></clipPath><clipPath id="clip13"><path d="M6,0L84,0C87.311490146964,0,90,2.688509853036,90,6L90,14.63276930032805C90,14.63276930032805,90,14.63276930032805,90,14.63276930032805L0,14.63276930032805C0,14.63276930032805,0,14.63276930032805,0,14.63276930032805L0,6C0,2.688509853036,2.688509853036,0,6,0Z"/></clipPath><clipPath id="clip14"><path d="M6,0L84,0C87.311490146964,0,90,2.688509853036,90,6L90,14.75985246039454C90,14.75985246039454,90,14.75985246039454,90,14.75985246039454L0,14.75985246039454C0,14.75985246039454,0,14.75985246039454,0,14.75985246039454L0,6C0,2.688509853036,2.688509853036,0,6,0Z"/></clipPath><clipPath id="clip15"><path d="M6,0L84,0C87.311490146964,0,90,2.688509853036,90,6L90,554.7434196494474C90,554.7434196494474,90,554.7434196494474,90,554.7434196494474L0,554.7434196494474C0,554.7434196494474,0,554.7434196494474,0,554.7434196494474L0,6C0,2.688509853036,2.688509853036,0,6,0Z"/></clipPath><clipPath id="clip16"><path d="M6,0L84,0C87.311490146964,0,90,2.688509853036,90,6L90,563.6839236542723C90,563.6839236542723,90,563.6839236542723,90,563.6839236542723L0,563.6839236542723C0,563.6839236542723,0,563.6839236542723,0,563.6839236542723L0,6C0,2.688509853036,2.688509853036,0,6,0Z"/></clipPath><clipPath id="clip17"><path d="M6,0L84,0C87.311490146964,0,90,2.688509853036,90,6L90,576.9230769230769C90,576.9230769230769,90,576.9230769230769,90,576.9230769230769L0,576.9230769230769C0,576.9230769230769,0,576.9230769230769,0,576.9230769230769L0,6C0,2.688509853036,2.688509853036,0,6,0Z"/></clipPath></defs></svg>