<svg xmlns="http://www.w3.org/2000/svg" xmlns:xlink="http://www.w3.org/1999/xlink" version="1.1" class="marks" width="644" height="473" viewBox="0 0 644 473"><rect width="644" height="473" fill="white"/><g fill="none" stroke-miterlimit="10" transform="translate(39,36)"><g class="mark-group role-frame root" role="graphics-object" aria-roledescription="group mark container"><g transform="translate(0,0)"><path class="background" aria-hidden="true" d="M0.5,0.5h600v400h-600Z" stroke="#ddd"/><g><g class="mark-group role-axis" role="graphics-symbol" aria-roledescription="axis" aria-label="X-axis titled 'Parser' for a discrete scale with 5 values: yaml_rs, ryaml, ruamel.yaml, oyaml, PyYAML"><g transform="translate(0.5,400.5)"><path class="background" aria-hidden="true" d="M0,0h0v0h0Z" pointer-events="none"/><g><g class="mark-rule role-axis-tick" pointer-events="none"><line transform="translate(60,0)" x2="0" y2="5" stroke="#888" stroke-width="1" opacity="1"/><line transform="translate(180,0)" x2="0" y2="5" stroke="#888" stroke-width="1" opacity="1"/><line transform="translate(300,0)" x2="0" y2="5" stroke="#888" stroke-width="1" opacity="1"/><line transform="translate(420,0)" x2="0" y2="5" stroke="#888" stroke-width="1" opacity="1"/><line transform="translate(540,0)" x2="0" y2="5" stroke="#888" stroke-width="1" opacity="1"/></g><g class="mark-text role-axis-label" pointer-events="none"><text text-anchor="middle" transform="translate(59.5,15)" font-family="sans-serif" font-size="10px" fill="#000" opacity="1">yaml_rs</text><text text-anchor="middle" transform="translate(179.5,15)" font-family="sans-serif" font-size="10px" fill="#000" opacity="1">ryaml</text><text text-anchor="middle" transform="translate(299.5,15)" font-family="sans-serif" font-size="10px" fill="#000" opacity="1">ruamel.yaml</text><text text-anchor="middle" transform="translate(419.5,15)" font-family="sans-serif" font-size="10px" fill="#000" opacity="1">oyaml</text><text text-anchor="middle" transform="translate(539.5,15)" font-family="sans-serif" font-size="10px" fill="#000" opacity="1">PyYAML</text></g><g class="mark-rule role-axis-domain" pointer-events="none"><line transform="translate(0,0)" x2="600" y2="0" stroke="#888" stroke-width="1" opacity="1"/></g><g class="mark-text role-axis-title" pointer-events="none"><text text-anchor="middle" transform="translate(300,30)" font-family="sans-serif" font-size="11px" font-weight="bold" fill="#000" opacity="1">Parser</text></g></g><path class="foreground" aria-hidden="true" d="" pointer-events="none" display="none"/></g></g><g class="mark-group role-axis" role="graphics-symbol" aria-roledescription="axis" aria-label="Y-axis titled 'Execution Time (seconds, lower=better)' for a linear scale with values from 0 to 75"><g transform="translate(0.5,0.5)"><path class="background" aria-hidden="true" d="M0,0h0v0h0Z" pointer-events="none"/><g><g class="mark-rule role-axis-tick" pointer-events="none"><line transform="translate(0,400)" x2="-5" y2="0" stroke="#888" stroke-width="1" opacity="1"/><line transform="translate(0,347)" x2="-5" y2="0" stroke="#888" stroke-width="1" opacity="1"/><line transform="translate(0,294)" x2="-5" y2="0" stroke="#888" stroke-width="1" opacity="1"/><line transform="translate(0,241)" x2="-5" y2="0" stroke="#888" stroke-width="1" opacity="1"/><line transform="translate(0,188)" x2="-5" y2="0" stroke="#888" stroke-width="1" opacity="1"/><line transform="translate(0,134)" x2="-5" y2="0" stroke="#888" stroke-width="1" opacity="1"/><line transform="translate(0,81)" x2="-5" y2="0" stroke="#888" stroke-width="1" opacity="1"/><line transform="translate(0,28)" x2="-5" y2="0" stroke="#888" stroke-width="1" opacity="1"/></g><g class="mark-text role-axis-label" pointer-events="none"><text text-anchor="end" transform="translate(-7,403)" font-family="sans-serif" font-size="10px" fill="#000" opacity="1">0</text><text text-anchor="end" transform="translate(-7,349.87624473739885)" font-family="sans-serif" font-size="10px" fill="#000" opacity="1">10</text><text text-anchor="end" transform="translate(-7,296.75248947479776)" font-family="sans-serif" font-size="10px" fill="#000" opacity="1">20</text><text text-anchor="end" transform="translate(-7,243.6287342121966)" font-family="sans-serif" font-size="10px" fill="#000" opacity="1">30</text><text text-anchor="end" transform="translate(-7,190.50497894959545)" font-family="sans-serif" font-size="10px" fill="#000" opacity="1">40</text><text text-anchor="end" transform="translate(-7,137.3812236869943)" font-family="sans-serif" font-size="10px" fill="#000" opacity="1">50</text><text text-anchor="end" transform="translate(-7,84.25746842439318)" font-family="sans-serif" font-size="10px" fill="#000" opacity="1">60</text><text text-anchor="end" transform="translate(-7,31.13371316179203)" font-family="sans-serif" font-size="10px" fill="#000" opacity="1">70</text></g><g class="mark-rule role-axis-domain" pointer-events="none"><line transform="translate(0,400)" x2="0" y2="-400" stroke="#888" stroke-width="1" opacity="1"/></g><g class="mark-text role-axis-title" pointer-events="none"><text text-anchor="middle" transform="translate(-22.123046875,200) rotate(-90) translate(0,-2)" font-family="sans-serif" font-size="11px" font-weight="bold" fill="#000" opacity="1">Execution Time (seconds, lower=better)</text></g></g><path class="foreground" aria-hidden="true" d="" pointer-events="none" display="none"/></g></g><g class="mark-group role-scope" role="graphics-object" aria-roledescription="group mark container"><g transform="translate(6,398.72395518015054)"><path class="background" aria-hidden="true" d="M0.63802240992473,0L107.36197759007527,0C107.7141117440766,0,108,0.2858882559234018,108,0.63802240992473L108,1.27604481984946C108,1.27604481984946,108,1.27604481984946,108,1.27604481984946L0,1.27604481984946C0,1.27604481984946,0,1.27604481984946,0,1.27604481984946L0,0.63802240992473C0,0.2858882559234018,0.2858882559234018,0,0.63802240992473,0Z"/><g clip-path="url(#clip7)"><g class="mark-group role-scope" role="graphics-object" aria-roledescription="group mark container"><g transform="translate(0,-398.72395518015054)"><path class="background" aria-hidden="true" d="M0,0h108v0h-108Z"/><g><g class="mark-rect role-mark layer_0_marks" role="graphics-object" aria-roledescription="rect mark container"><path aria-label="Parser: yaml_rs; Execution Time (seconds, lower=better): 0.240202299996; parser: yaml_rs; Execution Time (s): 0.2402; Slowdown: 1.00" role="graphics-symbol" aria-roledescription="bar" d="M0,398.72395518015054h108v1.27604481984946h-108Z" fill="#66a61e"/></g></g><path class="foreground" aria-hidden="true" d="" display="none"/></g></g></g><path class="foreground" aria-hidden="true" d="" display="none"/></g><g transform="translate(126,398.5386919272655)"><path class="background" aria-hidden="true" d="M0.7306540363672411,0L107.26934596363276,0C107.67260490401102,0,108,0.3273950959889753,108,0.7306540363672411L108,1.4613080727344823C108,1.4613080727344823,108,1.4613080727344823,108,1.4613080727344823L0,1.4613080727344823C0,1.4613080727344823,0,1.4613080727344823,0,1.4613080727344823L0,0.7306540363672411C0,0.3273950959889753,0.3273950959889753,0,0.7306540363672411,0Z"/><g clip-path="url(#clip8)"><g class="mark-group role-scope" role="graphics-object" aria-roledescription="group mark container"><g transform="translate(0,-398.5386919272655)"><path class="background" aria-hidden="true" d="M0,0h108v0h-108Z"/><g><g class="mark-rect role-mark layer_0_marks" role="graphics-object" aria-roledescription="rect mark container"><path aria-label="Parser: ryaml; Execution Time (seconds, lower=better): 0.2750762; parser: ryaml; Execution Time (s): 0.2751; Slowdown: 1.15" role="graphics-symbol" aria-roledescription="bar" d="M0,398.5386919272655h108v1.4613080727344823h-108Z" fill="#e7298a"/></g></g><path class="foreground" aria-hidden="true" d="" display="none"/></g></g></g><path class="foreground" aria-hidden="true" d="" display="none"/></g><g transform="translate(246,390.6424566306838)"><path class="background" aria-hidden="true" d="M4.678771684658102,0L103.3212283153419,0C105.90351270428181,0,108,2.096487295718192,108,4.678771684658102L108,9.357543369316204C108,9.357543369316204,108,9.357543369316204,108,9.357543369316204L0,9.357543369316204C0,9.357543369316204,0,9.357543369316204,0,9.357543369316204L0,4.678771684658102C0,2.096487295718192,2.096487295718192,0,4.678771684658102,0Z"/><g clip-path="url(#clip9)"><g class="mark-group role-scope" role="graphics-object" aria-roledescription="group mark container"><g transform="translate(0,-390.6424566306838)"><path class="background" aria-hidden="true" d="M0,0h108v0h-108Z"/><g><g class="mark-rect role-mark layer_0_marks" role="graphics-object" aria-roledescription="rect mark container"><path aria-label="Parser: ruamel.yaml; Execution Time (seconds, lower=better): 1.7614612; parser: ruamel.yaml; Execution Time (s): 1.7615; Slowdown: 7.33" role="graphics-symbol" aria-roledescription="bar" d="M0,390.6424566306838h108v9.357543369316204h-108Z" fill="#7570b3"/></g></g><path class="foreground" aria-hidden="true" d="" display="none"/></g></g></g><path class="foreground" aria-hidden="true" d="" display="none"/></g><g transform="translate(366,22.19556104800917)"><path class="background" aria-hidden="true" d="M6,0L102,0C105.311490146964,0,108,2.688509853036,108,6L108,377.80443895199085C108,377.80443895199085,108,377.80443895199085,108,377.80443895199085L0,377.80443895199085C0,377.80443895199085,0,377.80443895199085,0,377.80443895199085L0,6C0,2.688509853036,2.688509853036,0,6,0Z"/><g clip-path="url(#clip10)"><g class="mark-group role-scope" role="graphics-object" aria-roledescription="group mark container"><g transform="translate(0,-22.19556104800917)"><path class="background" aria-hidden="true" d="M0,0h108v0h-108Z"/><g><g class="mark-rect role-mark layer_0_marks" role="graphics-object" aria-roledescription="rect mark container"><path aria-label="Parser: oyaml; Execution Time (seconds, lower=better): 71.117796; parser: oyaml; Execution Time (s): 71.1178; Slowdown: 296.07" role="graphics-symbol" aria-roledescription="bar" d="M0,22.19556104800917h108v377.80443895199085h-108Z" fill="#d95f02"/></g></g><path class="foreground" aria-hidden="true" d="" display="none"/></g></g></g><path class="foreground" aria-hidden="true" d="" display="none"/></g><g transform="translate(486,15.384615384615374)"><path class="background" aria-hidden="true" d="M6,0L102,0C105.311490146964,0,108,2.688509853036,108,6L108,384.61538461538464C108,384.61538461538464,108,384.61538461538464,108,384.61538461538464L0,384.61538461538464C0,384.61538461538464,0,384.61538461538464,0,384.61538461538464L0,6C0,2.688509853036,2.688509853036,0,6,0Z"/><g clip-path="url(#clip11)"><g class="mark-group role-scope" role="graphics-object" aria-roledescription="group mark container"><g transform="translate(0,-15.384615384615374)"><path class="background" aria-hidden="true" d="M0,0h108v0h-108Z"/><g><g class="mark-rect role-mark layer_0_marks" role="graphics-object" aria-roledescription="rect mark container"><path aria-label="Parser: PyYAML; Execution Time (seconds, lower=better): 72.3998864; parser: PyYAML; Execution Time (s): 72.3999; Slowdown: 301.41" role="graphics-symbol" aria-roledescription="bar" d="M0,15.384615384615374h108v384.61538461538464h-108Z" fill="#1b9e77"/></g></g><path class="foreground" aria-hidden="true" d="" display="none"/></g></g></g><path class="foreground" aria-hidden="true" d="" display="none"/></g></g><g class="mark-text role-mark layer_1_marks" role="graphics-object" aria-roledescription="text mark container"><text aria-label="Parser: yaml_rs; Execution Time (seconds, lower=better): 0.240202299996; parser: yaml_rs; label: 0.2402s (x1.00); Execution Time (s): 0.2402; Slowdown: 1.00" role="graphics-symbol" aria-roledescription="text mark" text-anchor="middle" transform="translate(60,394.72395518015054)" font-family="sans-serif" font-size="9px" font-weight="bold" fill="#66a61e">0.2402s (x1.00)</text><text aria-label="Parser: ryaml; Execution Time (seconds, lower=better): 0.2750762; parser: ryaml; label: 0.2751s (x1.15); Execution Time (s): 0.2751; Slowdown: 1.15" role="graphics-symbol" aria-roledescription="text mark" text-anchor="middle" transform="translate(180,394.5386919272655)" font-family="sans-serif" font-size="9px" font-weight="bold" fill="#e7298a">0.2751s (x1.15)</text><text aria-label="Parser: ruamel.yaml; Execution Time (seconds, lower=better): 1.7614612; parser: ruamel.yaml; label: 1.7615s (x7.33); Execution Time (s): 1.7615; Slowdown: 7.33" role="graphics-symbol" aria-roledescription="text mark" text-anchor="middle" transform="translate(300,386.6424566306838)" font-family="sans-serif" font-size="9px" font-weight="bold" fill="#7570b3">1.7615s (x7.33)</text><text aria-label="Parser: oyaml; Execution Time (seconds, lower=better): 71.117796; parser: oyaml; label: 71.1178s (x296.07); Execution Time (s): 71.1178; Slowdown: 296.07" role="graphics-symbol" aria-roledescription="text mark" text-anchor="middle" transform="translate(420,18.19556104800917)" font-family="sans-serif" font-size="9px" font-weight="bold" fill="#d95f02">71.1178s (x296.07)</text><text aria-label="Parser: PyYAML; Execution Time (seconds, lower=better): 72.3998864; parser: PyYAML; label: 72.3999s (x301.41); Execution Time (s): 72.3999; Slowdown: 301.41" role="graphics-symbol" aria-roledescription="text mark" text-anchor="middle" transform="translate(540,11.384615384615374)" font-family="sans-serif" font-size="9px" font-weight="bold" fill="#1b9e77">72.3999s (x301.41)</text></g><g class="mark-group role-title"><g transform="translate(300,-31)"><path class="background" aria-hidden="true" d="M0,0h0v0h0Z" pointer-events="none"/><g><g class="mark-text role-title-text" role="graphics-symbol" aria-roledescription="title" aria-label="Title text 'YAML parsers benchmark (dumps)'" pointer-events="none"><text text-anchor="middle" transform="translate(0,10)" font-family="sans-serif" font-size="13px" font-weight="bold" fill="#000" opacity="1">YAML parsers benchmark (dumps)</text></g><g class="mark-text role-title-subtitle" role="graphics-symbol" aria-roledescription="subtitle" aria-label="Subtitle text 'Python: 3.13.8 (Windows 10) | CPU: 11th Gen Intel(R) Core(TM) i5-11300H @ 3.10GHz'" pointer-events="none"><text text-anchor="middle" transform="translate(0,25)" font-family="sans-serif" font-size="12px" fill="#000" opacity="1">Python: 3.13.8 (Windows 10) | CPU: 11th Gen Intel(R) Core(TM) i5-11300H @ 3.10GHz</text></g></g><path class="foreground" aria-hidden="true" d="" pointer-events="none" display="none"/></g></g></g><path class="foreground" aria-hidden="true" d="" display="none"/></g></g></g><defs><clipPath id="clip7"><path d="M0.63802240992473,0L107.36197759007527,0C107.7141117440766,0,108,0.2858882559234018,108,0.63802240992473L108,1.27604481984946C108,1.27604481984946,108,1.27604481984946,108,1.27604481984946L0,1.27604481984946C0,1.27604481984946,0,1.27604481984946,0,1.27604481984946L0,0.63802240992473C0,0.2858882559234018,0.2858882559234018,0,0.63802240992473,0Z"/></clipPath><clipPath id="clip8"><path d="M0.7306540363672411,0L107.26934596363276,0C107.67260490401102,0,108,0.3273950959889753,108,0.7306540363672411L108,1.4613080727344823C108,1.4613080727344823,108,1.4613080727344823,108,1.4613080727344823L0,1.4613080727344823C0,1.4613080727344823,0,1.4613080727344823,0,1.4613080727344823L0,0.7306540363672411C0,0.3273950959889753,0.3273950959889753,0,0.7306540363672411,0Z"/></clipPath><clipPath id="clip9"><path d="M4.678771684658102,0L103.3212283153419,0C105.90351270428181,0,108,2.096487295718192,108,4.678771684658102L108,9.357543369316204C108,9.357543369316204,108,9.357543369316204,108,9.357543369316204L0,9.357543369316204C0,9.357543369316204,0,9.357543369316204,0,9.357543369316204L0,4.678771684658102C0,2.096487295718192,2.096487295718192,0,4.678771684658102,0Z"/></clipPath><clipPath id="clip10"><path d="M6,0L102,0C105.311490146964,0,108,2.688509853036,108,6L108,377.80443895199085C108,377.80443895199085,108,377.80443895199085,108,377.80443895199085L0,377.80443895199085C0,377.80443895199085,0,377.80443895199085,0,377.80443895199085L0,6C0,2.688509853036,2.688509853036,0,6,0Z"/></clipPath><clipPath id="clip11"><path d="M6,0L102,0C105.311490146964,0,108,2.688509853036,108,6L108,384.61538461538464C108,384.61538461538464,108,384.61538461538464,108,384.61538461538464L0,384.61538461538464C0,384.61538461538464,0,384.61538461538464,0,384.61538461538464L0,6C0,2.688509853036,2.688509853036,0,6,0Z"/></clipPath></defs></svg>