<svg xmlns="http://www.w3.org/2000/svg" xmlns:xlink="http://www.w3.org/1999/xlink" version="1.1" class="marks" width="844" height="689" viewBox="0 0 844 689"><rect width="844" height="689" fill="white"/><g fill="none" stroke-miterlimit="10" transform="translate(39,38)"><g class="mark-group role-frame root" role="graphics-object" aria-roledescription="group mark container"><g transform="translate(0,0)"><path class="background" aria-hidden="true" d="M0.5,0.5h800v600h-800Z" stroke="#ddd"/><g><g class="mark-group role-axis" role="graphics-symbol" aria-roledescription="axis" aria-label="X-axis titled 'Parser' for a discrete scale with 7 values: yaml_rs&#xA;v0.0.13, ryaml&#xA;v0.6.0, PyYAML (CSafeDumper)&#xA;v6.0.3, PyYAML (CDumper)&#xA;v6.0.3, oyaml&#xA;v1.0, PyYAML&#xA;v6.0.3, ruamel.yaml&#xA;v0.19.1"><g transform="translate(0.5,600.5)"><path class="background" aria-hidden="true" d="M0,0h0v0h0Z" pointer-events="none"/><g><g class="mark-rule role-axis-tick" pointer-events="none"><line transform="translate(57,0)" x2="0" y2="5" stroke="#888" stroke-width="1" opacity="1"/><line transform="translate(171,0)" x2="0" y2="5" stroke="#888" stroke-width="1" opacity="1"/><line transform="translate(285,0)" x2="0" y2="5" stroke="#888" stroke-width="1" opacity="1"/><line transform="translate(400,0)" x2="0" y2="5" stroke="#888" stroke-width="1" opacity="1"/><line transform="translate(514,0)" x2="0" y2="5" stroke="#888" stroke-width="1" opacity="1"/><line transform="translate(628,0)" x2="0" y2="5" stroke="#888" stroke-width="1" opacity="1"/><line transform="translate(742,0)" x2="0" y2="5" stroke="#888" stroke-width="1" opacity="1"/></g><g class="mark-text role-axis-label" pointer-events="none"><text text-anchor="middle" transform="translate(56.642857142857096,15)" font-family="sans-serif" font-size="10px" fill="#000" opacity="1"><tspan>yaml_rs</tspan><tspan x="0" dy="14">v0.0.13</tspan></text><text text-anchor="middle" transform="translate(170.9285714285714,15)" font-family="sans-serif" font-size="10px" fill="#000" opacity="1"><tspan>ryaml</tspan><tspan x="0" dy="14">v0.6.0</tspan></text><text text-anchor="middle" transform="translate(285.21428571428567,15)" font-family="sans-serif" font-size="10px" fill="#000" opacity="1"><tspan>PyYAML (CSafeDumper)</tspan><tspan x="0" dy="14">v6.0.3</tspan></text><text text-anchor="middle" transform="translate(399.5,15)" font-family="sans-serif" font-size="10px" fill="#000" opacity="1"><tspan>PyYAML (CDumper)</tspan><tspan x="0" dy="14">v6.0.3</tspan></text><text text-anchor="middle" transform="translate(513.7857142857142,15)" font-family="sans-serif" font-size="10px" fill="#000" opacity="1"><tspan>oyaml</tspan><tspan x="0" dy="14">v1.0</tspan></text><text text-anchor="middle" transform="translate(628.0714285714286,15)" font-family="sans-serif" font-size="10px" fill="#000" opacity="1"><tspan>PyYAML</tspan><tspan x="0" dy="14">v6.0.3</tspan></text><text text-anchor="middle" transform="translate(742.3571428571429,15)" font-family="sans-serif" font-size="10px" fill="#000" opacity="1"><tspan>ruamel.yaml</tspan><tspan x="0" dy="14">v0.19.1</tspan></text></g><g class="mark-rule role-axis-domain" pointer-events="none"><line transform="translate(0,0)" x2="800" y2="0" stroke="#888" stroke-width="1" opacity="1"/></g><g class="mark-text role-axis-title" pointer-events="none"><text text-anchor="middle" transform="translate(400,44)" font-family="sans-serif" font-size="11px" font-weight="bold" fill="#000" opacity="1">Parser</text></g></g><path class="foreground" aria-hidden="true" d="" pointer-events="none" display="none"/></g></g><g class="mark-group role-axis" role="graphics-symbol" aria-roledescription="axis" aria-label="Y-axis titled 'Execution Time (seconds, lower=better)' for a linear scale with values from 0 to 14"><g transform="translate(0.5,0.5)"><path class="background" aria-hidden="true" d="M0,0h0v0h0Z" pointer-events="none"/><g><g class="mark-rule role-axis-tick" pointer-events="none"><line transform="translate(0,600)" x2="-5" y2="0" stroke="#888" stroke-width="1" opacity="1"/><line transform="translate(0,557)" x2="-5" y2="0" stroke="#888" stroke-width="1" opacity="1"/><line transform="translate(0,515)" x2="-5" y2="0" stroke="#888" stroke-width="1" opacity="1"/><line transform="translate(0,472)" x2="-5" y2="0" stroke="#888" stroke-width="1" opacity="1"/><line transform="translate(0,430)" x2="-5" y2="0" stroke="#888" stroke-width="1" opacity="1"/><line transform="translate(0,387)" x2="-5" y2="0" stroke="#888" stroke-width="1" opacity="1"/><line transform="translate(0,344)" x2="-5" y2="0" stroke="#888" stroke-width="1" opacity="1"/><line transform="translate(0,302)" x2="-5" y2="0" stroke="#888" stroke-width="1" opacity="1"/><line transform="translate(0,259)" x2="-5" y2="0" stroke="#888" stroke-width="1" opacity="1"/><line transform="translate(0,216)" x2="-5" y2="0" stroke="#888" stroke-width="1" opacity="1"/><line transform="translate(0,174)" x2="-5" y2="0" stroke="#888" stroke-width="1" opacity="1"/><line transform="translate(0,131)" x2="-5" y2="0" stroke="#888" stroke-width="1" opacity="1"/><line transform="translate(0,89)" x2="-5" y2="0" stroke="#888" stroke-width="1" opacity="1"/><line transform="translate(0,46)" x2="-5" y2="0" stroke="#888" stroke-width="1" opacity="1"/><line transform="translate(0,3)" x2="-5" y2="0" stroke="#888" stroke-width="1" opacity="1"/></g><g class="mark-text role-axis-label" pointer-events="none"><text text-anchor="end" transform="translate(-7,603)" font-family="sans-serif" font-size="10px" fill="#000" opacity="1">0</text><text text-anchor="end" transform="translate(-7,560.375462903444)" font-family="sans-serif" font-size="10px" fill="#000" opacity="1">1</text><text text-anchor="end" transform="translate(-7,517.7509258068881)" font-family="sans-serif" font-size="10px" fill="#000" opacity="1">2</text><text text-anchor="end" transform="translate(-7,475.12638871033204)" font-family="sans-serif" font-size="10px" fill="#000" opacity="1">3</text><text text-anchor="end" transform="translate(-7,432.501851613776)" font-family="sans-serif" font-size="10px" fill="#000" opacity="1">4</text><text text-anchor="end" transform="translate(-7,389.8773145172201)" font-family="sans-serif" font-size="10px" fill="#000" opacity="1">5</text><text text-anchor="end" transform="translate(-7,347.25277742066413)" font-family="sans-serif" font-size="10px" fill="#000" opacity="1">6</text><text text-anchor="end" transform="translate(-7,304.6282403241081)" font-family="sans-serif" font-size="10px" fill="#000" opacity="1">7</text><text text-anchor="end" transform="translate(-7,262.00370322755214)" font-family="sans-serif" font-size="10px" fill="#000" opacity="1">8</text><text text-anchor="end" transform="translate(-7,219.37916613099617)" font-family="sans-serif" font-size="10px" fill="#000" opacity="1">9</text><text text-anchor="end" transform="translate(-7,176.75462903444014)" font-family="sans-serif" font-size="10px" fill="#000" opacity="1">10</text><text text-anchor="end" transform="translate(-7,134.13009193788417)" font-family="sans-serif" font-size="10px" fill="#000" opacity="1">11</text><text text-anchor="end" transform="translate(-7,91.50555484132823)" font-family="sans-serif" font-size="10px" fill="#000" opacity="1">12</text><text text-anchor="end" transform="translate(-7,48.8810177447722)" font-family="sans-serif" font-size="10px" fill="#000" opacity="1">13</text><text text-anchor="end" transform="translate(-7,6.256480648216242)" font-family="sans-serif" font-size="10px" fill="#000" opacity="1">14</text></g><g class="mark-rule role-axis-domain" pointer-events="none"><line transform="translate(0,600)" x2="0" y2="-600" stroke="#888" stroke-width="1" opacity="1"/></g><g class="mark-text role-axis-title" pointer-events="none"><text text-anchor="middle" transform="translate(-22.123046875,300) rotate(-90) translate(0,-2)" font-family="sans-serif" font-size="11px" font-weight="bold" fill="#000" opacity="1">Execution Time (seconds, lower=better)</text></g></g><path class="foreground" aria-hidden="true" d="" pointer-events="none" display="none"/></g></g><g class="mark-group role-scope" role="graphics-object" aria-roledescription="group mark container"><g transform="translate(5.714285714285666,598.2958440113337)"><path class="background" aria-hidden="true" d="M0.8520779943331718,0L102.00506486280969,0C102.47533950992288,0,102.85714285714286,0.3818033472199809,102.85714285714286,0.8520779943331718L102.85714285714286,1.7041559886663435C102.85714285714286,1.7041559886663435,102.85714285714286,1.7041559886663435,102.85714285714286,1.7041559886663435L0,1.7041559886663435C0,1.7041559886663435,0,1.7041559886663435,0,1.7041559886663435L0,0.8520779943331718C0,0.3818033472199809,0.3818033472199809,0,0.8520779943331718,0Z"/><g clip-path="url(#clip9)"><g class="mark-group role-scope" role="graphics-object" aria-roledescription="group mark container"><g transform="translate(0,-598.2958440113337)"><path class="background" aria-hidden="true" d="M0,0h102.85714285714286v0h-102.85714285714286Z"/><g><g class="mark-rect role-mark layer_0_marks" role="graphics-object" aria-roledescription="rect mark container"><path aria-label="Parser: yaml_rs&#xA;v0.0.13; Execution Time (seconds, lower=better): 0.0399806333335; parser: yaml_rs; Execution Time (s): 0.0400; Slowdown: 1.00" role="graphics-symbol" aria-roledescription="bar" d="M0,598.2958440113337h102.85714285714286v1.7041559886663435h-102.85714285714286Z" fill="#a6761d"/></g></g><path class="foreground" aria-hidden="true" d="" display="none"/></g></g></g><path class="foreground" aria-hidden="true" d="" display="none"/></g><g transform="translate(119.99999999999996,589.6621374610227)"><path class="background" aria-hidden="true" d="M5.168931269488667,0L97.6882115876542,0C100.54102241586183,0,102.85714285714286,2.3161204412810266,102.85714285714286,5.168931269488667L102.85714285714286,10.337862538977333C102.85714285714286,10.337862538977333,102.85714285714286,10.337862538977333,102.85714285714286,10.337862538977333L0,10.337862538977333C0,10.337862538977333,0,10.337862538977333,0,10.337862538977333L0,5.168931269488667C0,2.3161204412810266,2.3161204412810266,0,5.168931269488667,0Z"/><g clip-path="url(#clip10)"><g class="mark-group role-scope" role="graphics-object" aria-roledescription="group mark container"><g transform="translate(0,-589.6621374610227)"><path class="background" aria-hidden="true" d="M0,0h102.85714285714286v0h-102.85714285714286Z"/><g><g class="mark-rect role-mark layer_0_marks" role="graphics-object" aria-roledescription="rect mark container"><path aria-label="Parser: ryaml&#xA;v0.6.0; Execution Time (seconds, lower=better): 0.242533133335; parser: ryaml; Execution Time (s): 0.2425; Slowdown: 6.07" role="graphics-symbol" aria-roledescription="bar" d="M0,589.6621374610227h102.85714285714286v10.337862538977333h-102.85714285714286Z" fill="#e6ab02"/></g></g><path class="foreground" aria-hidden="true" d="" display="none"/></g></g></g><path class="foreground" aria-hidden="true" d="" display="none"/></g><g transform="translate(234.28571428571425,587.8470255398764)"><path class="background" aria-hidden="true" d="M6,0L96.85714285714286,0C100.16863300410687,0,102.85714285714286,2.688509853036,102.85714285714286,6L102.85714285714286,12.152974460123573C102.85714285714286,12.152974460123573,102.85714285714286,12.152974460123573,102.85714285714286,12.152974460123573L0,12.152974460123573C0,12.152974460123573,0,12.152974460123573,0,12.152974460123573L0,6C0,2.688509853036,2.688509853036,0,6,0Z"/><g clip-path="url(#clip11)"><g class="mark-group role-scope" role="graphics-object" aria-roledescription="group mark container"><g transform="translate(0,-587.8470255398764)"><path class="background" aria-hidden="true" d="M0,0h102.85714285714286v0h-102.85714285714286Z"/><g><g class="mark-rect role-mark layer_0_marks" role="graphics-object" aria-roledescription="rect mark container"><path aria-label="Parser: PyYAML (CSafeDumper)&#xA;v6.0.3; Execution Time (seconds, lower=better): 0.285116866668; parser: PyYAML (CSafeDumper); Execution Time (s): 0.2851; Slowdown: 7.13" role="graphics-symbol" aria-roledescription="bar" d="M0,587.8470255398764h102.85714285714286v12.152974460123573h-102.85714285714286Z" fill="#7570b3"/></g></g><path class="foreground" aria-hidden="true" d="" display="none"/></g></g></g><path class="foreground" aria-hidden="true" d="" display="none"/></g><g transform="translate(348.57142857142856,587.7801263288953)"><path class="background" aria-hidden="true" d="M6,0L96.85714285714286,0C100.16863300410687,0,102.85714285714286,2.688509853036,102.85714285714286,6L102.85714285714286,12.219873671104665C102.85714285714286,12.219873671104665,102.85714285714286,12.219873671104665,102.85714285714286,12.219873671104665L0,12.219873671104665C0,12.219873671104665,0,12.219873671104665,0,12.219873671104665L0,6C0,2.688509853036,2.688509853036,0,6,0Z"/><g clip-path="url(#clip12)"><g class="mark-group role-scope" role="graphics-object" aria-roledescription="group mark container"><g transform="translate(0,-587.7801263288953)"><path class="background" aria-hidden="true" d="M0,0h102.85714285714286v0h-102.85714285714286Z"/><g><g class="mark-rect role-mark layer_0_marks" role="graphics-object" aria-roledescription="rect mark container"><path aria-label="Parser: PyYAML (CDumper)&#xA;v6.0.3; Execution Time (seconds, lower=better): 0.286686366668; parser: PyYAML (CDumper); Execution Time (s): 0.2867; Slowdown: 7.17" role="graphics-symbol" aria-roledescription="bar" d="M0,587.7801263288953h102.85714285714286v12.219873671104665h-102.85714285714286Z" fill="#d95f02"/></g></g><path class="foreground" aria-hidden="true" d="" display="none"/></g></g></g><path class="foreground" aria-hidden="true" d="" display="none"/></g><g transform="translate(462.85714285714283,50.50319413110218)"><path class="background" aria-hidden="true" d="M6,0L96.85714285714286,0C100.16863300410687,0,102.85714285714286,2.688509853036,102.85714285714286,6L102.85714285714286,549.4968058688978C102.85714285714286,549.4968058688978,102.85714285714286,549.4968058688978,102.85714285714286,549.4968058688978L0,549.4968058688978C0,549.4968058688978,0,549.4968058688978,0,549.4968058688978L0,6C0,2.688509853036,2.688509853036,0,6,0Z"/><g clip-path="url(#clip13)"><g class="mark-group role-scope" role="graphics-object" aria-roledescription="group mark container"><g transform="translate(0,-50.50319413110218)"><path class="background" aria-hidden="true" d="M0,0h102.85714285714286v0h-102.85714285714286Z"/><g><g class="mark-rect role-mark layer_0_marks" role="graphics-object" aria-roledescription="rect mark container"><path aria-label="Parser: oyaml&#xA;v1.0; Execution Time (seconds, lower=better): 12.8915606667; parser: oyaml; Execution Time (s): 12.8916; Slowdown: 322.45" role="graphics-symbol" aria-roledescription="bar" d="M0,50.50319413110218h102.85714285714286v549.4968058688978h-102.85714285714286Z" fill="#e7298a"/></g></g><path class="foreground" aria-hidden="true" d="" display="none"/></g></g></g><path class="foreground" aria-hidden="true" d="" display="none"/></g><g transform="translate(577.1428571428571,50.422757367229124)"><path class="background" aria-hidden="true" d="M6,0L96.85714285714286,0C100.16863300410687,0,102.85714285714286,2.688509853036,102.85714285714286,6L102.85714285714286,549.5772426327709C102.85714285714286,549.5772426327709,102.85714285714286,549.5772426327709,102.85714285714286,549.5772426327709L0,549.5772426327709C0,549.5772426327709,0,549.5772426327709,0,549.5772426327709L0,6C0,2.688509853036,2.688509853036,0,6,0Z"/><g clip-path="url(#clip14)"><g class="mark-group role-scope" role="graphics-object" aria-roledescription="group mark container"><g transform="translate(0,-50.422757367229124)"><path class="background" aria-hidden="true" d="M0,0h102.85714285714286v0h-102.85714285714286Z"/><g><g class="mark-rect role-mark layer_0_marks" role="graphics-object" aria-roledescription="rect mark container"><path aria-label="Parser: PyYAML&#xA;v6.0.3; Execution Time (seconds, lower=better): 12.8934477667; parser: PyYAML; Execution Time (s): 12.8934; Slowdown: 322.49" role="graphics-symbol" aria-roledescription="bar" d="M0,50.422757367229124h102.85714285714286v549.5772426327709h-102.85714285714286Z" fill="#1b9e77"/></g></g><path class="foreground" aria-hidden="true" d="" display="none"/></g></g></g><path class="foreground" aria-hidden="true" d="" display="none"/></g><g transform="translate(691.4285714285714,23.07692307692313)"><path class="background" aria-hidden="true" d="M6,0L96.85714285714286,0C100.16863300410687,0,102.85714285714286,2.688509853036,102.85714285714286,6L102.85714285714286,576.9230769230769C102.85714285714286,576.9230769230769,102.85714285714286,576.9230769230769,102.85714285714286,576.9230769230769L0,576.9230769230769C0,576.9230769230769,0,576.9230769230769,0,576.9230769230769L0,6C0,2.688509853036,2.688509853036,0,6,0Z"/><g clip-path="url(#clip15)"><g class="mark-group role-scope" role="graphics-object" aria-roledescription="group mark container"><g transform="translate(0,-23.07692307692313)"><path class="background" aria-hidden="true" d="M0,0h102.85714285714286v0h-102.85714285714286Z"/><g><g class="mark-rect role-mark layer_0_marks" role="graphics-object" aria-roledescription="rect mark container"><path aria-label="Parser: ruamel.yaml&#xA;v0.19.1; Execution Time (seconds, lower=better): 13.5349992333; parser: ruamel.yaml; Execution Time (s): 13.5350; Slowdown: 338.54" role="graphics-symbol" aria-roledescription="bar" d="M0,23.07692307692313h102.85714285714286v576.9230769230769h-102.85714285714286Z" fill="#66a61e"/></g></g><path class="foreground" aria-hidden="true" d="" display="none"/></g></g></g><path class="foreground" aria-hidden="true" d="" display="none"/></g></g><g class="mark-text role-mark layer_1_marks" role="graphics-object" aria-roledescription="text mark container"><text aria-label="Parser: yaml_rs&#xA;v0.0.13; Execution Time (seconds, lower=better): 0.0399806333335; parser: yaml_rs; label: 0.0400s (x1.00); Execution Time (s): 0.0400; Slowdown: 1.00" role="graphics-symbol" aria-roledescription="text mark" text-anchor="middle" transform="translate(57.142857142857096,594.2958440113337)" font-family="sans-serif" font-size="9px" font-weight="bold" fill="#a6761d">0.0400s (x1.00)</text><text aria-label="Parser: ryaml&#xA;v0.6.0; Execution Time (seconds, lower=better): 0.242533133335; parser: ryaml; label: 0.2425s (x6.07); Execution Time (s): 0.2425; Slowdown: 6.07" role="graphics-symbol" aria-roledescription="text mark" text-anchor="middle" transform="translate(171.4285714285714,585.6621374610227)" font-family="sans-serif" font-size="9px" font-weight="bold" fill="#e6ab02">0.2425s (x6.07)</text><text aria-label="Parser: PyYAML (CSafeDumper)&#xA;v6.0.3; Execution Time (seconds, lower=better): 0.285116866668; parser: PyYAML (CSafeDumper); label: 0.2851s (x7.13); Execution Time (s): 0.2851; Slowdown: 7.13" role="graphics-symbol" aria-roledescription="text mark" text-anchor="middle" transform="translate(285.71428571428567,583.8470255398764)" font-family="sans-serif" font-size="9px" font-weight="bold" fill="#7570b3">0.2851s (x7.13)</text><text aria-label="Parser: PyYAML (CDumper)&#xA;v6.0.3; Execution Time (seconds, lower=better): 0.286686366668; parser: PyYAML (CDumper); label: 0.2867s (x7.17); Execution Time (s): 0.2867; Slowdown: 7.17" role="graphics-symbol" aria-roledescription="text mark" text-anchor="middle" transform="translate(400,583.7801263288953)" font-family="sans-serif" font-size="9px" font-weight="bold" fill="#d95f02">0.2867s (x7.17)</text><text aria-label="Parser: oyaml&#xA;v1.0; Execution Time (seconds, lower=better): 12.8915606667; parser: oyaml; label: 12.8916s (x322.45); Execution Time (s): 12.8916; Slowdown: 322.45" role="graphics-symbol" aria-roledescription="text mark" text-anchor="middle" transform="translate(514.2857142857142,46.50319413110218)" font-family="sans-serif" font-size="9px" font-weight="bold" fill="#e7298a">12.8916s (x322.45)</text><text aria-label="Parser: PyYAML&#xA;v6.0.3; Execution Time (seconds, lower=better): 12.8934477667; parser: PyYAML; label: 12.8934s (x322.49); Execution Time (s): 12.8934; Slowdown: 322.49" role="graphics-symbol" aria-roledescription="text mark" text-anchor="middle" transform="translate(628.5714285714286,46.422757367229124)" font-family="sans-serif" font-size="9px" font-weight="bold" fill="#1b9e77">12.8934s (x322.49)</text><text aria-label="Parser: ruamel.yaml&#xA;v0.19.1; Execution Time (seconds, lower=better): 13.5349992333; parser: ruamel.yaml; label: 13.5350s (x338.54); Execution Time (s): 13.5350; Slowdown: 338.54" role="graphics-symbol" aria-roledescription="text mark" text-anchor="middle" transform="translate(742.8571428571429,19.07692307692313)" font-family="sans-serif" font-size="9px" font-weight="bold" fill="#66a61e">13.5350s (x338.54)</text></g><g class="mark-group role-title"><g transform="translate(400,-32.74351935178376)"><path class="background" aria-hidden="true" d="M0,0h0v0h0Z" pointer-events="none"/><g><g class="mark-text role-title-text" role="graphics-symbol" aria-roledescription="title" aria-label="Title text 'YAML parsers benchmark (dumps)'" pointer-events="none"><text text-anchor="middle" transform="translate(0,10)" font-family="sans-serif" font-size="13px" font-weight="bold" fill="#000" opacity="1">YAML parsers benchmark (dumps)</text></g><g class="mark-text role-title-subtitle" role="graphics-symbol" aria-roledescription="subtitle" aria-label="Subtitle text 'Python: 3.13.8 (Windows 10) | CPU: 11th Gen Intel(R) Core(TM) i5-11300H @ 3.10GHz'" pointer-events="none"><text text-anchor="middle" transform="translate(0,25)" font-family="sans-serif" font-size="12px" fill="#000" opacity="1">Python: 3.13.8 (Windows 10) | CPU: 11th Gen Intel(R) Core(TM) i5-11300H @ 3.10GHz</text></g></g><path class="foreground" aria-hidden="true" d="" pointer-events="none" display="none"/></g></g></g><path class="foreground" aria-hidden="true" d="" display="none"/></g></g></g><defs><clipPath id="clip9"><path d="M0.8520779943331718,0L102.00506486280969,0C102.47533950992288,0,102.85714285714286,0.3818033472199809,102.85714285714286,0.8520779943331718L102.85714285714286,1.7041559886663435C102.85714285714286,1.7041559886663435,102.85714285714286,1.7041559886663435,102.85714285714286,1.7041559886663435L0,1.7041559886663435C0,1.7041559886663435,0,1.7041559886663435,0,1.7041559886663435L0,0.8520779943331718C0,0.3818033472199809,0.3818033472199809,0,0.8520779943331718,0Z"/></clipPath><clipPath id="clip10"><path d="M5.168931269488667,0L97.6882115876542,0C100.54102241586183,0,102.85714285714286,2.3161204412810266,102.85714285714286,5.168931269488667L102.85714285714286,10.337862538977333C102.85714285714286,10.337862538977333,102.85714285714286,10.337862538977333,102.85714285714286,10.337862538977333L0,10.337862538977333C0,10.337862538977333,0,10.337862538977333,0,10.337862538977333L0,5.168931269488667C0,2.3161204412810266,2.3161204412810266,0,5.168931269488667,0Z"/></clipPath><clipPath id="clip11"><path d="M6,0L96.85714285714286,0C100.16863300410687,0,102.85714285714286,2.688509853036,102.85714285714286,6L102.85714285714286,12.152974460123573C102.85714285714286,12.152974460123573,102.85714285714286,12.152974460123573,102.85714285714286,12.152974460123573L0,12.152974460123573C0,12.152974460123573,0,12.152974460123573,0,12.152974460123573L0,6C0,2.688509853036,2.688509853036,0,6,0Z"/></clipPath><clipPath id="clip12"><path d="M6,0L96.85714285714286,0C100.16863300410687,0,102.85714285714286,2.688509853036,102.85714285714286,6L102.85714285714286,12.219873671104665C102.85714285714286,12.219873671104665,102.85714285714286,12.219873671104665,102.85714285714286,12.219873671104665L0,12.219873671104665C0,12.219873671104665,0,12.219873671104665,0,12.219873671104665L0,6C0,2.688509853036,2.688509853036,0,6,0Z"/></clipPath><clipPath id="clip13"><path d="M6,0L96.85714285714286,0C100.16863300410687,0,102.85714285714286,2.688509853036,102.85714285714286,6L102.85714285714286,549.4968058688978C102.85714285714286,549.4968058688978,102.85714285714286,549.4968058688978,102.85714285714286,549.4968058688978L0,549.4968058688978C0,549.4968058688978,0,549.4968058688978,0,549.4968058688978L0,6C0,2.688509853036,2.688509853036,0,6,0Z"/></clipPath><clipPath id="clip14"><path d="M6,0L96.85714285714286,0C100.16863300410687,0,102.85714285714286,2.688509853036,102.85714285714286,6L102.85714285714286,549.5772426327709C102.85714285714286,549.5772426327709,102.85714285714286,549.5772426327709,102.85714285714286,549.5772426327709L0,549.5772426327709C0,549.5772426327709,0,549.5772426327709,0,549.5772426327709L0,6C0,2.688509853036,2.688509853036,0,6,0Z"/></clipPath><clipPath id="clip15"><path d="M6,0L96.85714285714286,0C100.16863300410687,0,102.85714285714286,2.688509853036,102.85714285714286,6L102.85714285714286,576.9230769230769C102.85714285714286,576.9230769230769,102.85714285714286,576.9230769230769,102.85714285714286,576.9230769230769L0,576.9230769230769C0,576.9230769230769,0,576.9230769230769,0,576.9230769230769L0,6C0,2.688509853036,2.688509853036,0,6,0Z"/></clipPath></defs></svg>