<svg xmlns="http://www.w3.org/2000/svg" xmlns:xlink="http://www.w3.org/1999/xlink" version="1.1" class="marks" width="844" height="687" viewBox="0 0 844 687"><rect width="844" height="687" fill="white"/><g fill="none" stroke-miterlimit="10" transform="translate(39,36)"><g class="mark-group role-frame root" role="graphics-object" aria-roledescription="group mark container"><g transform="translate(0,0)"><path class="background" aria-hidden="true" d="M0.5,0.5h800v600h-800Z" stroke="#ddd"/><g><g class="mark-group role-axis" role="graphics-symbol" aria-roledescription="axis" aria-label="X-axis titled 'Parser' for a discrete scale with 7 values: yaml_rs&#xA;v0.0.12, ryaml&#xA;v0.6.0, PyYAML (CSafeDumper)&#xA;v6.0.3, PyYAML (CDumper)&#xA;v6.0.3, oyaml&#xA;v1.0, PyYAML&#xA;v6.0.3, ruamel.yaml&#xA;v0.19.1"><g transform="translate(0.5,600.5)"><path class="background" aria-hidden="true" d="M0,0h0v0h0Z" pointer-events="none"/><g><g class="mark-rule role-axis-tick" pointer-events="none"><line transform="translate(57,0)" x2="0" y2="5" stroke="#888" stroke-width="1" opacity="1"/><line transform="translate(171,0)" x2="0" y2="5" stroke="#888" stroke-width="1" opacity="1"/><line transform="translate(285,0)" x2="0" y2="5" stroke="#888" stroke-width="1" opacity="1"/><line transform="translate(400,0)" x2="0" y2="5" stroke="#888" stroke-width="1" opacity="1"/><line transform="translate(514,0)" x2="0" y2="5" stroke="#888" stroke-width="1" opacity="1"/><line transform="translate(628,0)" x2="0" y2="5" stroke="#888" stroke-width="1" opacity="1"/><line transform="translate(742,0)" x2="0" y2="5" stroke="#888" stroke-width="1" opacity="1"/></g><g class="mark-text role-axis-label" pointer-events="none"><text text-anchor="middle" transform="translate(56.642857142857096,15)" font-family="sans-serif" font-size="10px" fill="#000" opacity="1"><tspan>yaml_rs</tspan><tspan x="0" dy="14">v0.0.12</tspan></text><text text-anchor="middle" transform="translate(170.9285714285714,15)" font-family="sans-serif" font-size="10px" fill="#000" opacity="1"><tspan>ryaml</tspan><tspan x="0" dy="14">v0.6.0</tspan></text><text text-anchor="middle" transform="translate(285.21428571428567,15)" font-family="sans-serif" font-size="10px" fill="#000" opacity="1"><tspan>PyYAML (CSafeDumper)</tspan><tspan x="0" dy="14">v6.0.3</tspan></text><text text-anchor="middle" transform="translate(399.5,15)" font-family="sans-serif" font-size="10px" fill="#000" opacity="1"><tspan>PyYAML (CDumper)</tspan><tspan x="0" dy="14">v6.0.3</tspan></text><text text-anchor="middle" transform="translate(513.7857142857142,15)" font-family="sans-serif" font-size="10px" fill="#000" opacity="1"><tspan>oyaml</tspan><tspan x="0" dy="14">v1.0</tspan></text><text text-anchor="middle" transform="translate(628.0714285714286,15)" font-family="sans-serif" font-size="10px" fill="#000" opacity="1"><tspan>PyYAML</tspan><tspan x="0" dy="14">v6.0.3</tspan></text><text text-anchor="middle" transform="translate(742.3571428571429,15)" font-family="sans-serif" font-size="10px" fill="#000" opacity="1"><tspan>ruamel.yaml</tspan><tspan x="0" dy="14">v0.19.1</tspan></text></g><g class="mark-rule role-axis-domain" pointer-events="none"><line transform="translate(0,0)" x2="800" y2="0" stroke="#888" stroke-width="1" opacity="1"/></g><g class="mark-text role-axis-title" pointer-events="none"><text text-anchor="middle" transform="translate(400,44)" font-family="sans-serif" font-size="11px" font-weight="bold" fill="#000" opacity="1">Parser</text></g></g><path class="foreground" aria-hidden="true" d="" pointer-events="none" display="none"/></g></g><g class="mark-group role-axis" role="graphics-symbol" aria-roledescription="axis" aria-label="Y-axis titled 'Execution Time (seconds, lower=better)' for a linear scale with values from 0 to 14"><g transform="translate(0.5,0.5)"><path class="background" aria-hidden="true" d="M0,0h0v0h0Z" pointer-events="none"/><g><g class="mark-rule role-axis-tick" pointer-events="none"><line transform="translate(0,600)" x2="-5" y2="0" stroke="#888" stroke-width="1" opacity="1"/><line transform="translate(0,557)" x2="-5" y2="0" stroke="#888" stroke-width="1" opacity="1"/><line transform="translate(0,514)" x2="-5" y2="0" stroke="#888" stroke-width="1" opacity="1"/><line transform="translate(0,471)" x2="-5" y2="0" stroke="#888" stroke-width="1" opacity="1"/><line transform="translate(0,428)" x2="-5" y2="0" stroke="#888" stroke-width="1" opacity="1"/><line transform="translate(0,385)" x2="-5" y2="0" stroke="#888" stroke-width="1" opacity="1"/><line transform="translate(0,342)" x2="-5" y2="0" stroke="#888" stroke-width="1" opacity="1"/><line transform="translate(0,300)" x2="-5" y2="0" stroke="#888" stroke-width="1" opacity="1"/><line transform="translate(0,257)" x2="-5" y2="0" stroke="#888" stroke-width="1" opacity="1"/><line transform="translate(0,214)" x2="-5" y2="0" stroke="#888" stroke-width="1" opacity="1"/><line transform="translate(0,171)" x2="-5" y2="0" stroke="#888" stroke-width="1" opacity="1"/><line transform="translate(0,128)" x2="-5" y2="0" stroke="#888" stroke-width="1" opacity="1"/><line transform="translate(0,85)" x2="-5" y2="0" stroke="#888" stroke-width="1" opacity="1"/><line transform="translate(0,42)" x2="-5" y2="0" stroke="#888" stroke-width="1" opacity="1"/></g><g class="mark-text role-axis-label" pointer-events="none"><text text-anchor="end" transform="translate(-7,603)" font-family="sans-serif" font-size="10px" fill="#000" opacity="1">0</text><text text-anchor="end" transform="translate(-7,560.0830452217253)" font-family="sans-serif" font-size="10px" fill="#000" opacity="1">1</text><text text-anchor="end" transform="translate(-7,517.1660904434506)" font-family="sans-serif" font-size="10px" fill="#000" opacity="1">2</text><text text-anchor="end" transform="translate(-7,474.24913566517586)" font-family="sans-serif" font-size="10px" fill="#000" opacity="1">3</text><text text-anchor="end" transform="translate(-7,431.33218088690114)" font-family="sans-serif" font-size="10px" fill="#000" opacity="1">4</text><text text-anchor="end" transform="translate(-7,388.4152261086265)" font-family="sans-serif" font-size="10px" fill="#000" opacity="1">5</text><text text-anchor="end" transform="translate(-7,345.49827133035177)" font-family="sans-serif" font-size="10px" fill="#000" opacity="1">6</text><text text-anchor="end" transform="translate(-7,302.58131655207706)" font-family="sans-serif" font-size="10px" fill="#000" opacity="1">7</text><text text-anchor="end" transform="translate(-7,259.66436177380234)" font-family="sans-serif" font-size="10px" fill="#000" opacity="1">8</text><text text-anchor="end" transform="translate(-7,216.74740699552763)" font-family="sans-serif" font-size="10px" fill="#000" opacity="1">9</text><text text-anchor="end" transform="translate(-7,173.83045221725294)" font-family="sans-serif" font-size="10px" fill="#000" opacity="1">10</text><text text-anchor="end" transform="translate(-7,130.9134974389782)" font-family="sans-serif" font-size="10px" fill="#000" opacity="1">11</text><text text-anchor="end" transform="translate(-7,87.99654266070351)" font-family="sans-serif" font-size="10px" fill="#000" opacity="1">12</text><text text-anchor="end" transform="translate(-7,45.079587882428825)" font-family="sans-serif" font-size="10px" fill="#000" opacity="1">13</text></g><g class="mark-rule role-axis-domain" pointer-events="none"><line transform="translate(0,600)" x2="0" y2="-600" stroke="#888" stroke-width="1" opacity="1"/></g><g class="mark-text role-axis-title" pointer-events="none"><text text-anchor="middle" transform="translate(-22.123046875,300) rotate(-90) translate(0,-2)" font-family="sans-serif" font-size="11px" font-weight="bold" fill="#000" opacity="1">Execution Time (seconds, lower=better)</text></g></g><path class="foreground" aria-hidden="true" d="" pointer-events="none" display="none"/></g></g><g class="mark-group role-scope" role="graphics-object" aria-roledescription="group mark container"><g transform="translate(5.714285714285666,598.2589993401698)"><path class="background" aria-hidden="true" d="M0.8705003299151031,0L101.98664252722776,0C102.46708473813489,0,102.85714285714286,0.3900581190079739,102.85714285714286,0.8705003299151031L102.85714285714286,1.7410006598302061C102.85714285714286,1.7410006598302061,102.85714285714286,1.7410006598302061,102.85714285714286,1.7410006598302061L0,1.7410006598302061C0,1.7410006598302061,0,1.7410006598302061,0,1.7410006598302061L0,0.8705003299151031C0,0.3900581190079739,0.3900581190079739,0,0.8705003299151031,0Z"/><g clip-path="url(#clip9)"><g class="mark-group role-scope" role="graphics-object" aria-roledescription="group mark container"><g transform="translate(0,-598.2589993401698)"><path class="background" aria-hidden="true" d="M0,0h102.85714285714286v0h-102.85714285714286Z"/><g><g class="mark-rect role-mark layer_0_marks" role="graphics-object" aria-roledescription="rect mark container"><path aria-label="Parser: yaml_rs&#xA;v0.0.12; Execution Time (seconds, lower=better): 0.0405667333301; parser: yaml_rs; Execution Time (s): 0.0406; Slowdown: 1.00" role="graphics-symbol" aria-roledescription="bar" d="M0,598.2589993401698h102.85714285714286v1.7410006598302061h-102.85714285714286Z" fill="#a6761d"/></g></g><path class="foreground" aria-hidden="true" d="" display="none"/></g></g></g><path class="foreground" aria-hidden="true" d="" display="none"/></g><g transform="translate(119.99999999999996,589.416235476493)"><path class="background" aria-hidden="true" d="M5.291882261753528,0L97.56526059538933,0C100.4859299235044,0,102.85714285714286,2.3712129336384655,102.85714285714286,5.291882261753528L102.85714285714286,10.583764523507057C102.85714285714286,10.583764523507057,102.85714285714286,10.583764523507057,102.85714285714286,10.583764523507057L0,10.583764523507057C0,10.583764523507057,0,10.583764523507057,0,10.583764523507057L0,5.291882261753528C0,2.3712129336384655,2.3712129336384655,0,5.291882261753528,0Z"/><g clip-path="url(#clip10)"><g class="mark-group role-scope" role="graphics-object" aria-roledescription="group mark container"><g transform="translate(0,-589.416235476493)"><path class="background" aria-hidden="true" d="M0,0h102.85714285714286v0h-102.85714285714286Z"/><g><g class="mark-rect role-mark layer_0_marks" role="graphics-object" aria-roledescription="rect mark container"><path aria-label="Parser: ryaml&#xA;v0.6.0; Execution Time (seconds, lower=better): 0.246610333333; parser: ryaml; Execution Time (s): 0.2466; Slowdown: 6.08" role="graphics-symbol" aria-roledescription="bar" d="M0,589.416235476493h102.85714285714286v10.583764523507057h-102.85714285714286Z" fill="#e6ab02"/></g></g><path class="foreground" aria-hidden="true" d="" display="none"/></g></g></g><path class="foreground" aria-hidden="true" d="" display="none"/></g><g transform="translate(234.28571428571425,587.560909771245)"><path class="background" aria-hidden="true" d="M6,0L96.85714285714286,0C100.16863300410687,0,102.85714285714286,2.688509853036,102.85714285714286,6L102.85714285714286,12.439090228755049C102.85714285714286,12.439090228755049,102.85714285714286,12.439090228755049,102.85714285714286,12.439090228755049L0,12.439090228755049C0,12.439090228755049,0,12.439090228755049,0,12.439090228755049L0,6C0,2.688509853036,2.688509853036,0,6,0Z"/><g clip-path="url(#clip11)"><g class="mark-group role-scope" role="graphics-object" aria-roledescription="group mark container"><g transform="translate(0,-587.560909771245)"><path class="background" aria-hidden="true" d="M0,0h102.85714285714286v0h-102.85714285714286Z"/><g><g class="mark-rect role-mark layer_0_marks" role="graphics-object" aria-roledescription="rect mark container"><path aria-label="Parser: PyYAML (CSafeDumper)&#xA;v6.0.3; Execution Time (seconds, lower=better): 0.289840933333; parser: PyYAML (CSafeDumper); Execution Time (s): 0.2898; Slowdown: 7.14" role="graphics-symbol" aria-roledescription="bar" d="M0,587.560909771245h102.85714285714286v12.439090228755049h-102.85714285714286Z" fill="#7570b3"/></g></g><path class="foreground" aria-hidden="true" d="" display="none"/></g></g></g><path class="foreground" aria-hidden="true" d="" display="none"/></g><g transform="translate(348.57142857142856,587.4965758255357)"><path class="background" aria-hidden="true" d="M6,0L96.85714285714286,0C100.16863300410687,0,102.85714285714286,2.688509853036,102.85714285714286,6L102.85714285714286,12.503424174464271C102.85714285714286,12.503424174464271,102.85714285714286,12.503424174464271,102.85714285714286,12.503424174464271L0,12.503424174464271C0,12.503424174464271,0,12.503424174464271,0,12.503424174464271L0,6C0,2.688509853036,2.688509853036,0,6,0Z"/><g clip-path="url(#clip12)"><g class="mark-group role-scope" role="graphics-object" aria-roledescription="group mark container"><g transform="translate(0,-587.4965758255357)"><path class="background" aria-hidden="true" d="M0,0h102.85714285714286v0h-102.85714285714286Z"/><g><g class="mark-rect role-mark layer_0_marks" role="graphics-object" aria-roledescription="rect mark container"><path aria-label="Parser: PyYAML (CDumper)&#xA;v6.0.3; Execution Time (seconds, lower=better): 0.291339966665; parser: PyYAML (CDumper); Execution Time (s): 0.2913; Slowdown: 7.18" role="graphics-symbol" aria-roledescription="bar" d="M0,587.4965758255357h102.85714285714286v12.503424174464271h-102.85714285714286Z" fill="#d95f02"/></g></g><path class="foreground" aria-hidden="true" d="" display="none"/></g></g></g><path class="foreground" aria-hidden="true" d="" display="none"/></g><g transform="translate(462.85714285714283,54.77760897434902)"><path class="background" aria-hidden="true" d="M6,0L96.85714285714286,0C100.16863300410687,0,102.85714285714286,2.688509853036,102.85714285714286,6L102.85714285714286,545.222391025651C102.85714285714286,545.222391025651,102.85714285714286,545.222391025651,102.85714285714286,545.222391025651L0,545.222391025651C0,545.222391025651,0,545.222391025651,0,545.222391025651L0,6C0,2.688509853036,2.688509853036,0,6,0Z"/><g clip-path="url(#clip13)"><g class="mark-group role-scope" role="graphics-object" aria-roledescription="group mark container"><g transform="translate(0,-54.77760897434902)"><path class="background" aria-hidden="true" d="M0,0h102.85714285714286v0h-102.85714285714286Z"/><g><g class="mark-rect role-mark layer_0_marks" role="graphics-object" aria-roledescription="rect mark container"><path aria-label="Parser: oyaml&#xA;v1.0; Execution Time (seconds, lower=better): 12.7041257667; parser: oyaml; Execution Time (s): 12.7041; Slowdown: 313.17" role="graphics-symbol" aria-roledescription="bar" d="M0,54.77760897434902h102.85714285714286v545.222391025651h-102.85714285714286Z" fill="#e7298a"/></g></g><path class="foreground" aria-hidden="true" d="" display="none"/></g></g></g><path class="foreground" aria-hidden="true" d="" display="none"/></g><g transform="translate(577.1428571428571,42.7323218615729)"><path class="background" aria-hidden="true" d="M6,0L96.85714285714286,0C100.16863300410687,0,102.85714285714286,2.688509853036,102.85714285714286,6L102.85714285714286,557.2676781384271C102.85714285714286,557.2676781384271,102.85714285714286,557.2676781384271,102.85714285714286,557.2676781384271L0,557.2676781384271C0,557.2676781384271,0,557.2676781384271,0,557.2676781384271L0,6C0,2.688509853036,2.688509853036,0,6,0Z"/><g clip-path="url(#clip14)"><g class="mark-group role-scope" role="graphics-object" aria-roledescription="group mark container"><g transform="translate(0,-42.7323218615729)"><path class="background" aria-hidden="true" d="M0,0h102.85714285714286v0h-102.85714285714286Z"/><g><g class="mark-rect role-mark layer_0_marks" role="graphics-object" aria-roledescription="rect mark container"><path aria-label="Parser: PyYAML&#xA;v6.0.3; Execution Time (seconds, lower=better): 12.9847907667; parser: PyYAML; Execution Time (s): 12.9848; Slowdown: 320.08" role="graphics-symbol" aria-roledescription="bar" d="M0,42.7323218615729h102.85714285714286v557.2676781384271h-102.85714285714286Z" fill="#1b9e77"/></g></g><path class="foreground" aria-hidden="true" d="" display="none"/></g></g></g><path class="foreground" aria-hidden="true" d="" display="none"/></g><g transform="translate(691.4285714285714,23.076923076923062)"><path class="background" aria-hidden="true" d="M6,0L96.85714285714286,0C100.16863300410687,0,102.85714285714286,2.688509853036,102.85714285714286,6L102.85714285714286,576.9230769230769C102.85714285714286,576.9230769230769,102.85714285714286,576.9230769230769,102.85714285714286,576.9230769230769L0,576.9230769230769C0,576.9230769230769,0,576.9230769230769,0,576.9230769230769L0,6C0,2.688509853036,2.688509853036,0,6,0Z"/><g clip-path="url(#clip15)"><g class="mark-group role-scope" role="graphics-object" aria-roledescription="group mark container"><g transform="translate(0,-23.076923076923062)"><path class="background" aria-hidden="true" d="M0,0h102.85714285714286v0h-102.85714285714286Z"/><g><g class="mark-rect role-mark layer_0_marks" role="graphics-object" aria-roledescription="rect mark container"><path aria-label="Parser: ruamel.yaml&#xA;v0.19.1; Execution Time (seconds, lower=better): 13.4427775667; parser: ruamel.yaml; Execution Time (s): 13.4428; Slowdown: 331.37" role="graphics-symbol" aria-roledescription="bar" d="M0,23.076923076923062h102.85714285714286v576.9230769230769h-102.85714285714286Z" fill="#66a61e"/></g></g><path class="foreground" aria-hidden="true" d="" display="none"/></g></g></g><path class="foreground" aria-hidden="true" d="" display="none"/></g></g><g class="mark-text role-mark layer_1_marks" role="graphics-object" aria-roledescription="text mark container"><text aria-label="Parser: yaml_rs&#xA;v0.0.12; Execution Time (seconds, lower=better): 0.0405667333301; parser: yaml_rs; label: 0.0406s (x1.00); Execution Time (s): 0.0406; Slowdown: 1.00" role="graphics-symbol" aria-roledescription="text mark" text-anchor="middle" transform="translate(57.142857142857096,594.2589993401698)" font-family="sans-serif" font-size="9px" font-weight="bold" fill="#a6761d">0.0406s (x1.00)</text><text aria-label="Parser: ryaml&#xA;v0.6.0; Execution Time (seconds, lower=better): 0.246610333333; parser: ryaml; label: 0.2466s (x6.08); Execution Time (s): 0.2466; Slowdown: 6.08" role="graphics-symbol" aria-roledescription="text mark" text-anchor="middle" transform="translate(171.4285714285714,585.416235476493)" font-family="sans-serif" font-size="9px" font-weight="bold" fill="#e6ab02">0.2466s (x6.08)</text><text aria-label="Parser: PyYAML (CSafeDumper)&#xA;v6.0.3; Execution Time (seconds, lower=better): 0.289840933333; parser: PyYAML (CSafeDumper); label: 0.2898s (x7.14); Execution Time (s): 0.2898; Slowdown: 7.14" role="graphics-symbol" aria-roledescription="text mark" text-anchor="middle" transform="translate(285.71428571428567,583.560909771245)" font-family="sans-serif" font-size="9px" font-weight="bold" fill="#7570b3">0.2898s (x7.14)</text><text aria-label="Parser: PyYAML (CDumper)&#xA;v6.0.3; Execution Time (seconds, lower=better): 0.291339966665; parser: PyYAML (CDumper); label: 0.2913s (x7.18); Execution Time (s): 0.2913; Slowdown: 7.18" role="graphics-symbol" aria-roledescription="text mark" text-anchor="middle" transform="translate(400,583.4965758255357)" font-family="sans-serif" font-size="9px" font-weight="bold" fill="#d95f02">0.2913s (x7.18)</text><text aria-label="Parser: oyaml&#xA;v1.0; Execution Time (seconds, lower=better): 12.7041257667; parser: oyaml; label: 12.7041s (x313.17); Execution Time (s): 12.7041; Slowdown: 313.17" role="graphics-symbol" aria-roledescription="text mark" text-anchor="middle" transform="translate(514.2857142857142,50.77760897434902)" font-family="sans-serif" font-size="9px" font-weight="bold" fill="#e7298a">12.7041s (x313.17)</text><text aria-label="Parser: PyYAML&#xA;v6.0.3; Execution Time (seconds, lower=better): 12.9847907667; parser: PyYAML; label: 12.9848s (x320.08); Execution Time (s): 12.9848; Slowdown: 320.08" role="graphics-symbol" aria-roledescription="text mark" text-anchor="middle" transform="translate(628.5714285714286,38.7323218615729)" font-family="sans-serif" font-size="9px" font-weight="bold" fill="#1b9e77">12.9848s (x320.08)</text><text aria-label="Parser: ruamel.yaml&#xA;v0.19.1; Execution Time (seconds, lower=better): 13.4427775667; parser: ruamel.yaml; label: 13.4428s (x331.37); Execution Time (s): 13.4428; Slowdown: 331.37" role="graphics-symbol" aria-roledescription="text mark" text-anchor="middle" transform="translate(742.8571428571429,19.076923076923062)" font-family="sans-serif" font-size="9px" font-weight="bold" fill="#66a61e">13.4428s (x331.37)</text></g><g class="mark-group role-title"><g transform="translate(400,-31)"><path class="background" aria-hidden="true" d="M0,0h0v0h0Z" pointer-events="none"/><g><g class="mark-text role-title-text" role="graphics-symbol" aria-roledescription="title" aria-label="Title text 'YAML parsers benchmark (dumps)'" pointer-events="none"><text text-anchor="middle" transform="translate(0,10)" font-family="sans-serif" font-size="13px" font-weight="bold" fill="#000" opacity="1">YAML parsers benchmark (dumps)</text></g><g class="mark-text role-title-subtitle" role="graphics-symbol" aria-roledescription="subtitle" aria-label="Subtitle text 'Python: 3.13.8 (Windows 10) | CPU: 11th Gen Intel(R) Core(TM) i5-11300H @ 3.10GHz'" pointer-events="none"><text text-anchor="middle" transform="translate(0,25)" font-family="sans-serif" font-size="12px" fill="#000" opacity="1">Python: 3.13.8 (Windows 10) | CPU: 11th Gen Intel(R) Core(TM) i5-11300H @ 3.10GHz</text></g></g><path class="foreground" aria-hidden="true" d="" pointer-events="none" display="none"/></g></g></g><path class="foreground" aria-hidden="true" d="" display="none"/></g></g></g><defs><clipPath id="clip9"><path d="M0.8705003299151031,0L101.98664252722776,0C102.46708473813489,0,102.85714285714286,0.3900581190079739,102.85714285714286,0.8705003299151031L102.85714285714286,1.7410006598302061C102.85714285714286,1.7410006598302061,102.85714285714286,1.7410006598302061,102.85714285714286,1.7410006598302061L0,1.7410006598302061C0,1.7410006598302061,0,1.7410006598302061,0,1.7410006598302061L0,0.8705003299151031C0,0.3900581190079739,0.3900581190079739,0,0.8705003299151031,0Z"/></clipPath><clipPath id="clip10"><path d="M5.291882261753528,0L97.56526059538933,0C100.4859299235044,0,102.85714285714286,2.3712129336384655,102.85714285714286,5.291882261753528L102.85714285714286,10.583764523507057C102.85714285714286,10.583764523507057,102.85714285714286,10.583764523507057,102.85714285714286,10.583764523507057L0,10.583764523507057C0,10.583764523507057,0,10.583764523507057,0,10.583764523507057L0,5.291882261753528C0,2.3712129336384655,2.3712129336384655,0,5.291882261753528,0Z"/></clipPath><clipPath id="clip11"><path d="M6,0L96.85714285714286,0C100.16863300410687,0,102.85714285714286,2.688509853036,102.85714285714286,6L102.85714285714286,12.439090228755049C102.85714285714286,12.439090228755049,102.85714285714286,12.439090228755049,102.85714285714286,12.439090228755049L0,12.439090228755049C0,12.439090228755049,0,12.439090228755049,0,12.439090228755049L0,6C0,2.688509853036,2.688509853036,0,6,0Z"/></clipPath><clipPath id="clip12"><path d="M6,0L96.85714285714286,0C100.16863300410687,0,102.85714285714286,2.688509853036,102.85714285714286,6L102.85714285714286,12.503424174464271C102.85714285714286,12.503424174464271,102.85714285714286,12.503424174464271,102.85714285714286,12.503424174464271L0,12.503424174464271C0,12.503424174464271,0,12.503424174464271,0,12.503424174464271L0,6C0,2.688509853036,2.688509853036,0,6,0Z"/></clipPath><clipPath id="clip13"><path d="M6,0L96.85714285714286,0C100.16863300410687,0,102.85714285714286,2.688509853036,102.85714285714286,6L102.85714285714286,545.222391025651C102.85714285714286,545.222391025651,102.85714285714286,545.222391025651,102.85714285714286,545.222391025651L0,545.222391025651C0,545.222391025651,0,545.222391025651,0,545.222391025651L0,6C0,2.688509853036,2.688509853036,0,6,0Z"/></clipPath><clipPath id="clip14"><path d="M6,0L96.85714285714286,0C100.16863300410687,0,102.85714285714286,2.688509853036,102.85714285714286,6L102.85714285714286,557.2676781384271C102.85714285714286,557.2676781384271,102.85714285714286,557.2676781384271,102.85714285714286,557.2676781384271L0,557.2676781384271C0,557.2676781384271,0,557.2676781384271,0,557.2676781384271L0,6C0,2.688509853036,2.688509853036,0,6,0Z"/></clipPath><clipPath id="clip15"><path d="M6,0L96.85714285714286,0C100.16863300410687,0,102.85714285714286,2.688509853036,102.85714285714286,6L102.85714285714286,576.9230769230769C102.85714285714286,576.9230769230769,102.85714285714286,576.9230769230769,102.85714285714286,576.9230769230769L0,576.9230769230769C0,576.9230769230769,0,576.9230769230769,0,576.9230769230769L0,6C0,2.688509853036,2.688509853036,0,6,0Z"/></clipPath></defs></svg>