<svg xmlns="http://www.w3.org/2000/svg" xmlns:xlink="http://www.w3.org/1999/xlink" version="1.1" class="marks" width="844" height="687" viewBox="0 0 844 687"><rect width="844" height="687" fill="white"/><g fill="none" stroke-miterlimit="10" transform="translate(39,36)"><g class="mark-group role-frame root" role="graphics-object" aria-roledescription="group mark container"><g transform="translate(0,0)"><path class="background" aria-hidden="true" d="M0.5,0.5h800v600h-800Z" stroke="#ddd"/><g><g class="mark-group role-axis" role="graphics-symbol" aria-roledescription="axis" aria-label="X-axis titled 'Parser' for a discrete scale with 9 values: yaml_rs (parse_dt=False)&#xA;v0.1.4, yaml_rs&#xA;v0.1.4, yamlrocks&#xA;v0.2.1, ryaml&#xA;v0.5.1, PyYAML (CLoader)&#xA;v6.0.3, ending with ruamel.yaml&#xA;v0.19.1"><g transform="translate(0.5,600.5)"><path class="background" aria-hidden="true" d="M0,0h0v0h0Z" pointer-events="none"/><g><g class="mark-rule role-axis-tick" pointer-events="none"><line transform="translate(44,0)" x2="0" y2="5" stroke="#888" stroke-width="1" opacity="1"/><line transform="translate(133,0)" x2="0" y2="5" stroke="#888" stroke-width="1" opacity="1"/><line transform="translate(222,0)" x2="0" y2="5" stroke="#888" stroke-width="1" opacity="1"/><line transform="translate(311,0)" x2="0" y2="5" stroke="#888" stroke-width="1" opacity="1"/><line transform="translate(400,0)" x2="0" y2="5" stroke="#888" stroke-width="1" opacity="1"/><line transform="translate(488,0)" x2="0" y2="5" stroke="#888" stroke-width="1" opacity="1"/><line transform="translate(577,0)" x2="0" y2="5" stroke="#888" stroke-width="1" opacity="1"/><line transform="translate(666,0)" x2="0" y2="5" stroke="#888" stroke-width="1" opacity="1"/><line transform="translate(755,0)" x2="0" y2="5" stroke="#888" stroke-width="1" opacity="1"/></g><g class="mark-text role-axis-label" pointer-events="none"><text text-anchor="middle" transform="translate(43.94444444444446,15)" font-family="sans-serif" font-size="10px" fill="#000" opacity="1"><tspan>yaml_rs (parse_dt=False)</tspan><tspan x="0" dy="14">v0.1.4</tspan></text><text text-anchor="middle" transform="translate(132.83333333333334,15)" font-family="sans-serif" font-size="10px" fill="#000" opacity="1"><tspan>yaml_rs</tspan><tspan x="0" dy="14">v0.1.4</tspan></text><text text-anchor="middle" transform="translate(221.72222222222223,15)" font-family="sans-serif" font-size="10px" fill="#000" opacity="1"><tspan>yamlrocks</tspan><tspan x="0" dy="14">v0.2.1</tspan></text><text text-anchor="middle" transform="translate(310.6111111111111,15)" font-family="sans-serif" font-size="10px" fill="#000" opacity="1"><tspan>ryaml</tspan><tspan x="0" dy="14">v0.5.1</tspan></text><text text-anchor="middle" transform="translate(399.5,15)" font-family="sans-serif" font-size="10px" fill="#000" opacity="1"><tspan>PyYAML (CLoader)</tspan><tspan x="0" dy="14">v6.0.3</tspan></text><text text-anchor="middle" transform="translate(488.3888888888889,15)" font-family="sans-serif" font-size="10px" fill="#000" opacity="1"><tspan>PyYAML (CSafeLoader)</tspan><tspan x="0" dy="14">v6.0.3</tspan></text><text text-anchor="middle" transform="translate(577.2777777777777,15)" font-family="sans-serif" font-size="10px" fill="#000" opacity="1"><tspan>PyYAML</tspan><tspan x="0" dy="14">v6.0.3</tspan></text><text text-anchor="middle" transform="translate(666.1666666666666,15)" font-family="sans-serif" font-size="10px" fill="#000" opacity="1"><tspan>oyaml</tspan><tspan x="0" dy="14">v1.0</tspan></text><text text-anchor="middle" transform="translate(755.0555555555555,15)" font-family="sans-serif" font-size="10px" fill="#000" opacity="1"><tspan>ruamel.yaml</tspan><tspan x="0" dy="14">v0.19.1</tspan></text></g><g class="mark-rule role-axis-domain" pointer-events="none"><line transform="translate(0,0)" x2="800" y2="0" stroke="#888" stroke-width="1" opacity="1"/></g><g class="mark-text role-axis-title" pointer-events="none"><text text-anchor="middle" transform="translate(400,44)" font-family="sans-serif" font-size="11px" font-weight="bold" fill="#000" opacity="1">Parser</text></g></g><path class="foreground" aria-hidden="true" d="" pointer-events="none" display="none"/></g></g><g class="mark-group role-axis" role="graphics-symbol" aria-roledescription="axis" aria-label="Y-axis titled 'Execution Time (seconds, lower=better)' for a linear scale with values from 0 to 35"><g transform="translate(0.5,0.5)"><path class="background" aria-hidden="true" d="M0,0h0v0h0Z" pointer-events="none"/><g><g class="mark-rule role-axis-tick" pointer-events="none"><line transform="translate(0,600)" x2="-5" y2="0" stroke="#888" stroke-width="1" opacity="1"/><line transform="translate(0,566)" x2="-5" y2="0" stroke="#888" stroke-width="1" opacity="1"/><line transform="translate(0,531)" x2="-5" y2="0" stroke="#888" stroke-width="1" opacity="1"/><line transform="translate(0,497)" x2="-5" y2="0" stroke="#888" stroke-width="1" opacity="1"/><line transform="translate(0,462)" x2="-5" y2="0" stroke="#888" stroke-width="1" opacity="1"/><line transform="translate(0,428)" x2="-5" y2="0" stroke="#888" stroke-width="1" opacity="1"/><line transform="translate(0,394)" x2="-5" y2="0" stroke="#888" stroke-width="1" opacity="1"/><line transform="translate(0,359)" x2="-5" y2="0" stroke="#888" stroke-width="1" opacity="1"/><line transform="translate(0,325)" x2="-5" y2="0" stroke="#888" stroke-width="1" opacity="1"/><line transform="translate(0,290)" x2="-5" y2="0" stroke="#888" stroke-width="1" opacity="1"/><line transform="translate(0,256)" x2="-5" y2="0" stroke="#888" stroke-width="1" opacity="1"/><line transform="translate(0,222)" x2="-5" y2="0" stroke="#888" stroke-width="1" opacity="1"/><line transform="translate(0,187)" x2="-5" y2="0" stroke="#888" stroke-width="1" opacity="1"/><line transform="translate(0,153)" x2="-5" y2="0" stroke="#888" stroke-width="1" opacity="1"/><line transform="translate(0,119)" x2="-5" y2="0" stroke="#888" stroke-width="1" opacity="1"/><line transform="translate(0,84)" x2="-5" y2="0" stroke="#888" stroke-width="1" opacity="1"/><line transform="translate(0,50)" x2="-5" y2="0" stroke="#888" stroke-width="1" opacity="1"/><line transform="translate(0,15)" x2="-5" y2="0" stroke="#888" stroke-width="1" opacity="1"/></g><g class="mark-text role-axis-label" pointer-events="none"><text text-anchor="end" transform="translate(-7,603)" font-family="sans-serif" font-size="10px" fill="#000" opacity="1">0</text><text text-anchor="end" transform="translate(-7,568.6075410783108)" font-family="sans-serif" font-size="10px" fill="#000" opacity="1">2</text><text text-anchor="end" transform="translate(-7,534.2150821566214)" font-family="sans-serif" font-size="10px" fill="#000" opacity="1">4</text><text text-anchor="end" transform="translate(-7,499.82262323493217)" font-family="sans-serif" font-size="10px" fill="#000" opacity="1">6</text><text text-anchor="end" transform="translate(-7,465.4301643132429)" font-family="sans-serif" font-size="10px" fill="#000" opacity="1">8</text><text text-anchor="end" transform="translate(-7,431.0377053915537)" font-family="sans-serif" font-size="10px" fill="#000" opacity="1">10</text><text text-anchor="end" transform="translate(-7,396.6452464698644)" font-family="sans-serif" font-size="10px" fill="#000" opacity="1">12</text><text text-anchor="end" transform="translate(-7,362.25278754817515)" font-family="sans-serif" font-size="10px" fill="#000" opacity="1">14</text><text text-anchor="end" transform="translate(-7,327.8603286264858)" font-family="sans-serif" font-size="10px" fill="#000" opacity="1">16</text><text text-anchor="end" transform="translate(-7,293.4678697047966)" font-family="sans-serif" font-size="10px" fill="#000" opacity="1">18</text><text text-anchor="end" transform="translate(-7,259.0754107831073)" font-family="sans-serif" font-size="10px" fill="#000" opacity="1">20</text><text text-anchor="end" transform="translate(-7,224.68295186141808)" font-family="sans-serif" font-size="10px" fill="#000" opacity="1">22</text><text text-anchor="end" transform="translate(-7,190.29049293972878)" font-family="sans-serif" font-size="10px" fill="#000" opacity="1">24</text><text text-anchor="end" transform="translate(-7,155.8980340180395)" font-family="sans-serif" font-size="10px" fill="#000" opacity="1">26</text><text text-anchor="end" transform="translate(-7,121.50557509635024)" font-family="sans-serif" font-size="10px" fill="#000" opacity="1">28</text><text text-anchor="end" transform="translate(-7,87.11311617466097)" font-family="sans-serif" font-size="10px" fill="#000" opacity="1">30</text><text text-anchor="end" transform="translate(-7,52.7206572529717)" font-family="sans-serif" font-size="10px" fill="#000" opacity="1">32</text><text text-anchor="end" transform="translate(-7,18.32819833128243)" font-family="sans-serif" font-size="10px" fill="#000" opacity="1">34</text></g><g class="mark-rule role-axis-domain" pointer-events="none"><line transform="translate(0,600)" x2="0" y2="-600" stroke="#888" stroke-width="1" opacity="1"/></g><g class="mark-text role-axis-title" pointer-events="none"><text text-anchor="middle" transform="translate(-22.123046875,300) rotate(-90) translate(0,-2)" font-family="sans-serif" font-size="11px" font-weight="bold" fill="#000" opacity="1">Execution Time (seconds, lower=better)</text></g></g><path class="foreground" aria-hidden="true" d="" pointer-events="none" display="none"/></g></g><g class="mark-group role-scope" role="graphics-object" aria-roledescription="group mark container"><g transform="translate(4.444444444444457,595.0201347391132)"><path class="background" aria-hidden="true" d="M2.489932630443377,0L77.51006736955662,0C78.88429859827619,0,80,1.1157014017238107,80,2.489932630443377L80,4.979865260886754C80,4.979865260886754,80,4.979865260886754,80,4.979865260886754L0,4.979865260886754C0,4.979865260886754,0,4.979865260886754,0,4.979865260886754L0,2.489932630443377C0,1.1157014017238107,1.1157014017238107,0,2.489932630443377,0Z"/><g clip-path="url(#clip1)"><g class="mark-group role-scope" role="graphics-object" aria-roledescription="group mark container"><g transform="translate(0,-595.0201347391132)"><path class="background" aria-hidden="true" d="M0,0h80v0h-80Z"/><g><g class="mark-rect role-mark layer_0_marks" role="graphics-object" aria-roledescription="rect mark container"><path aria-label="Parser: yaml_rs (parse_dt=False)&#xA;v0.1.4; Execution Time (seconds, lower=better): 0.289590533333; parser: yaml_rs (parse_dt=False); Execution Time (s): 0.2896; Slowdown: 1.00" role="graphics-symbol" aria-roledescription="bar" d="M0,595.0201347391132h80v4.979865260886754h-80Z" fill="#666666"/></g></g><path class="foreground" aria-hidden="true" d="" display="none"/></g></g></g><path class="foreground" aria-hidden="true" d="" display="none"/></g><g transform="translate(93.33333333333334,594.8660290091779)"><path class="background" aria-hidden="true" d="M2.5669854954110747,0L77.43301450458893,0C78.84977236716448,0,80,1.1502276328355288,80,2.5669854954110747L80,5.133970990822149C80,5.133970990822149,80,5.133970990822149,80,5.133970990822149L0,5.133970990822149C0,5.133970990822149,0,5.133970990822149,0,5.133970990822149L0,2.5669854954110747C0,1.1502276328355288,1.1502276328355288,0,2.5669854954110747,0Z"/><g clip-path="url(#clip2)"><g class="mark-group role-scope" role="graphics-object" aria-roledescription="group mark container"><g transform="translate(0,-594.8660290091779)"><path class="background" aria-hidden="true" d="M0,0h80v0h-80Z"/><g><g class="mark-rect role-mark layer_0_marks" role="graphics-object" aria-roledescription="rect mark container"><path aria-label="Parser: yaml_rs&#xA;v0.1.4; Execution Time (seconds, lower=better): 0.298552133333; parser: yaml_rs; Execution Time (s): 0.2986; Slowdown: 1.03" role="graphics-symbol" aria-roledescription="bar" d="M0,594.8660290091779h80v5.133970990822149h-80Z" fill="#a6761d"/></g></g><path class="foreground" aria-hidden="true" d="" display="none"/></g></g></g><path class="foreground" aria-hidden="true" d="" display="none"/></g><g transform="translate(182.22222222222223,592.566682763053)"><path class="background" aria-hidden="true" d="M3.7166586184735024,0L76.2833413815265,0C78.33462111397714,0,80,1.665378886022863,80,3.7166586184735024L80,7.433317236947005C80,7.433317236947005,80,7.433317236947005,80,7.433317236947005L0,7.433317236947005C0,7.433317236947005,0,7.433317236947005,0,7.433317236947005L0,3.7166586184735024C0,1.665378886022863,1.665378886022863,0,3.7166586184735024,0Z"/><g clip-path="url(#clip3)"><g class="mark-group role-scope" role="graphics-object" aria-roledescription="group mark container"><g transform="translate(0,-592.566682763053)"><path class="background" aria-hidden="true" d="M0,0h80v0h-80Z"/><g><g class="mark-rect role-mark layer_0_marks" role="graphics-object" aria-roledescription="rect mark container"><path aria-label="Parser: yamlrocks&#xA;v0.2.1; Execution Time (seconds, lower=better): 0.432264366667; parser: yamlrocks; Execution Time (s): 0.4323; Slowdown: 1.49" role="graphics-symbol" aria-roledescription="bar" d="M0,592.566682763053h80v7.433317236947005h-80Z" fill="#1b9e77"/></g></g><path class="foreground" aria-hidden="true" d="" display="none"/></g></g></g><path class="foreground" aria-hidden="true" d="" display="none"/></g><g transform="translate(271.1111111111111,586.9500353931535)"><path class="background" aria-hidden="true" d="M6,0L74,0C77.311490146964,0,80,2.688509853036,80,6L80,13.049964606846515C80,13.049964606846515,80,13.049964606846515,80,13.049964606846515L0,13.049964606846515C0,13.049964606846515,0,13.049964606846515,0,13.049964606846515L0,6C0,2.688509853036,2.688509853036,0,6,0Z"/><g clip-path="url(#clip4)"><g class="mark-group role-scope" role="graphics-object" aria-roledescription="group mark container"><g transform="translate(0,-586.9500353931535)"><path class="background" aria-hidden="true" d="M0,0h80v0h-80Z"/><g><g class="mark-rect role-mark layer_0_marks" role="graphics-object" aria-roledescription="rect mark container"><path aria-label="Parser: ryaml&#xA;v0.5.1; Execution Time (seconds, lower=better): 0.758885233333; parser: ryaml; Execution Time (s): 0.7589; Slowdown: 2.62" role="graphics-symbol" aria-roledescription="bar" d="M0,586.9500353931535h80v13.049964606846515h-80Z" fill="#e6ab02"/></g></g><path class="foreground" aria-hidden="true" d="" display="none"/></g></g></g><path class="foreground" aria-hidden="true" d="" display="none"/></g><g transform="translate(360,561.6102597706997)"><path class="background" aria-hidden="true" d="M6,0L74,0C77.311490146964,0,80,2.688509853036,80,6L80,38.38974022930029C80,38.38974022930029,80,38.38974022930029,80,38.38974022930029L0,38.38974022930029C0,38.38974022930029,0,38.38974022930029,0,38.38974022930029L0,6C0,2.688509853036,2.688509853036,0,6,0Z"/><g clip-path="url(#clip5)"><g class="mark-group role-scope" role="graphics-object" aria-roledescription="group mark container"><g transform="translate(0,-561.6102597706997)"><path class="background" aria-hidden="true" d="M0,0h80v0h-80Z"/><g><g class="mark-rect role-mark layer_0_marks" role="graphics-object" aria-roledescription="rect mark container"><path aria-label="Parser: PyYAML (CLoader)&#xA;v6.0.3; Execution Time (seconds, lower=better): 2.23245103333; parser: PyYAML (CLoader); Execution Time (s): 2.2325; Slowdown: 7.71" role="graphics-symbol" aria-roledescription="bar" d="M0,561.6102597706997h80v38.38974022930029h-80Z" fill="#d95f02"/></g></g><path class="foreground" aria-hidden="true" d="" display="none"/></g></g></g><path class="foreground" aria-hidden="true" d="" display="none"/></g><g transform="translate(448.8888888888889,561.5992553302614)"><path class="background" aria-hidden="true" d="M6,0L74,0C77.311490146964,0,80,2.688509853036,80,6L80,38.40074466973863C80,38.40074466973863,80,38.40074466973863,80,38.40074466973863L0,38.40074466973863C0,38.40074466973863,0,38.40074466973863,0,38.40074466973863L0,6C0,2.688509853036,2.688509853036,0,6,0Z"/><g clip-path="url(#clip6)"><g class="mark-group role-scope" role="graphics-object" aria-roledescription="group mark container"><g transform="translate(0,-561.5992553302614)"><path class="background" aria-hidden="true" d="M0,0h80v0h-80Z"/><g><g class="mark-rect role-mark layer_0_marks" role="graphics-object" aria-roledescription="rect mark container"><path aria-label="Parser: PyYAML (CSafeLoader)&#xA;v6.0.3; Execution Time (seconds, lower=better): 2.23309096667; parser: PyYAML (CSafeLoader); Execution Time (s): 2.2331; Slowdown: 7.71" role="graphics-symbol" aria-roledescription="bar" d="M0,561.5992553302614h80v38.40074466973863h-80Z" fill="#7570b3"/></g></g><path class="foreground" aria-hidden="true" d="" display="none"/></g></g></g><path class="foreground" aria-hidden="true" d="" display="none"/></g><g transform="translate(537.7777777777777,185.34916875173454)"><path class="background" aria-hidden="true" d="M6,0L74,0C77.311490146964,0,80,2.688509853036,80,6L80,414.6508312482655C80,414.6508312482655,80,414.6508312482655,80,414.6508312482655L0,414.6508312482655C0,414.6508312482655,0,414.6508312482655,0,414.6508312482655L0,6C0,2.688509853036,2.688509853036,0,6,0Z"/><g clip-path="url(#clip7)"><g class="mark-group role-scope" role="graphics-object" aria-roledescription="group mark container"><g transform="translate(0,-185.34916875173454)"><path class="background" aria-hidden="true" d="M0,0h80v0h-80Z"/><g><g class="mark-rect role-mark layer_0_marks" role="graphics-object" aria-roledescription="rect mark container"><path aria-label="Parser: PyYAML&#xA;v6.0.3; Execution Time (seconds, lower=better): 24.1128924333; parser: PyYAML; Execution Time (s): 24.1129; Slowdown: 83.27" role="graphics-symbol" aria-roledescription="bar" d="M0,185.34916875173454h80v414.6508312482655h-80Z" fill="#1b9e77"/></g></g><path class="foreground" aria-hidden="true" d="" display="none"/></g></g></g><path class="foreground" aria-hidden="true" d="" display="none"/></g><g transform="translate(626.6666666666666,160.12289970787683)"><path class="background" aria-hidden="true" d="M6,0L74,0C77.311490146964,0,80,2.688509853036,80,6L80,439.87710029212315C80,439.87710029212315,80,439.87710029212315,80,439.87710029212315L0,439.87710029212315C0,439.87710029212315,0,439.87710029212315,0,439.87710029212315L0,6C0,2.688509853036,2.688509853036,0,6,0Z"/><g clip-path="url(#clip8)"><g class="mark-group role-scope" role="graphics-object" aria-roledescription="group mark container"><g transform="translate(0,-160.12289970787683)"><path class="background" aria-hidden="true" d="M0,0h80v0h-80Z"/><g><g class="mark-rect role-mark layer_0_marks" role="graphics-object" aria-roledescription="rect mark container"><path aria-label="Parser: oyaml&#xA;v1.0; Execution Time (seconds, lower=better): 25.5798575667; parser: oyaml; Execution Time (s): 25.5799; Slowdown: 88.33" role="graphics-symbol" aria-roledescription="bar" d="M0,160.12289970787683h80v439.87710029212315h-80Z" fill="#e7298a"/></g></g><path class="foreground" aria-hidden="true" d="" display="none"/></g></g></g><path class="foreground" aria-hidden="true" d="" display="none"/></g><g transform="translate(715.5555555555555,23.07692307692313)"><path class="background" aria-hidden="true" d="M6,0L74,0C77.311490146964,0,80,2.688509853036,80,6L80,576.9230769230769C80,576.9230769230769,80,576.9230769230769,80,576.9230769230769L0,576.9230769230769C0,576.9230769230769,0,576.9230769230769,0,576.9230769230769L0,6C0,2.688509853036,2.688509853036,0,6,0Z"/><g clip-path="url(#clip9)"><g class="mark-group role-scope" role="graphics-object" aria-roledescription="group mark container"><g transform="translate(0,-23.07692307692313)"><path class="background" aria-hidden="true" d="M0,0h80v0h-80Z"/><g><g class="mark-rect role-mark layer_0_marks" role="graphics-object" aria-roledescription="rect mark container"><path aria-label="Parser: ruamel.yaml&#xA;v0.19.1; Execution Time (seconds, lower=better): 33.5493939667; parser: ruamel.yaml; Execution Time (s): 33.5494; Slowdown: 115.85" role="graphics-symbol" aria-roledescription="bar" d="M0,23.07692307692313h80v576.9230769230769h-80Z" fill="#66a61e"/></g></g><path class="foreground" aria-hidden="true" d="" display="none"/></g></g></g><path class="foreground" aria-hidden="true" d="" display="none"/></g></g><g class="mark-text role-mark layer_1_marks" role="graphics-object" aria-roledescription="text mark container"><text aria-label="Parser: yaml_rs (parse_dt=False)&#xA;v0.1.4; Execution Time (seconds, lower=better): 0.289590533333; parser: yaml_rs (parse_dt=False); label: 0.2896s (x1.00); Execution Time (s): 0.2896; Slowdown: 1.00" role="graphics-symbol" aria-roledescription="text mark" text-anchor="middle" transform="translate(44.44444444444446,591.0201347391132)" font-family="sans-serif" font-size="9px" font-weight="bold" fill="#666666">0.2896s (x1.00)</text><text aria-label="Parser: yaml_rs&#xA;v0.1.4; Execution Time (seconds, lower=better): 0.298552133333; parser: yaml_rs; label: 0.2986s (x1.03); Execution Time (s): 0.2986; Slowdown: 1.03" role="graphics-symbol" aria-roledescription="text mark" text-anchor="middle" transform="translate(133.33333333333334,590.8660290091779)" font-family="sans-serif" font-size="9px" font-weight="bold" fill="#a6761d">0.2986s (x1.03)</text><text aria-label="Parser: yamlrocks&#xA;v0.2.1; Execution Time (seconds, lower=better): 0.432264366667; parser: yamlrocks; label: 0.4323s (x1.49); Execution Time (s): 0.4323; Slowdown: 1.49" role="graphics-symbol" aria-roledescription="text mark" text-anchor="middle" transform="translate(222.22222222222223,588.566682763053)" font-family="sans-serif" font-size="9px" font-weight="bold" fill="#1b9e77">0.4323s (x1.49)</text><text aria-label="Parser: ryaml&#xA;v0.5.1; Execution Time (seconds, lower=better): 0.758885233333; parser: ryaml; label: 0.7589s (x2.62); Execution Time (s): 0.7589; Slowdown: 2.62" role="graphics-symbol" aria-roledescription="text mark" text-anchor="middle" transform="translate(311.1111111111111,582.9500353931535)" font-family="sans-serif" font-size="9px" font-weight="bold" fill="#e6ab02">0.7589s (x2.62)</text><text aria-label="Parser: PyYAML (CLoader)&#xA;v6.0.3; Execution Time (seconds, lower=better): 2.23245103333; parser: PyYAML (CLoader); label: 2.2325s (x7.71); Execution Time (s): 2.2325; Slowdown: 7.71" role="graphics-symbol" aria-roledescription="text mark" text-anchor="middle" transform="translate(400,557.6102597706997)" font-family="sans-serif" font-size="9px" font-weight="bold" fill="#d95f02">2.2325s (x7.71)</text><text aria-label="Parser: PyYAML (CSafeLoader)&#xA;v6.0.3; Execution Time (seconds, lower=better): 2.23309096667; parser: PyYAML (CSafeLoader); label: 2.2331s (x7.71); Execution Time (s): 2.2331; Slowdown: 7.71" role="graphics-symbol" aria-roledescription="text mark" text-anchor="middle" transform="translate(488.8888888888889,557.5992553302614)" font-family="sans-serif" font-size="9px" font-weight="bold" fill="#7570b3">2.2331s (x7.71)</text><text aria-label="Parser: PyYAML&#xA;v6.0.3; Execution Time (seconds, lower=better): 24.1128924333; parser: PyYAML; label: 24.1129s (x83.27); Execution Time (s): 24.1129; Slowdown: 83.27" role="graphics-symbol" aria-roledescription="text mark" text-anchor="middle" transform="translate(577.7777777777777,181.34916875173454)" font-family="sans-serif" font-size="9px" font-weight="bold" fill="#1b9e77">24.1129s (x83.27)</text><text aria-label="Parser: oyaml&#xA;v1.0; Execution Time (seconds, lower=better): 25.5798575667; parser: oyaml; label: 25.5799s (x88.33); Execution Time (s): 25.5799; Slowdown: 88.33" role="graphics-symbol" aria-roledescription="text mark" text-anchor="middle" transform="translate(666.6666666666666,156.12289970787683)" font-family="sans-serif" font-size="9px" font-weight="bold" fill="#e7298a">25.5799s (x88.33)</text><text aria-label="Parser: ruamel.yaml&#xA;v0.19.1; Execution Time (seconds, lower=better): 33.5493939667; parser: ruamel.yaml; label: 33.5494s (x115.85); Execution Time (s): 33.5494; Slowdown: 115.85" role="graphics-symbol" aria-roledescription="text mark" text-anchor="middle" transform="translate(755.5555555555555,19.07692307692313)" font-family="sans-serif" font-size="9px" font-weight="bold" fill="#66a61e">33.5494s (x115.85)</text></g><g class="mark-group role-title"><g transform="translate(400,-31)"><path class="background" aria-hidden="true" d="M0,0h0v0h0Z" pointer-events="none"/><g><g class="mark-text role-title-text" role="graphics-symbol" aria-roledescription="title" aria-label="Title text 'YAML parsers benchmark (loads)'" pointer-events="none"><text text-anchor="middle" transform="translate(0,10)" font-family="sans-serif" font-size="13px" font-weight="bold" fill="#000" opacity="1">YAML parsers benchmark (loads)</text></g><g class="mark-text role-title-subtitle" role="graphics-symbol" aria-roledescription="subtitle" aria-label="Subtitle text 'Python: 3.14.5 (Windows 10) | CPU: 11th Gen Intel(R) Core(TM) i5-11300H @ 3.10GHz'" pointer-events="none"><text text-anchor="middle" transform="translate(0,25)" font-family="sans-serif" font-size="12px" fill="#000" opacity="1">Python: 3.14.5 (Windows 10) | CPU: 11th Gen Intel(R) Core(TM) i5-11300H @ 3.10GHz</text></g></g><path class="foreground" aria-hidden="true" d="" pointer-events="none" display="none"/></g></g></g><path class="foreground" aria-hidden="true" d="" display="none"/></g></g></g><defs><clipPath id="clip1"><path d="M2.489932630443377,0L77.51006736955662,0C78.88429859827619,0,80,1.1157014017238107,80,2.489932630443377L80,4.979865260886754C80,4.979865260886754,80,4.979865260886754,80,4.979865260886754L0,4.979865260886754C0,4.979865260886754,0,4.979865260886754,0,4.979865260886754L0,2.489932630443377C0,1.1157014017238107,1.1157014017238107,0,2.489932630443377,0Z"/></clipPath><clipPath id="clip2"><path d="M2.5669854954110747,0L77.43301450458893,0C78.84977236716448,0,80,1.1502276328355288,80,2.5669854954110747L80,5.133970990822149C80,5.133970990822149,80,5.133970990822149,80,5.133970990822149L0,5.133970990822149C0,5.133970990822149,0,5.133970990822149,0,5.133970990822149L0,2.5669854954110747C0,1.1502276328355288,1.1502276328355288,0,2.5669854954110747,0Z"/></clipPath><clipPath id="clip3"><path d="M3.7166586184735024,0L76.2833413815265,0C78.33462111397714,0,80,1.665378886022863,80,3.7166586184735024L80,7.433317236947005C80,7.433317236947005,80,7.433317236947005,80,7.433317236947005L0,7.433317236947005C0,7.433317236947005,0,7.433317236947005,0,7.433317236947005L0,3.7166586184735024C0,1.665378886022863,1.665378886022863,0,3.7166586184735024,0Z"/></clipPath><clipPath id="clip4"><path d="M6,0L74,0C77.311490146964,0,80,2.688509853036,80,6L80,13.049964606846515C80,13.049964606846515,80,13.049964606846515,80,13.049964606846515L0,13.049964606846515C0,13.049964606846515,0,13.049964606846515,0,13.049964606846515L0,6C0,2.688509853036,2.688509853036,0,6,0Z"/></clipPath><clipPath id="clip5"><path d="M6,0L74,0C77.311490146964,0,80,2.688509853036,80,6L80,38.38974022930029C80,38.38974022930029,80,38.38974022930029,80,38.38974022930029L0,38.38974022930029C0,38.38974022930029,0,38.38974022930029,0,38.38974022930029L0,6C0,2.688509853036,2.688509853036,0,6,0Z"/></clipPath><clipPath id="clip6"><path d="M6,0L74,0C77.311490146964,0,80,2.688509853036,80,6L80,38.40074466973863C80,38.40074466973863,80,38.40074466973863,80,38.40074466973863L0,38.40074466973863C0,38.40074466973863,0,38.40074466973863,0,38.40074466973863L0,6C0,2.688509853036,2.688509853036,0,6,0Z"/></clipPath><clipPath id="clip7"><path d="M6,0L74,0C77.311490146964,0,80,2.688509853036,80,6L80,414.6508312482655C80,414.6508312482655,80,414.6508312482655,80,414.6508312482655L0,414.6508312482655C0,414.6508312482655,0,414.6508312482655,0,414.6508312482655L0,6C0,2.688509853036,2.688509853036,0,6,0Z"/></clipPath><clipPath id="clip8"><path d="M6,0L74,0C77.311490146964,0,80,2.688509853036,80,6L80,439.87710029212315C80,439.87710029212315,80,439.87710029212315,80,439.87710029212315L0,439.87710029212315C0,439.87710029212315,0,439.87710029212315,0,439.87710029212315L0,6C0,2.688509853036,2.688509853036,0,6,0Z"/></clipPath><clipPath id="clip9"><path d="M6,0L74,0C77.311490146964,0,80,2.688509853036,80,6L80,576.9230769230769C80,576.9230769230769,80,576.9230769230769,80,576.9230769230769L0,576.9230769230769C0,576.9230769230769,0,576.9230769230769,0,576.9230769230769L0,6C0,2.688509853036,2.688509853036,0,6,0Z"/></clipPath></defs></svg>