<svg xmlns="http://www.w3.org/2000/svg" xmlns:xlink="http://www.w3.org/1999/xlink" version="1.1" class="marks" width="844" height="690" viewBox="0 0 844 690"><rect width="844" height="690" fill="white"/><g fill="none" stroke-miterlimit="10" transform="translate(39,39)"><g class="mark-group role-frame root" role="graphics-object" aria-roledescription="group mark container"><g transform="translate(0,0)"><path class="background" aria-hidden="true" d="M0.5,0.5h800v600h-800Z" stroke="#ddd"/><g><g class="mark-group role-axis" role="graphics-symbol" aria-roledescription="axis" aria-label="X-axis titled 'Parser' for a discrete scale with 8 values: yaml_rs (parse_dt=False)&#xA;v0.0.12, yaml_rs&#xA;v0.0.12, ryaml&#xA;v0.6.0, PyYAML (CLoader)&#xA;v6.0.3, PyYAML (CSafeLoader)&#xA;v6.0.3, ending with ruamel.yaml&#xA;v0.19.1"><g transform="translate(0.5,600.5)"><path class="background" aria-hidden="true" d="M0,0h0v0h0Z" pointer-events="none"/><g><g class="mark-rule role-axis-tick" pointer-events="none"><line transform="translate(50,0)" x2="0" y2="5" stroke="#888" stroke-width="1" opacity="1"/><line transform="translate(150,0)" x2="0" y2="5" stroke="#888" stroke-width="1" opacity="1"/><line transform="translate(250,0)" x2="0" y2="5" stroke="#888" stroke-width="1" opacity="1"/><line transform="translate(350,0)" x2="0" y2="5" stroke="#888" stroke-width="1" opacity="1"/><line transform="translate(450,0)" x2="0" y2="5" stroke="#888" stroke-width="1" opacity="1"/><line transform="translate(550,0)" x2="0" y2="5" stroke="#888" stroke-width="1" opacity="1"/><line transform="translate(650,0)" x2="0" y2="5" stroke="#888" stroke-width="1" opacity="1"/><line transform="translate(750,0)" x2="0" y2="5" stroke="#888" stroke-width="1" opacity="1"/></g><g class="mark-text role-axis-label" pointer-events="none"><text text-anchor="middle" transform="translate(49.5,15)" font-family="sans-serif" font-size="10px" fill="#000" opacity="1"><tspan>yaml_rs (parse_dt=False)</tspan><tspan x="0" dy="14">v0.0.12</tspan></text><text text-anchor="middle" transform="translate(149.5,15)" font-family="sans-serif" font-size="10px" fill="#000" opacity="1"><tspan>yaml_rs</tspan><tspan x="0" dy="14">v0.0.12</tspan></text><text text-anchor="middle" transform="translate(249.5,15)" font-family="sans-serif" font-size="10px" fill="#000" opacity="1"><tspan>ryaml</tspan><tspan x="0" dy="14">v0.6.0</tspan></text><text text-anchor="middle" transform="translate(349.5,15)" font-family="sans-serif" font-size="10px" fill="#000" opacity="1"><tspan>PyYAML (CLoader)</tspan><tspan x="0" dy="14">v6.0.3</tspan></text><text text-anchor="middle" transform="translate(449.5,15)" font-family="sans-serif" font-size="10px" fill="#000" opacity="1"><tspan>PyYAML (CSafeLoader)</tspan><tspan x="0" dy="14">v6.0.3</tspan></text><text text-anchor="middle" transform="translate(549.5,15)" font-family="sans-serif" font-size="10px" fill="#000" opacity="1"><tspan>PyYAML</tspan><tspan x="0" dy="14">v6.0.3</tspan></text><text text-anchor="middle" transform="translate(649.5,15)" font-family="sans-serif" font-size="10px" fill="#000" opacity="1"><tspan>oyaml</tspan><tspan x="0" dy="14">v1.0</tspan></text><text text-anchor="middle" transform="translate(749.5,15)" font-family="sans-serif" font-size="10px" fill="#000" opacity="1"><tspan>ruamel.yaml</tspan><tspan x="0" dy="14">v0.19.1</tspan></text></g><g class="mark-rule role-axis-domain" pointer-events="none"><line transform="translate(0,0)" x2="800" y2="0" stroke="#888" stroke-width="1" opacity="1"/></g><g class="mark-text role-axis-title" pointer-events="none"><text text-anchor="middle" transform="translate(400,44)" font-family="sans-serif" font-size="11px" font-weight="bold" fill="#000" opacity="1">Parser</text></g></g><path class="foreground" aria-hidden="true" d="" pointer-events="none" display="none"/></g></g><g class="mark-group role-axis" role="graphics-symbol" aria-roledescription="axis" aria-label="Y-axis titled 'Execution Time (seconds, lower=better)' for a linear scale with values from 0 to 36"><g transform="translate(0.5,0.5)"><path class="background" aria-hidden="true" d="M0,0h0v0h0Z" pointer-events="none"/><g><g class="mark-rule role-axis-tick" pointer-events="none"><line transform="translate(0,600)" x2="-5" y2="0" stroke="#888" stroke-width="1" opacity="1"/><line transform="translate(0,567)" x2="-5" y2="0" stroke="#888" stroke-width="1" opacity="1"/><line transform="translate(0,534)" x2="-5" y2="0" stroke="#888" stroke-width="1" opacity="1"/><line transform="translate(0,500)" x2="-5" y2="0" stroke="#888" stroke-width="1" opacity="1"/><line transform="translate(0,467)" x2="-5" y2="0" stroke="#888" stroke-width="1" opacity="1"/><line transform="translate(0,434)" x2="-5" y2="0" stroke="#888" stroke-width="1" opacity="1"/><line transform="translate(0,401)" x2="-5" y2="0" stroke="#888" stroke-width="1" opacity="1"/><line transform="translate(0,368)" x2="-5" y2="0" stroke="#888" stroke-width="1" opacity="1"/><line transform="translate(0,334)" x2="-5" y2="0" stroke="#888" stroke-width="1" opacity="1"/><line transform="translate(0,301)" x2="-5" y2="0" stroke="#888" stroke-width="1" opacity="1"/><line transform="translate(0,268)" x2="-5" y2="0" stroke="#888" stroke-width="1" opacity="1"/><line transform="translate(0,235)" x2="-5" y2="0" stroke="#888" stroke-width="1" opacity="1"/><line transform="translate(0,201)" x2="-5" y2="0" stroke="#888" stroke-width="1" opacity="1"/><line transform="translate(0,168)" x2="-5" y2="0" stroke="#888" stroke-width="1" opacity="1"/><line transform="translate(0,135)" x2="-5" y2="0" stroke="#888" stroke-width="1" opacity="1"/><line transform="translate(0,102)" x2="-5" y2="0" stroke="#888" stroke-width="1" opacity="1"/><line transform="translate(0,69)" x2="-5" y2="0" stroke="#888" stroke-width="1" opacity="1"/><line transform="translate(0,35)" x2="-5" y2="0" stroke="#888" stroke-width="1" opacity="1"/><line transform="translate(0,2)" x2="-5" y2="0" stroke="#888" stroke-width="1" opacity="1"/></g><g class="mark-text role-axis-label" pointer-events="none"><text text-anchor="end" transform="translate(-7,603)" font-family="sans-serif" font-size="10px" fill="#000" opacity="1">0</text><text text-anchor="end" transform="translate(-7,569.7889269122966)" font-family="sans-serif" font-size="10px" fill="#000" opacity="1">2</text><text text-anchor="end" transform="translate(-7,536.577853824593)" font-family="sans-serif" font-size="10px" fill="#000" opacity="1">4</text><text text-anchor="end" transform="translate(-7,503.3667807368896)" font-family="sans-serif" font-size="10px" fill="#000" opacity="1">6</text><text text-anchor="end" transform="translate(-7,470.1557076491861)" font-family="sans-serif" font-size="10px" fill="#000" opacity="1">8</text><text text-anchor="end" transform="translate(-7,436.94463456148276)" font-family="sans-serif" font-size="10px" fill="#000" opacity="1">10</text><text text-anchor="end" transform="translate(-7,403.7335614737793)" font-family="sans-serif" font-size="10px" fill="#000" opacity="1">12</text><text text-anchor="end" transform="translate(-7,370.52248838607574)" font-family="sans-serif" font-size="10px" fill="#000" opacity="1">14</text><text text-anchor="end" transform="translate(-7,337.3114152983723)" font-family="sans-serif" font-size="10px" fill="#000" opacity="1">16</text><text text-anchor="end" transform="translate(-7,304.1003422106689)" font-family="sans-serif" font-size="10px" fill="#000" opacity="1">18</text><text text-anchor="end" transform="translate(-7,270.88926912296546)" font-family="sans-serif" font-size="10px" fill="#000" opacity="1">20</text><text text-anchor="end" transform="translate(-7,237.67819603526195)" font-family="sans-serif" font-size="10px" fill="#000" opacity="1">22</text><text text-anchor="end" transform="translate(-7,204.4671229475585)" font-family="sans-serif" font-size="10px" fill="#000" opacity="1">24</text><text text-anchor="end" transform="translate(-7,171.256049859855)" font-family="sans-serif" font-size="10px" fill="#000" opacity="1">26</text><text text-anchor="end" transform="translate(-7,138.04497677215156)" font-family="sans-serif" font-size="10px" fill="#000" opacity="1">28</text><text text-anchor="end" transform="translate(-7,104.83390368444813)" font-family="sans-serif" font-size="10px" fill="#000" opacity="1">30</text><text text-anchor="end" transform="translate(-7,71.62283059674463)" font-family="sans-serif" font-size="10px" fill="#000" opacity="1">32</text><text text-anchor="end" transform="translate(-7,38.411757509041195)" font-family="sans-serif" font-size="10px" fill="#000" opacity="1">34</text><text text-anchor="end" transform="translate(-7,5.200684421337762)" font-family="sans-serif" font-size="10px" fill="#000" opacity="1">36</text></g><g class="mark-rule role-axis-domain" pointer-events="none"><line transform="translate(0,600)" x2="0" y2="-600" stroke="#888" stroke-width="1" opacity="1"/></g><g class="mark-text role-axis-title" pointer-events="none"><text text-anchor="middle" transform="translate(-22.123046875,300) rotate(-90) translate(0,-2)" font-family="sans-serif" font-size="11px" font-weight="bold" fill="#000" opacity="1">Execution Time (seconds, lower=better)</text></g></g><path class="foreground" aria-hidden="true" d="" pointer-events="none" display="none"/></g></g><g class="mark-group role-scope" role="graphics-object" aria-roledescription="group mark container"><g transform="translate(5,594.6718512324628)"><path class="background" aria-hidden="true" d="M2.664074383768593,0L87.3359256162314,0C88.8062682950029,0,90,1.1937317049971121,90,2.664074383768593L90,5.328148767537186C90,5.328148767537186,90,5.328148767537186,90,5.328148767537186L0,5.328148767537186C0,5.328148767537186,0,5.328148767537186,0,5.328148767537186L0,2.664074383768593C0,1.1937317049971121,1.1937317049971121,0,2.664074383768593,0Z"/><g clip-path="url(#clip1)"><g class="mark-group role-scope" role="graphics-object" aria-roledescription="group mark container"><g transform="translate(0,-594.6718512324628)"><path class="background" aria-hidden="true" d="M0,0h90v0h-90Z"/><g><g class="mark-rect role-mark layer_0_marks" role="graphics-object" aria-roledescription="rect mark container"><path aria-label="Parser: yaml_rs (parse_dt=False)&#xA;v0.0.12; Execution Time (seconds, lower=better): 0.320865799998; parser: yaml_rs (parse_dt=False); Execution Time (s): 0.3209; Slowdown: 1.00" role="graphics-symbol" aria-roledescription="bar" d="M0,594.6718512324628h90v5.328148767537186h-90Z" fill="#666666"/></g></g><path class="foreground" aria-hidden="true" d="" display="none"/></g></g></g><path class="foreground" aria-hidden="true" d="" display="none"/></g><g transform="translate(105,594.6543534250771)"><path class="background" aria-hidden="true" d="M2.6728232874614264,0L87.32717671253857,0C88.80234804270599,0,90,1.1976519572940196,90,2.6728232874614264L90,5.345646574922853C90,5.345646574922853,90,5.345646574922853,90,5.345646574922853L0,5.345646574922853C0,5.345646574922853,0,5.345646574922853,0,5.345646574922853L0,2.6728232874614264C0,1.1976519572940196,1.1976519572940196,0,2.6728232874614264,0Z"/><g clip-path="url(#clip2)"><g class="mark-group role-scope" role="graphics-object" aria-roledescription="group mark container"><g transform="translate(0,-594.6543534250771)"><path class="background" aria-hidden="true" d="M0,0h90v0h-90Z"/><g><g class="mark-rect role-mark layer_0_marks" role="graphics-object" aria-roledescription="rect mark container"><path aria-label="Parser: yaml_rs&#xA;v0.0.12; Execution Time (seconds, lower=better): 0.321919533332; parser: yaml_rs; Execution Time (s): 0.3219; Slowdown: 1.00" role="graphics-symbol" aria-roledescription="bar" d="M0,594.6543534250771h90v5.345646574922853h-90Z" fill="#a6761d"/></g></g><path class="foreground" aria-hidden="true" d="" display="none"/></g></g></g><path class="foreground" aria-hidden="true" d="" display="none"/></g><g transform="translate(205,590.3193452659914)"><path class="background" aria-hidden="true" d="M4.840327367004306,0L85.1596726329957,0C87.83112203031486,0,90,2.168877969685146,90,4.840327367004306L90,9.680654734008613C90,9.680654734008613,90,9.680654734008613,90,9.680654734008613L0,9.680654734008613C0,9.680654734008613,0,9.680654734008613,0,9.680654734008613L0,4.840327367004306C0,2.168877969685146,2.168877969685146,0,4.840327367004306,0Z"/><g clip-path="url(#clip3)"><g class="mark-group role-scope" role="graphics-object" aria-roledescription="group mark container"><g transform="translate(0,-590.3193452659914)"><path class="background" aria-hidden="true" d="M0,0h90v0h-90Z"/><g><g class="mark-rect role-mark layer_0_marks" role="graphics-object" aria-roledescription="rect mark container"><path aria-label="Parser: ryaml&#xA;v0.6.0; Execution Time (seconds, lower=better): 0.582977533333; parser: ryaml; Execution Time (s): 0.5830; Slowdown: 1.82" role="graphics-symbol" aria-roledescription="bar" d="M0,590.3193452659914h90v9.680654734008613h-90Z" fill="#e6ab02"/></g></g><path class="foreground" aria-hidden="true" d="" display="none"/></g></g></g><path class="foreground" aria-hidden="true" d="" display="none"/></g><g transform="translate(305,559.7648740706596)"><path class="background" aria-hidden="true" d="M6,0L84,0C87.311490146964,0,90,2.688509853036,90,6L90,40.23512592934037C90,40.23512592934037,90,40.23512592934037,90,40.23512592934037L0,40.23512592934037C0,40.23512592934037,0,40.23512592934037,0,40.23512592934037L0,6C0,2.688509853036,2.688509853036,0,6,0Z"/><g clip-path="url(#clip4)"><g class="mark-group role-scope" role="graphics-object" aria-roledescription="group mark container"><g transform="translate(0,-559.7648740706596)"><path class="background" aria-hidden="true" d="M0,0h90v0h-90Z"/><g><g class="mark-rect role-mark layer_0_marks" role="graphics-object" aria-roledescription="rect mark container"><path aria-label="Parser: PyYAML (CLoader)&#xA;v6.0.3; Execution Time (seconds, lower=better): 2.42299463333; parser: PyYAML (CLoader); Execution Time (s): 2.4230; Slowdown: 7.55" role="graphics-symbol" aria-roledescription="bar" d="M0,559.7648740706596h90v40.23512592934037h-90Z" fill="#d95f02"/></g></g><path class="foreground" aria-hidden="true" d="" display="none"/></g></g></g><path class="foreground" aria-hidden="true" d="" display="none"/></g><g transform="translate(405,557.6052775476016)"><path class="background" aria-hidden="true" d="M6,0L84,0C87.311490146964,0,90,2.688509853036,90,6L90,42.394722452398355C90,42.394722452398355,90,42.394722452398355,90,42.394722452398355L0,42.394722452398355C0,42.394722452398355,0,42.394722452398355,0,42.394722452398355L0,6C0,2.688509853036,2.688509853036,0,6,0Z"/><g clip-path="url(#clip5)"><g class="mark-group role-scope" role="graphics-object" aria-roledescription="group mark container"><g transform="translate(0,-557.6052775476016)"><path class="background" aria-hidden="true" d="M0,0h90v0h-90Z"/><g><g class="mark-rect role-mark layer_0_marks" role="graphics-object" aria-roledescription="rect mark container"><path aria-label="Parser: PyYAML (CSafeLoader)&#xA;v6.0.3; Execution Time (seconds, lower=better): 2.55304743333; parser: PyYAML (CSafeLoader); Execution Time (s): 2.5530; Slowdown: 7.96" role="graphics-symbol" aria-roledescription="bar" d="M0,557.6052775476016h90v42.394722452398355h-90Z" fill="#7570b3"/></g></g><path class="foreground" aria-hidden="true" d="" display="none"/></g></g></g><path class="foreground" aria-hidden="true" d="" display="none"/></g><g transform="translate(505,176.81763147085363)"><path class="background" aria-hidden="true" d="M6,0L84,0C87.311490146964,0,90,2.688509853036,90,6L90,423.1823685291464C90,423.1823685291464,90,423.1823685291464,90,423.1823685291464L0,423.1823685291464C0,423.1823685291464,0,423.1823685291464,0,423.1823685291464L0,6C0,2.688509853036,2.688509853036,0,6,0Z"/><g clip-path="url(#clip6)"><g class="mark-group role-scope" role="graphics-object" aria-roledescription="group mark container"><g transform="translate(0,-176.81763147085363)"><path class="background" aria-hidden="true" d="M0,0h90v0h-90Z"/><g><g class="mark-rect role-mark layer_0_marks" role="graphics-object" aria-roledescription="rect mark container"><path aria-label="Parser: PyYAML&#xA;v6.0.3; Execution Time (seconds, lower=better): 25.4844140333; parser: PyYAML; Execution Time (s): 25.4844; Slowdown: 79.42" role="graphics-symbol" aria-roledescription="bar" d="M0,176.81763147085363h90v423.1823685291464h-90Z" fill="#1b9e77"/></g></g><path class="foreground" aria-hidden="true" d="" display="none"/></g></g></g><path class="foreground" aria-hidden="true" d="" display="none"/></g><g transform="translate(605,159.34392205129845)"><path class="background" aria-hidden="true" d="M6,0L84,0C87.311490146964,0,90,2.688509853036,90,6L90,440.6560779487015C90,440.6560779487015,90,440.6560779487015,90,440.6560779487015L0,440.6560779487015C0,440.6560779487015,0,440.6560779487015,0,440.6560779487015L0,6C0,2.688509853036,2.688509853036,0,6,0Z"/><g clip-path="url(#clip7)"><g class="mark-group role-scope" role="graphics-object" aria-roledescription="group mark container"><g transform="translate(0,-159.34392205129845)"><path class="background" aria-hidden="true" d="M0,0h90v0h-90Z"/><g><g class="mark-rect role-mark layer_0_marks" role="graphics-object" aria-roledescription="rect mark container"><path aria-label="Parser: oyaml&#xA;v1.0; Execution Time (seconds, lower=better): 26.5366961667; parser: oyaml; Execution Time (s): 26.5367; Slowdown: 82.70" role="graphics-symbol" aria-roledescription="bar" d="M0,159.34392205129845h90v440.6560779487015h-90Z" fill="#e7298a"/></g></g><path class="foreground" aria-hidden="true" d="" display="none"/></g></g></g><path class="foreground" aria-hidden="true" d="" display="none"/></g><g transform="translate(705,23.07692307692313)"><path class="background" aria-hidden="true" d="M6,0L84,0C87.311490146964,0,90,2.688509853036,90,6L90,576.9230769230769C90,576.9230769230769,90,576.9230769230769,90,576.9230769230769L0,576.9230769230769C0,576.9230769230769,0,576.9230769230769,0,576.9230769230769L0,6C0,2.688509853036,2.688509853036,0,6,0Z"/><g clip-path="url(#clip8)"><g class="mark-group role-scope" role="graphics-object" aria-roledescription="group mark container"><g transform="translate(0,-23.07692307692313)"><path class="background" aria-hidden="true" d="M0,0h90v0h-90Z"/><g><g class="mark-rect role-mark layer_0_marks" role="graphics-object" aria-roledescription="rect mark container"><path aria-label="Parser: ruamel.yaml&#xA;v0.19.1; Execution Time (seconds, lower=better): 34.7428145667; parser: ruamel.yaml; Execution Time (s): 34.7428; Slowdown: 108.28" role="graphics-symbol" aria-roledescription="bar" d="M0,23.07692307692313h90v576.9230769230769h-90Z" fill="#66a61e"/></g></g><path class="foreground" aria-hidden="true" d="" display="none"/></g></g></g><path class="foreground" aria-hidden="true" d="" display="none"/></g></g><g class="mark-text role-mark layer_1_marks" role="graphics-object" aria-roledescription="text mark container"><text aria-label="Parser: yaml_rs (parse_dt=False)&#xA;v0.0.12; Execution Time (seconds, lower=better): 0.320865799998; parser: yaml_rs (parse_dt=False); label: 0.3209s (x1.00); Execution Time (s): 0.3209; Slowdown: 1.00" role="graphics-symbol" aria-roledescription="text mark" text-anchor="middle" transform="translate(50,590.6718512324628)" font-family="sans-serif" font-size="9px" font-weight="bold" fill="#666666">0.3209s (x1.00)</text><text aria-label="Parser: yaml_rs&#xA;v0.0.12; Execution Time (seconds, lower=better): 0.321919533332; parser: yaml_rs; label: 0.3219s (x1.00); Execution Time (s): 0.3219; Slowdown: 1.00" role="graphics-symbol" aria-roledescription="text mark" text-anchor="middle" transform="translate(150,590.6543534250771)" font-family="sans-serif" font-size="9px" font-weight="bold" fill="#a6761d">0.3219s (x1.00)</text><text aria-label="Parser: ryaml&#xA;v0.6.0; Execution Time (seconds, lower=better): 0.582977533333; parser: ryaml; label: 0.5830s (x1.82); Execution Time (s): 0.5830; Slowdown: 1.82" role="graphics-symbol" aria-roledescription="text mark" text-anchor="middle" transform="translate(250,586.3193452659914)" font-family="sans-serif" font-size="9px" font-weight="bold" fill="#e6ab02">0.5830s (x1.82)</text><text aria-label="Parser: PyYAML (CLoader)&#xA;v6.0.3; Execution Time (seconds, lower=better): 2.42299463333; parser: PyYAML (CLoader); label: 2.4230s (x7.55); Execution Time (s): 2.4230; Slowdown: 7.55" role="graphics-symbol" aria-roledescription="text mark" text-anchor="middle" transform="translate(350,555.7648740706596)" font-family="sans-serif" font-size="9px" font-weight="bold" fill="#d95f02">2.4230s (x7.55)</text><text aria-label="Parser: PyYAML (CSafeLoader)&#xA;v6.0.3; Execution Time (seconds, lower=better): 2.55304743333; parser: PyYAML (CSafeLoader); label: 2.5530s (x7.96); Execution Time (s): 2.5530; Slowdown: 7.96" role="graphics-symbol" aria-roledescription="text mark" text-anchor="middle" transform="translate(450,553.6052775476016)" font-family="sans-serif" font-size="9px" font-weight="bold" fill="#7570b3">2.5530s (x7.96)</text><text aria-label="Parser: PyYAML&#xA;v6.0.3; Execution Time (seconds, lower=better): 25.4844140333; parser: PyYAML; label: 25.4844s (x79.42); Execution Time (s): 25.4844; Slowdown: 79.42" role="graphics-symbol" aria-roledescription="text mark" text-anchor="middle" transform="translate(550,172.81763147085363)" font-family="sans-serif" font-size="9px" font-weight="bold" fill="#1b9e77">25.4844s (x79.42)</text><text aria-label="Parser: oyaml&#xA;v1.0; Execution Time (seconds, lower=better): 26.5366961667; parser: oyaml; label: 26.5367s (x82.70); Execution Time (s): 26.5367; Slowdown: 82.70" role="graphics-symbol" aria-roledescription="text mark" text-anchor="middle" transform="translate(650,155.34392205129845)" font-family="sans-serif" font-size="9px" font-weight="bold" fill="#e7298a">26.5367s (x82.70)</text><text aria-label="Parser: ruamel.yaml&#xA;v0.19.1; Execution Time (seconds, lower=better): 34.7428145667; parser: ruamel.yaml; label: 34.7428s (x108.28); Execution Time (s): 34.7428; Slowdown: 108.28" role="graphics-symbol" aria-roledescription="text mark" text-anchor="middle" transform="translate(750,19.07692307692313)" font-family="sans-serif" font-size="9px" font-weight="bold" fill="#66a61e">34.7428s (x108.28)</text></g><g class="mark-group role-title"><g transform="translate(400,-33.79931557866224)"><path class="background" aria-hidden="true" d="M0,0h0v0h0Z" pointer-events="none"/><g><g class="mark-text role-title-text" role="graphics-symbol" aria-roledescription="title" aria-label="Title text 'YAML parsers benchmark (loads)'" pointer-events="none"><text text-anchor="middle" transform="translate(0,10)" font-family="sans-serif" font-size="13px" font-weight="bold" fill="#000" opacity="1">YAML parsers benchmark (loads)</text></g><g class="mark-text role-title-subtitle" role="graphics-symbol" aria-roledescription="subtitle" aria-label="Subtitle text 'Python: 3.13.8 (Windows 10) | CPU: 11th Gen Intel(R) Core(TM) i5-11300H @ 3.10GHz'" pointer-events="none"><text text-anchor="middle" transform="translate(0,25)" font-family="sans-serif" font-size="12px" fill="#000" opacity="1">Python: 3.13.8 (Windows 10) | CPU: 11th Gen Intel(R) Core(TM) i5-11300H @ 3.10GHz</text></g></g><path class="foreground" aria-hidden="true" d="" pointer-events="none" display="none"/></g></g></g><path class="foreground" aria-hidden="true" d="" display="none"/></g></g></g><defs><clipPath id="clip1"><path d="M2.664074383768593,0L87.3359256162314,0C88.8062682950029,0,90,1.1937317049971121,90,2.664074383768593L90,5.328148767537186C90,5.328148767537186,90,5.328148767537186,90,5.328148767537186L0,5.328148767537186C0,5.328148767537186,0,5.328148767537186,0,5.328148767537186L0,2.664074383768593C0,1.1937317049971121,1.1937317049971121,0,2.664074383768593,0Z"/></clipPath><clipPath id="clip2"><path d="M2.6728232874614264,0L87.32717671253857,0C88.80234804270599,0,90,1.1976519572940196,90,2.6728232874614264L90,5.345646574922853C90,5.345646574922853,90,5.345646574922853,90,5.345646574922853L0,5.345646574922853C0,5.345646574922853,0,5.345646574922853,0,5.345646574922853L0,2.6728232874614264C0,1.1976519572940196,1.1976519572940196,0,2.6728232874614264,0Z"/></clipPath><clipPath id="clip3"><path d="M4.840327367004306,0L85.1596726329957,0C87.83112203031486,0,90,2.168877969685146,90,4.840327367004306L90,9.680654734008613C90,9.680654734008613,90,9.680654734008613,90,9.680654734008613L0,9.680654734008613C0,9.680654734008613,0,9.680654734008613,0,9.680654734008613L0,4.840327367004306C0,2.168877969685146,2.168877969685146,0,4.840327367004306,0Z"/></clipPath><clipPath id="clip4"><path d="M6,0L84,0C87.311490146964,0,90,2.688509853036,90,6L90,40.23512592934037C90,40.23512592934037,90,40.23512592934037,90,40.23512592934037L0,40.23512592934037C0,40.23512592934037,0,40.23512592934037,0,40.23512592934037L0,6C0,2.688509853036,2.688509853036,0,6,0Z"/></clipPath><clipPath id="clip5"><path d="M6,0L84,0C87.311490146964,0,90,2.688509853036,90,6L90,42.394722452398355C90,42.394722452398355,90,42.394722452398355,90,42.394722452398355L0,42.394722452398355C0,42.394722452398355,0,42.394722452398355,0,42.394722452398355L0,6C0,2.688509853036,2.688509853036,0,6,0Z"/></clipPath><clipPath id="clip6"><path d="M6,0L84,0C87.311490146964,0,90,2.688509853036,90,6L90,423.1823685291464C90,423.1823685291464,90,423.1823685291464,90,423.1823685291464L0,423.1823685291464C0,423.1823685291464,0,423.1823685291464,0,423.1823685291464L0,6C0,2.688509853036,2.688509853036,0,6,0Z"/></clipPath><clipPath id="clip7"><path d="M6,0L84,0C87.311490146964,0,90,2.688509853036,90,6L90,440.6560779487015C90,440.6560779487015,90,440.6560779487015,90,440.6560779487015L0,440.6560779487015C0,440.6560779487015,0,440.6560779487015,0,440.6560779487015L0,6C0,2.688509853036,2.688509853036,0,6,0Z"/></clipPath><clipPath id="clip8"><path d="M6,0L84,0C87.311490146964,0,90,2.688509853036,90,6L90,576.9230769230769C90,576.9230769230769,90,576.9230769230769,90,576.9230769230769L0,576.9230769230769C0,576.9230769230769,0,576.9230769230769,0,576.9230769230769L0,6C0,2.688509853036,2.688509853036,0,6,0Z"/></clipPath></defs></svg>