<svg xmlns="http://www.w3.org/2000/svg" xmlns:xlink="http://www.w3.org/1999/xlink" version="1.1" class="marks" width="846" height="687" viewBox="0 0 846 687"><rect width="846" height="687" fill="white"/><g fill="none" stroke-miterlimit="10" transform="translate(41,36)"><g class="mark-group role-frame root" role="graphics-object" aria-roledescription="group mark container"><g transform="translate(0,0)"><path class="background" aria-hidden="true" d="M0.5,0.5h800v600h-800Z" stroke="#ddd"/><g><g class="mark-group role-axis" role="graphics-symbol" aria-roledescription="axis" aria-label="X-axis titled 'Parser' for a discrete scale with 3 values: yaml_rs&#xA;v0.0.12, yaml_rs (parse_dt=False)&#xA;v0.0.12, ryaml&#xA;v0.6.0"><g transform="translate(0.5,600.5)"><path class="background" aria-hidden="true" d="M0,0h0v0h0Z" pointer-events="none"/><g><g class="mark-rule role-axis-tick" pointer-events="none"><line transform="translate(133,0)" x2="0" y2="5" stroke="#888" stroke-width="1" opacity="1"/><line transform="translate(400,0)" x2="0" y2="5" stroke="#888" stroke-width="1" opacity="1"/><line transform="translate(666,0)" x2="0" y2="5" stroke="#888" stroke-width="1" opacity="1"/></g><g class="mark-text role-axis-label" pointer-events="none"><text text-anchor="middle" transform="translate(132.83333333333331,15)" font-family="sans-serif" font-size="10px" fill="#000" opacity="1"><tspan>yaml_rs</tspan><tspan x="0" dy="14">v0.0.12</tspan></text><text text-anchor="middle" transform="translate(399.5,15)" font-family="sans-serif" font-size="10px" fill="#000" opacity="1"><tspan>yaml_rs (parse_dt=False)</tspan><tspan x="0" dy="14">v0.0.12</tspan></text><text text-anchor="middle" transform="translate(666.1666666666667,15)" font-family="sans-serif" font-size="10px" fill="#000" opacity="1"><tspan>ryaml</tspan><tspan x="0" dy="14">v0.6.0</tspan></text></g><g class="mark-rule role-axis-domain" pointer-events="none"><line transform="translate(0,0)" x2="800" y2="0" stroke="#888" stroke-width="1" opacity="1"/></g><g class="mark-text role-axis-title" pointer-events="none"><text text-anchor="middle" transform="translate(400,44)" font-family="sans-serif" font-size="11px" font-weight="bold" fill="#000" opacity="1">Parser</text></g></g><path class="foreground" aria-hidden="true" d="" pointer-events="none" display="none"/></g></g><g class="mark-group role-axis" role="graphics-symbol" aria-roledescription="axis" aria-label="Y-axis titled 'Execution Time (seconds, lower=better)' for a linear scale with values from 0.0 to 1.4"><g transform="translate(0.5,0.5)"><path class="background" aria-hidden="true" d="M0,0h0v0h0Z" pointer-events="none"/><g><g class="mark-rule role-axis-tick" pointer-events="none"><line transform="translate(0,600)" x2="-5" y2="0" stroke="#888" stroke-width="1" opacity="1"/><line transform="translate(0,558)" x2="-5" y2="0" stroke="#888" stroke-width="1" opacity="1"/><line transform="translate(0,516)" x2="-5" y2="0" stroke="#888" stroke-width="1" opacity="1"/><line transform="translate(0,474)" x2="-5" y2="0" stroke="#888" stroke-width="1" opacity="1"/><line transform="translate(0,432)" x2="-5" y2="0" stroke="#888" stroke-width="1" opacity="1"/><line transform="translate(0,390)" x2="-5" y2="0" stroke="#888" stroke-width="1" opacity="1"/><line transform="translate(0,348)" x2="-5" y2="0" stroke="#888" stroke-width="1" opacity="1"/><line transform="translate(0,306)" x2="-5" y2="0" stroke="#888" stroke-width="1" opacity="1"/><line transform="translate(0,264)" x2="-5" y2="0" stroke="#888" stroke-width="1" opacity="1"/><line transform="translate(0,222)" x2="-5" y2="0" stroke="#888" stroke-width="1" opacity="1"/><line transform="translate(0,180)" x2="-5" y2="0" stroke="#888" stroke-width="1" opacity="1"/><line transform="translate(0,138)" x2="-5" y2="0" stroke="#888" stroke-width="1" opacity="1"/><line transform="translate(0,96)" x2="-5" y2="0" stroke="#888" stroke-width="1" opacity="1"/><line transform="translate(0,54)" x2="-5" y2="0" stroke="#888" stroke-width="1" opacity="1"/><line transform="translate(0,12)" x2="-5" y2="0" stroke="#888" stroke-width="1" opacity="1"/></g><g class="mark-text role-axis-label" pointer-events="none"><text text-anchor="end" transform="translate(-7,603)" font-family="sans-serif" font-size="10px" fill="#000" opacity="1">0.0</text><text text-anchor="end" transform="translate(-7,561.0153423135339)" font-family="sans-serif" font-size="10px" fill="#000" opacity="1">0.1</text><text text-anchor="end" transform="translate(-7,519.0306846270678)" font-family="sans-serif" font-size="10px" fill="#000" opacity="1">0.2</text><text text-anchor="end" transform="translate(-7,477.04602694060173)" font-family="sans-serif" font-size="10px" fill="#000" opacity="1">0.3</text><text text-anchor="end" transform="translate(-7,435.0613692541356)" font-family="sans-serif" font-size="10px" fill="#000" opacity="1">0.4</text><text text-anchor="end" transform="translate(-7,393.07671156766963)" font-family="sans-serif" font-size="10px" fill="#000" opacity="1">0.5</text><text text-anchor="end" transform="translate(-7,351.09205388120347)" font-family="sans-serif" font-size="10px" fill="#000" opacity="1">0.6</text><text text-anchor="end" transform="translate(-7,309.1073961947375)" font-family="sans-serif" font-size="10px" fill="#000" opacity="1">0.7</text><text text-anchor="end" transform="translate(-7,267.1227385082713)" font-family="sans-serif" font-size="10px" fill="#000" opacity="1">0.8</text><text text-anchor="end" transform="translate(-7,225.1380808218052)" font-family="sans-serif" font-size="10px" fill="#000" opacity="1">0.9</text><text text-anchor="end" transform="translate(-7,183.1534231353392)" font-family="sans-serif" font-size="10px" fill="#000" opacity="1">1.0</text><text text-anchor="end" transform="translate(-7,141.16876544887305)" font-family="sans-serif" font-size="10px" fill="#000" opacity="1">1.1</text><text text-anchor="end" transform="translate(-7,99.18410776240702)" font-family="sans-serif" font-size="10px" fill="#000" opacity="1">1.2</text><text text-anchor="end" transform="translate(-7,57.19945007594087)" font-family="sans-serif" font-size="10px" fill="#000" opacity="1">1.3</text><text text-anchor="end" transform="translate(-7,15.214792389474848)" font-family="sans-serif" font-size="10px" fill="#000" opacity="1">1.4</text></g><g class="mark-rule role-axis-domain" pointer-events="none"><line transform="translate(0,600)" x2="0" y2="-600" stroke="#888" stroke-width="1" opacity="1"/></g><g class="mark-text role-axis-title" pointer-events="none"><text text-anchor="middle" transform="translate(-24.9013671875,300) rotate(-90) translate(0,-2)" font-family="sans-serif" font-size="11px" font-weight="bold" fill="#000" opacity="1">Execution Time (seconds, lower=better)</text></g></g><path class="foreground" aria-hidden="true" d="" pointer-events="none" display="none"/></g></g><g class="mark-group role-scope" role="graphics-object" aria-roledescription="group mark container"><g transform="translate(13.333333333333314,302.4343824120797)"><path class="background" aria-hidden="true" d="M6,0L234.00000000000003,0C237.31149014696402,0,240.00000000000003,2.688509853036,240.00000000000003,6L240.00000000000003,297.5656175879203C240.00000000000003,297.5656175879203,240.00000000000003,297.5656175879203,240.00000000000003,297.5656175879203L0,297.5656175879203C0,297.5656175879203,0,297.5656175879203,0,297.5656175879203L0,6C0,2.688509853036,2.688509853036,0,6,0Z"/><g clip-path="url(#clip1)"><g class="mark-group role-scope" role="graphics-object" aria-roledescription="group mark container"><g transform="translate(0,-302.4343824120797)"><path class="background" aria-hidden="true" d="M0,0h240.00000000000003v0h-240.00000000000003Z"/><g><g class="mark-rect role-mark layer_0_marks" role="graphics-object" aria-roledescription="rect mark container"><path aria-label="Parser: yaml_rs&#xA;v0.0.12; Execution Time (seconds, lower=better): 0.708748466666; parser: yaml_rs; Execution Time (s): 0.7087; Slowdown: 1.00" role="graphics-symbol" aria-roledescription="bar" d="M0,302.4343824120797h240.00000000000003v297.5656175879203h-240.00000000000003Z" fill="#d95f02"/></g></g><path class="foreground" aria-hidden="true" d="" display="none"/></g></g></g><path class="foreground" aria-hidden="true" d="" display="none"/></g><g transform="translate(280,243.6876160468157)"><path class="background" aria-hidden="true" d="M6,0L234.00000000000003,0C237.31149014696402,0,240.00000000000003,2.688509853036,240.00000000000003,6L240.00000000000003,356.3123839531843C240.00000000000003,356.3123839531843,240.00000000000003,356.3123839531843,240.00000000000003,356.3123839531843L0,356.3123839531843C0,356.3123839531843,0,356.3123839531843,0,356.3123839531843L0,6C0,2.688509853036,2.688509853036,0,6,0Z"/><g clip-path="url(#clip2)"><g class="mark-group role-scope" role="graphics-object" aria-roledescription="group mark container"><g transform="translate(0,-243.6876160468157)"><path class="background" aria-hidden="true" d="M0,0h240.00000000000003v0h-240.00000000000003Z"/><g><g class="mark-rect role-mark layer_0_marks" role="graphics-object" aria-roledescription="rect mark container"><path aria-label="Parser: yaml_rs (parse_dt=False)&#xA;v0.0.12; Execution Time (seconds, lower=better): 0.848672833334; parser: yaml_rs (parse_dt=False); Execution Time (s): 0.8487; Slowdown: 1.20" role="graphics-symbol" aria-roledescription="bar" d="M0,243.6876160468157h240.00000000000003v356.3123839531843h-240.00000000000003Z" fill="#7570b3"/></g></g><path class="foreground" aria-hidden="true" d="" display="none"/></g></g></g><path class="foreground" aria-hidden="true" d="" display="none"/></g><g transform="translate(546.6666666666667,23.07692307692313)"><path class="background" aria-hidden="true" d="M6,0L234.00000000000003,0C237.31149014696402,0,240.00000000000003,2.688509853036,240.00000000000003,6L240.00000000000003,576.9230769230769C240.00000000000003,576.9230769230769,240.00000000000003,576.9230769230769,240.00000000000003,576.9230769230769L0,576.9230769230769C0,576.9230769230769,0,576.9230769230769,0,576.9230769230769L0,6C0,2.688509853036,2.688509853036,0,6,0Z"/><g clip-path="url(#clip3)"><g class="mark-group role-scope" role="graphics-object" aria-roledescription="group mark container"><g transform="translate(0,-23.07692307692313)"><path class="background" aria-hidden="true" d="M0,0h240.00000000000003v0h-240.00000000000003Z"/><g><g class="mark-rect role-mark layer_0_marks" role="graphics-object" aria-roledescription="rect mark container"><path aria-label="Parser: ryaml&#xA;v0.6.0; Execution Time (seconds, lower=better): 1.37412833333; parser: ryaml; Execution Time (s): 1.3741; Slowdown: 1.94" role="graphics-symbol" aria-roledescription="bar" d="M0,23.07692307692313h240.00000000000003v576.9230769230769h-240.00000000000003Z" fill="#1b9e77"/></g></g><path class="foreground" aria-hidden="true" d="" display="none"/></g></g></g><path class="foreground" aria-hidden="true" d="" display="none"/></g></g><g class="mark-text role-mark layer_1_marks" role="graphics-object" aria-roledescription="text mark container"><text aria-label="Parser: yaml_rs&#xA;v0.0.12; Execution Time (seconds, lower=better): 0.708748466666; parser: yaml_rs; label: 0.7087s (x1.00); Execution Time (s): 0.7087; Slowdown: 1.00" role="graphics-symbol" aria-roledescription="text mark" text-anchor="middle" transform="translate(133.33333333333331,298.4343824120797)" font-family="sans-serif" font-size="9px" font-weight="bold" fill="#d95f02">0.7087s (x1.00)</text><text aria-label="Parser: yaml_rs (parse_dt=False)&#xA;v0.0.12; Execution Time (seconds, lower=better): 0.848672833334; parser: yaml_rs (parse_dt=False); label: 0.8487s (x1.20); Execution Time (s): 0.8487; Slowdown: 1.20" role="graphics-symbol" aria-roledescription="text mark" text-anchor="middle" transform="translate(400,239.6876160468157)" font-family="sans-serif" font-size="9px" font-weight="bold" fill="#7570b3">0.8487s (x1.20)</text><text aria-label="Parser: ryaml&#xA;v0.6.0; Execution Time (seconds, lower=better): 1.37412833333; parser: ryaml; label: 1.3741s (x1.94); Execution Time (s): 1.3741; Slowdown: 1.94" role="graphics-symbol" aria-roledescription="text mark" text-anchor="middle" transform="translate(666.6666666666667,19.07692307692313)" font-family="sans-serif" font-size="9px" font-weight="bold" fill="#1b9e77">1.3741s (x1.94)</text></g><g class="mark-group role-title"><g transform="translate(400,-31)"><path class="background" aria-hidden="true" d="M0,0h0v0h0Z" pointer-events="none"/><g><g class="mark-text role-title-text" role="graphics-symbol" aria-roledescription="title" aria-label="Title text 'YAML parsers benchmark (loads)'" pointer-events="none"><text text-anchor="middle" transform="translate(0,10)" font-family="sans-serif" font-size="13px" font-weight="bold" fill="#000" opacity="1">YAML parsers benchmark (loads)</text></g><g class="mark-text role-title-subtitle" role="graphics-symbol" aria-roledescription="subtitle" aria-label="Subtitle text 'Python: 3.13.8 (Windows 10) | CPU: 11th Gen Intel(R) Core(TM) i5-11300H @ 3.10GHz'" pointer-events="none"><text text-anchor="middle" transform="translate(0,25)" font-family="sans-serif" font-size="12px" fill="#000" opacity="1">Python: 3.13.8 (Windows 10) | CPU: 11th Gen Intel(R) Core(TM) i5-11300H @ 3.10GHz</text></g></g><path class="foreground" aria-hidden="true" d="" pointer-events="none" display="none"/></g></g></g><path class="foreground" aria-hidden="true" d="" display="none"/></g></g></g><defs><clipPath id="clip1"><path d="M6,0L234.00000000000003,0C237.31149014696402,0,240.00000000000003,2.688509853036,240.00000000000003,6L240.00000000000003,297.5656175879203C240.00000000000003,297.5656175879203,240.00000000000003,297.5656175879203,240.00000000000003,297.5656175879203L0,297.5656175879203C0,297.5656175879203,0,297.5656175879203,0,297.5656175879203L0,6C0,2.688509853036,2.688509853036,0,6,0Z"/></clipPath><clipPath id="clip2"><path d="M6,0L234.00000000000003,0C237.31149014696402,0,240.00000000000003,2.688509853036,240.00000000000003,6L240.00000000000003,356.3123839531843C240.00000000000003,356.3123839531843,240.00000000000003,356.3123839531843,240.00000000000003,356.3123839531843L0,356.3123839531843C0,356.3123839531843,0,356.3123839531843,0,356.3123839531843L0,6C0,2.688509853036,2.688509853036,0,6,0Z"/></clipPath><clipPath id="clip3"><path d="M6,0L234.00000000000003,0C237.31149014696402,0,240.00000000000003,2.688509853036,240.00000000000003,6L240.00000000000003,576.9230769230769C240.00000000000003,576.9230769230769,240.00000000000003,576.9230769230769,240.00000000000003,576.9230769230769L0,576.9230769230769C0,576.9230769230769,0,576.9230769230769,0,576.9230769230769L0,6C0,2.688509853036,2.688509853036,0,6,0Z"/></clipPath></defs></svg>