<svg xmlns="http://www.w3.org/2000/svg" xmlns:xlink="http://www.w3.org/1999/xlink" version="1.1" class="marks" width="638" height="473" viewBox="0 0 638 473"><rect width="638" height="473" fill="white"/><g fill="none" stroke-miterlimit="10" transform="translate(33,36)"><g class="mark-group role-frame root" role="graphics-object" aria-roledescription="group mark container"><g transform="translate(0,0)"><path class="background" aria-hidden="true" d="M0.5,0.5h600v400h-600Z" stroke="#ddd"/><g><g class="mark-group role-axis" role="graphics-symbol" aria-roledescription="axis" aria-label="X-axis titled 'Parser' for a discrete scale with 6 values: yaml_rs, yaml_rs (parse_dt=False), ruamel.yaml, oyaml, PyYAML, strictyaml"><g transform="translate(0.5,400.5)"><path class="background" aria-hidden="true" d="M0,0h0v0h0Z" pointer-events="none"/><g><g class="mark-rule role-axis-tick" pointer-events="none"><line transform="translate(50,0)" x2="0" y2="5" stroke="#888" stroke-width="1" opacity="1"/><line transform="translate(150,0)" x2="0" y2="5" stroke="#888" stroke-width="1" opacity="1"/><line transform="translate(250,0)" x2="0" y2="5" stroke="#888" stroke-width="1" opacity="1"/><line transform="translate(350,0)" x2="0" y2="5" stroke="#888" stroke-width="1" opacity="1"/><line transform="translate(450,0)" x2="0" y2="5" stroke="#888" stroke-width="1" opacity="1"/><line transform="translate(550,0)" x2="0" y2="5" stroke="#888" stroke-width="1" opacity="1"/></g><g class="mark-text role-axis-label" pointer-events="none"><text text-anchor="middle" transform="translate(49.5,15)" font-family="sans-serif" font-size="10px" fill="#000" opacity="1">yaml_rs</text><text text-anchor="middle" transform="translate(149.5,15)" font-family="sans-serif" font-size="10px" fill="#000" opacity="1">yaml_rs (parse_dt=False)</text><text text-anchor="middle" transform="translate(249.5,15)" font-family="sans-serif" font-size="10px" fill="#000" opacity="1">ruamel.yaml</text><text text-anchor="middle" transform="translate(349.5,15)" font-family="sans-serif" font-size="10px" fill="#000" opacity="1">oyaml</text><text text-anchor="middle" transform="translate(449.5,15)" font-family="sans-serif" font-size="10px" fill="#000" opacity="1">PyYAML</text><text text-anchor="middle" transform="translate(549.5,15)" font-family="sans-serif" font-size="10px" fill="#000" opacity="1">strictyaml</text></g><g class="mark-rule role-axis-domain" pointer-events="none"><line transform="translate(0,0)" x2="600" y2="0" stroke="#888" stroke-width="1" opacity="1"/></g><g class="mark-text role-axis-title" pointer-events="none"><text text-anchor="middle" transform="translate(300,30)" font-family="sans-serif" font-size="11px" font-weight="bold" fill="#000" opacity="1">Parser</text></g></g><path class="foreground" aria-hidden="true" d="" pointer-events="none" display="none"/></g></g><g class="mark-group role-axis" role="graphics-symbol" aria-roledescription="axis" aria-label="Y-axis titled 'Execution Time (seconds, lower=better)' for a linear scale with values from 0 to 9"><g transform="translate(0.5,0.5)"><path class="background" aria-hidden="true" d="M0,0h0v0h0Z" pointer-events="none"/><g><g class="mark-rule role-axis-tick" pointer-events="none"><line transform="translate(0,400)" x2="-5" y2="0" stroke="#888" stroke-width="1" opacity="1"/><line transform="translate(0,354)" x2="-5" y2="0" stroke="#888" stroke-width="1" opacity="1"/><line transform="translate(0,308)" x2="-5" y2="0" stroke="#888" stroke-width="1" opacity="1"/><line transform="translate(0,262)" x2="-5" y2="0" stroke="#888" stroke-width="1" opacity="1"/><line transform="translate(0,216)" x2="-5" y2="0" stroke="#888" stroke-width="1" opacity="1"/><line transform="translate(0,171)" x2="-5" y2="0" stroke="#888" stroke-width="1" opacity="1"/><line transform="translate(0,125)" x2="-5" y2="0" stroke="#888" stroke-width="1" opacity="1"/><line transform="translate(0,79)" x2="-5" y2="0" stroke="#888" stroke-width="1" opacity="1"/><line transform="translate(0,33)" x2="-5" y2="0" stroke="#888" stroke-width="1" opacity="1"/></g><g class="mark-text role-axis-label" pointer-events="none"><text text-anchor="end" transform="translate(-7,403)" font-family="sans-serif" font-size="10px" fill="#000" opacity="1">0</text><text text-anchor="end" transform="translate(-7,357.10976826321365)" font-family="sans-serif" font-size="10px" fill="#000" opacity="1">1</text><text text-anchor="end" transform="translate(-7,311.21953652642736)" font-family="sans-serif" font-size="10px" fill="#000" opacity="1">2</text><text text-anchor="end" transform="translate(-7,265.32930478964096)" font-family="sans-serif" font-size="10px" fill="#000" opacity="1">3</text><text text-anchor="end" transform="translate(-7,219.4390730528547)" font-family="sans-serif" font-size="10px" fill="#000" opacity="1">4</text><text text-anchor="end" transform="translate(-7,173.54884131606832)" font-family="sans-serif" font-size="10px" fill="#000" opacity="1">5</text><text text-anchor="end" transform="translate(-7,127.65860957928201)" font-family="sans-serif" font-size="10px" fill="#000" opacity="1">6</text><text text-anchor="end" transform="translate(-7,81.76837784249568)" font-family="sans-serif" font-size="10px" fill="#000" opacity="1">7</text><text text-anchor="end" transform="translate(-7,35.87814610570936)" font-family="sans-serif" font-size="10px" fill="#000" opacity="1">8</text></g><g class="mark-rule role-axis-domain" pointer-events="none"><line transform="translate(0,400)" x2="0" y2="-400" stroke="#888" stroke-width="1" opacity="1"/></g><g class="mark-text role-axis-title" pointer-events="none"><text text-anchor="middle" transform="translate(-16.5615234375,200) rotate(-90) translate(0,-2)" font-family="sans-serif" font-size="11px" font-weight="bold" fill="#000" opacity="1">Execution Time (seconds, lower=better)</text></g></g><path class="foreground" aria-hidden="true" d="" pointer-events="none" display="none"/></g></g><g class="mark-group role-scope" role="graphics-object" aria-roledescription="group mark container"><g transform="translate(5,398.2621782253119)"><path class="background" aria-hidden="true" d="M0.8689108873440432,0L89.13108911265596,0C89.61065408632754,0,90,0.38934591367245236,90,0.8689108873440432L90,1.7378217746880864C90,1.7378217746880864,90,1.7378217746880864,90,1.7378217746880864L0,1.7378217746880864C0,1.7378217746880864,0,1.7378217746880864,0,1.7378217746880864L0,0.8689108873440432C0,0.38934591367245236,0.38934591367245236,0,0.8689108873440432,0Z"/><g clip-path="url(#clip1)"><g class="mark-group role-scope" role="graphics-object" aria-roledescription="group mark container"><g transform="translate(0,-398.2621782253119)"><path class="background" aria-hidden="true" d="M0,0h90v0h-90Z"/><g><g class="mark-rect role-mark layer_0_marks" role="graphics-object" aria-roledescription="rect mark container"><path aria-label="Parser: yaml_rs; Execution Time (seconds, lower=better): 0.0378691000005; parser: yaml_rs; Execution Time (s): 0.0379; Slowdown: 1.00" role="graphics-symbol" aria-roledescription="bar" d="M0,398.2621782253119h90v1.7378217746880864h-90Z" fill="#66a61e"/></g></g><path class="foreground" aria-hidden="true" d="" display="none"/></g></g></g><path class="foreground" aria-hidden="true" d="" display="none"/></g><g transform="translate(105,398.25808481652405)"><path class="background" aria-hidden="true" d="M0.8709575917379766,0L89.12904240826202,0C89.60973698883933,0,90,0.390263011160676,90,0.8709575917379766L90,1.7419151834759532C90,1.7419151834759532,90,1.7419151834759532,90,1.7419151834759532L0,1.7419151834759532C0,1.7419151834759532,0,1.7419151834759532,0,1.7419151834759532L0,0.8709575917379766C0,0.390263011160676,0.390263011160676,0,0.8709575917379766,0Z"/><g clip-path="url(#clip2)"><g class="mark-group role-scope" role="graphics-object" aria-roledescription="group mark container"><g transform="translate(0,-398.25808481652405)"><path class="background" aria-hidden="true" d="M0,0h90v0h-90Z"/><g><g class="mark-rect role-mark layer_0_marks" role="graphics-object" aria-roledescription="rect mark container"><path aria-label="Parser: yaml_rs (parse_dt=False); Execution Time (seconds, lower=better): 0.0379583000031; parser: yaml_rs (parse_dt=False); Execution Time (s): 0.0380; Slowdown: 1.00" role="graphics-symbol" aria-roledescription="bar" d="M0,398.25808481652405h90v1.7419151834759532h-90Z" fill="#e6ab02"/></g></g><path class="foreground" aria-hidden="true" d="" display="none"/></g></g></g><path class="foreground" aria-hidden="true" d="" display="none"/></g><g transform="translate(205,368.15446450843956)"><path class="background" aria-hidden="true" d="M6,0L84,0C87.311490146964,0,90,2.688509853036,90,6L90,31.84553549156044C90,31.84553549156044,90,31.84553549156044,90,31.84553549156044L0,31.84553549156044C0,31.84553549156044,0,31.84553549156044,0,31.84553549156044L0,6C0,2.688509853036,2.688509853036,0,6,0Z"/><g clip-path="url(#clip3)"><g class="mark-group role-scope" role="graphics-object" aria-roledescription="group mark container"><g transform="translate(0,-368.15446450843956)"><path class="background" aria-hidden="true" d="M0,0h90v0h-90Z"/><g><g class="mark-rect role-mark layer_0_marks" role="graphics-object" aria-roledescription="rect mark container"><path aria-label="Parser: ruamel.yaml; Execution Time (seconds, lower=better): 0.693950199995; parser: ruamel.yaml; Execution Time (s): 0.6940; Slowdown: 18.32" role="graphics-symbol" aria-roledescription="bar" d="M0,368.15446450843956h90v31.84553549156044h-90Z" fill="#7570b3"/></g></g><path class="foreground" aria-hidden="true" d="" display="none"/></g></g></g><path class="foreground" aria-hidden="true" d="" display="none"/></g><g transform="translate(305,175.94543619865917)"><path class="background" aria-hidden="true" d="M6,0L84,0C87.311490146964,0,90,2.688509853036,90,6L90,224.05456380134083C90,224.05456380134083,90,224.05456380134083,90,224.05456380134083L0,224.05456380134083C0,224.05456380134083,0,224.05456380134083,0,224.05456380134083L0,6C0,2.688509853036,2.688509853036,0,6,0Z"/><g clip-path="url(#clip4)"><g class="mark-group role-scope" role="graphics-object" aria-roledescription="group mark container"><g transform="translate(0,-175.94543619865917)"><path class="background" aria-hidden="true" d="M0,0h90v0h-90Z"/><g><g class="mark-rect role-mark layer_0_marks" role="graphics-object" aria-roledescription="rect mark container"><path aria-label="Parser: oyaml; Execution Time (seconds, lower=better): 4.8824021; parser: oyaml; Execution Time (s): 4.8824; Slowdown: 128.93" role="graphics-symbol" aria-roledescription="bar" d="M0,175.94543619865917h90v224.05456380134083h-90Z" fill="#d95f02"/></g></g><path class="foreground" aria-hidden="true" d="" display="none"/></g></g></g><path class="foreground" aria-hidden="true" d="" display="none"/></g><g transform="translate(405,130.18484895573485)"><path class="background" aria-hidden="true" d="M6,0L84,0C87.311490146964,0,90,2.688509853036,90,6L90,269.8151510442651C90,269.8151510442651,90,269.8151510442651,90,269.8151510442651L0,269.8151510442651C0,269.8151510442651,0,269.8151510442651,0,269.8151510442651L0,6C0,2.688509853036,2.688509853036,0,6,0Z"/><g clip-path="url(#clip5)"><g class="mark-group role-scope" role="graphics-object" aria-roledescription="group mark container"><g transform="translate(0,-130.18484895573485)"><path class="background" aria-hidden="true" d="M0,0h90v0h-90Z"/><g><g class="mark-rect role-mark layer_0_marks" role="graphics-object" aria-roledescription="rect mark container"><path aria-label="Parser: PyYAML; Execution Time (seconds, lower=better): 5.879577; parser: PyYAML; Execution Time (s): 5.8796; Slowdown: 155.26" role="graphics-symbol" aria-roledescription="bar" d="M0,130.18484895573485h90v269.8151510442651h-90Z" fill="#1b9e77"/></g></g><path class="foreground" aria-hidden="true" d="" display="none"/></g></g></g><path class="foreground" aria-hidden="true" d="" display="none"/></g><g transform="translate(505,15.384615384615419)"><path class="background" aria-hidden="true" d="M6,0L84,0C87.311490146964,0,90,2.688509853036,90,6L90,384.6153846153846C90,384.6153846153846,90,384.6153846153846,90,384.6153846153846L0,384.6153846153846C0,384.6153846153846,0,384.6153846153846,0,384.6153846153846L0,6C0,2.688509853036,2.688509853036,0,6,0Z"/><g clip-path="url(#clip6)"><g class="mark-group role-scope" role="graphics-object" aria-roledescription="group mark container"><g transform="translate(0,-15.384615384615419)"><path class="background" aria-hidden="true" d="M0,0h90v0h-90Z"/><g><g class="mark-rect role-mark layer_0_marks" role="graphics-object" aria-roledescription="rect mark container"><path aria-label="Parser: strictyaml; Execution Time (seconds, lower=better): 8.3812038; parser: strictyaml; Execution Time (s): 8.3812; Slowdown: 221.32" role="graphics-symbol" aria-roledescription="bar" d="M0,15.384615384615419h90v384.6153846153846h-90Z" fill="#e7298a"/></g></g><path class="foreground" aria-hidden="true" d="" display="none"/></g></g></g><path class="foreground" aria-hidden="true" d="" display="none"/></g></g><g class="mark-text role-mark layer_1_marks" role="graphics-object" aria-roledescription="text mark container"><text aria-label="Parser: yaml_rs; Execution Time (seconds, lower=better): 0.0378691000005; parser: yaml_rs; label: 0.0379s (x1.00); Execution Time (s): 0.0379; Slowdown: 1.00" role="graphics-symbol" aria-roledescription="text mark" text-anchor="middle" transform="translate(50,394.2621782253119)" font-family="sans-serif" font-size="9px" font-weight="bold" fill="#66a61e">0.0379s (x1.00)</text><text aria-label="Parser: yaml_rs (parse_dt=False); Execution Time (seconds, lower=better): 0.0379583000031; parser: yaml_rs (parse_dt=False); label: 0.0380s (x1.00); Execution Time (s): 0.0380; Slowdown: 1.00" role="graphics-symbol" aria-roledescription="text mark" text-anchor="middle" transform="translate(150,394.25808481652405)" font-family="sans-serif" font-size="9px" font-weight="bold" fill="#e6ab02">0.0380s (x1.00)</text><text aria-label="Parser: ruamel.yaml; Execution Time (seconds, lower=better): 0.693950199995; parser: ruamel.yaml; label: 0.6940s (x18.32); Execution Time (s): 0.6940; Slowdown: 18.32" role="graphics-symbol" aria-roledescription="text mark" text-anchor="middle" transform="translate(250,364.15446450843956)" font-family="sans-serif" font-size="9px" font-weight="bold" fill="#7570b3">0.6940s (x18.32)</text><text aria-label="Parser: oyaml; Execution Time (seconds, lower=better): 4.8824021; parser: oyaml; label: 4.8824s (x128.93); Execution Time (s): 4.8824; Slowdown: 128.93" role="graphics-symbol" aria-roledescription="text mark" text-anchor="middle" transform="translate(350,171.94543619865917)" font-family="sans-serif" font-size="9px" font-weight="bold" fill="#d95f02">4.8824s (x128.93)</text><text aria-label="Parser: PyYAML; Execution Time (seconds, lower=better): 5.879577; parser: PyYAML; label: 5.8796s (x155.26); Execution Time (s): 5.8796; Slowdown: 155.26" role="graphics-symbol" aria-roledescription="text mark" text-anchor="middle" transform="translate(450,126.18484895573485)" font-family="sans-serif" font-size="9px" font-weight="bold" fill="#1b9e77">5.8796s (x155.26)</text><text aria-label="Parser: strictyaml; Execution Time (seconds, lower=better): 8.3812038; parser: strictyaml; label: 8.3812s (x221.32); Execution Time (s): 8.3812; Slowdown: 221.32" role="graphics-symbol" aria-roledescription="text mark" text-anchor="middle" transform="translate(550,11.384615384615419)" font-family="sans-serif" font-size="9px" font-weight="bold" fill="#e7298a">8.3812s (x221.32)</text></g><g class="mark-group role-title"><g transform="translate(300,-31)"><path class="background" aria-hidden="true" d="M0,0h0v0h0Z" pointer-events="none"/><g><g class="mark-text role-title-text" role="graphics-symbol" aria-roledescription="title" aria-label="Title text 'YAML parsers benchmark (loads)'" pointer-events="none"><text text-anchor="middle" transform="translate(0,10)" font-family="sans-serif" font-size="13px" font-weight="bold" fill="#000" opacity="1">YAML parsers benchmark (loads)</text></g><g class="mark-text role-title-subtitle" role="graphics-symbol" aria-roledescription="subtitle" aria-label="Subtitle text 'Python: 3.13.8 (Windows 10) | CPU: 11th Gen Intel(R) Core(TM) i5-11300H @ 3.10GHz'" pointer-events="none"><text text-anchor="middle" transform="translate(0,25)" font-family="sans-serif" font-size="12px" fill="#000" opacity="1">Python: 3.13.8 (Windows 10) | CPU: 11th Gen Intel(R) Core(TM) i5-11300H @ 3.10GHz</text></g></g><path class="foreground" aria-hidden="true" d="" pointer-events="none" display="none"/></g></g></g><path class="foreground" aria-hidden="true" d="" display="none"/></g></g></g><defs><clipPath id="clip1"><path d="M0.8689108873440432,0L89.13108911265596,0C89.61065408632754,0,90,0.38934591367245236,90,0.8689108873440432L90,1.7378217746880864C90,1.7378217746880864,90,1.7378217746880864,90,1.7378217746880864L0,1.7378217746880864C0,1.7378217746880864,0,1.7378217746880864,0,1.7378217746880864L0,0.8689108873440432C0,0.38934591367245236,0.38934591367245236,0,0.8689108873440432,0Z"/></clipPath><clipPath id="clip2"><path d="M0.8709575917379766,0L89.12904240826202,0C89.60973698883933,0,90,0.390263011160676,90,0.8709575917379766L90,1.7419151834759532C90,1.7419151834759532,90,1.7419151834759532,90,1.7419151834759532L0,1.7419151834759532C0,1.7419151834759532,0,1.7419151834759532,0,1.7419151834759532L0,0.8709575917379766C0,0.390263011160676,0.390263011160676,0,0.8709575917379766,0Z"/></clipPath><clipPath id="clip3"><path d="M6,0L84,0C87.311490146964,0,90,2.688509853036,90,6L90,31.84553549156044C90,31.84553549156044,90,31.84553549156044,90,31.84553549156044L0,31.84553549156044C0,31.84553549156044,0,31.84553549156044,0,31.84553549156044L0,6C0,2.688509853036,2.688509853036,0,6,0Z"/></clipPath><clipPath id="clip4"><path d="M6,0L84,0C87.311490146964,0,90,2.688509853036,90,6L90,224.05456380134083C90,224.05456380134083,90,224.05456380134083,90,224.05456380134083L0,224.05456380134083C0,224.05456380134083,0,224.05456380134083,0,224.05456380134083L0,6C0,2.688509853036,2.688509853036,0,6,0Z"/></clipPath><clipPath id="clip5"><path d="M6,0L84,0C87.311490146964,0,90,2.688509853036,90,6L90,269.8151510442651C90,269.8151510442651,90,269.8151510442651,90,269.8151510442651L0,269.8151510442651C0,269.8151510442651,0,269.8151510442651,0,269.8151510442651L0,6C0,2.688509853036,2.688509853036,0,6,0Z"/></clipPath><clipPath id="clip6"><path d="M6,0L84,0C87.311490146964,0,90,2.688509853036,90,6L90,384.6153846153846C90,384.6153846153846,90,384.6153846153846,90,384.6153846153846L0,384.6153846153846C0,384.6153846153846,0,384.6153846153846,0,384.6153846153846L0,6C0,2.688509853036,2.688509853036,0,6,0Z"/></clipPath></defs></svg>