<svg xmlns="http://www.w3.org/2000/svg" xmlns:xlink="http://www.w3.org/1999/xlink" version="1.1" class="marks" width="646" height="473" viewBox="0 0 646 473"><rect width="646" height="473" fill="white"/><g fill="none" stroke-miterlimit="10" transform="translate(41,36)"><g class="mark-group role-frame root" role="graphics-object" aria-roledescription="group mark container"><g transform="translate(0,0)"><path class="background" aria-hidden="true" d="M0.5,0.5h600v400h-600Z" stroke="#ddd"/><g><g class="mark-group role-axis" role="graphics-symbol" aria-roledescription="axis" aria-label="X-axis titled 'Parser' for a discrete scale with 4 values: yaml_rs, ruamel.yaml, oyaml, PyYAML"><g transform="translate(0.5,400.5)"><path class="background" aria-hidden="true" d="M0,0h0v0h0Z" pointer-events="none"/><g><g class="mark-rule role-axis-tick" pointer-events="none"><line transform="translate(75,0)" x2="0" y2="5" stroke="#888" stroke-width="1" opacity="1"/><line transform="translate(225,0)" x2="0" y2="5" stroke="#888" stroke-width="1" opacity="1"/><line transform="translate(375,0)" x2="0" y2="5" stroke="#888" stroke-width="1" opacity="1"/><line transform="translate(525,0)" x2="0" y2="5" stroke="#888" stroke-width="1" opacity="1"/></g><g class="mark-text role-axis-label" pointer-events="none"><text text-anchor="middle" transform="translate(74.5,15)" font-family="sans-serif" font-size="10px" fill="#000" opacity="1">yaml_rs</text><text text-anchor="middle" transform="translate(224.5,15)" font-family="sans-serif" font-size="10px" fill="#000" opacity="1">ruamel.yaml</text><text text-anchor="middle" transform="translate(374.5,15)" font-family="sans-serif" font-size="10px" fill="#000" opacity="1">oyaml</text><text text-anchor="middle" transform="translate(524.5,15)" font-family="sans-serif" font-size="10px" fill="#000" opacity="1">PyYAML</text></g><g class="mark-rule role-axis-domain" pointer-events="none"><line transform="translate(0,0)" x2="600" y2="0" stroke="#888" stroke-width="1" opacity="1"/></g><g class="mark-text role-axis-title" pointer-events="none"><text text-anchor="middle" transform="translate(300,30)" font-family="sans-serif" font-size="11px" font-weight="bold" fill="#000" opacity="1">Parser</text></g></g><path class="foreground" aria-hidden="true" d="" pointer-events="none" display="none"/></g></g><g class="mark-group role-axis" role="graphics-symbol" aria-roledescription="axis" aria-label="Y-axis titled 'Execution Time (seconds, lower=better)' for a linear scale with values from 0 to 6"><g transform="translate(0.5,0.5)"><path class="background" aria-hidden="true" d="M0,0h0v0h0Z" pointer-events="none"/><g><g class="mark-rule role-axis-tick" pointer-events="none"><line transform="translate(0,400)" x2="-5" y2="0" stroke="#888" stroke-width="1" opacity="1"/><line transform="translate(0,364)" x2="-5" y2="0" stroke="#888" stroke-width="1" opacity="1"/><line transform="translate(0,329)" x2="-5" y2="0" stroke="#888" stroke-width="1" opacity="1"/><line transform="translate(0,293)" x2="-5" y2="0" stroke="#888" stroke-width="1" opacity="1"/><line transform="translate(0,258)" x2="-5" y2="0" stroke="#888" stroke-width="1" opacity="1"/><line transform="translate(0,222)" x2="-5" y2="0" stroke="#888" stroke-width="1" opacity="1"/><line transform="translate(0,187)" x2="-5" y2="0" stroke="#888" stroke-width="1" opacity="1"/><line transform="translate(0,151)" x2="-5" y2="0" stroke="#888" stroke-width="1" opacity="1"/><line transform="translate(0,116)" x2="-5" y2="0" stroke="#888" stroke-width="1" opacity="1"/><line transform="translate(0,80)" x2="-5" y2="0" stroke="#888" stroke-width="1" opacity="1"/><line transform="translate(0,45)" x2="-5" y2="0" stroke="#888" stroke-width="1" opacity="1"/><line transform="translate(0,9)" x2="-5" y2="0" stroke="#888" stroke-width="1" opacity="1"/></g><g class="mark-text role-axis-label" pointer-events="none"><text text-anchor="end" transform="translate(-7,403)" font-family="sans-serif" font-size="10px" fill="#000" opacity="1">0.0</text><text text-anchor="end" transform="translate(-7,367.4897306751455)" font-family="sans-serif" font-size="10px" fill="#000" opacity="1">0.5</text><text text-anchor="end" transform="translate(-7,331.97946135029093)" font-family="sans-serif" font-size="10px" fill="#000" opacity="1">1.0</text><text text-anchor="end" transform="translate(-7,296.4691920254364)" font-family="sans-serif" font-size="10px" fill="#000" opacity="1">1.5</text><text text-anchor="end" transform="translate(-7,260.95892270058187)" font-family="sans-serif" font-size="10px" fill="#000" opacity="1">2.0</text><text text-anchor="end" transform="translate(-7,225.44865337572736)" font-family="sans-serif" font-size="10px" fill="#000" opacity="1">2.5</text><text text-anchor="end" transform="translate(-7,189.93838405087286)" font-family="sans-serif" font-size="10px" fill="#000" opacity="1">3.0</text><text text-anchor="end" transform="translate(-7,154.42811472601832)" font-family="sans-serif" font-size="10px" fill="#000" opacity="1">3.5</text><text text-anchor="end" transform="translate(-7,118.91784540116379)" font-family="sans-serif" font-size="10px" fill="#000" opacity="1">4.0</text><text text-anchor="end" transform="translate(-7,83.40757607630925)" font-family="sans-serif" font-size="10px" fill="#000" opacity="1">4.5</text><text text-anchor="end" transform="translate(-7,47.897306751454735)" font-family="sans-serif" font-size="10px" fill="#000" opacity="1">5.0</text><text text-anchor="end" transform="translate(-7,12.387037426600209)" font-family="sans-serif" font-size="10px" fill="#000" opacity="1">5.5</text></g><g class="mark-rule role-axis-domain" pointer-events="none"><line transform="translate(0,400)" x2="0" y2="-400" stroke="#888" stroke-width="1" opacity="1"/></g><g class="mark-text role-axis-title" pointer-events="none"><text text-anchor="middle" transform="translate(-24.9013671875,200) rotate(-90) translate(0,-2)" font-family="sans-serif" font-size="11px" font-weight="bold" fill="#000" opacity="1">Execution Time (seconds, lower=better)</text></g></g><path class="foreground" aria-hidden="true" d="" pointer-events="none" display="none"/></g></g><g class="mark-group role-scope" role="graphics-object" aria-roledescription="group mark container"><g transform="translate(7.5,396.4935810678013)"><path class="background" aria-hidden="true" d="M1.7532094660993494,0L133.24679053390065,0C134.214413179326,0,135,0.7855868206740143,135,1.7532094660993494L135,3.5064189321986987C135,3.5064189321986987,135,3.5064189321986987,135,3.5064189321986987L0,3.5064189321986987C0,3.5064189321986987,0,3.5064189321986987,0,3.5064189321986987L0,1.7532094660993494C0,0.7855868206740143,0.7855868206740143,0,1.7532094660993494,0Z"/><g clip-path="url(#clip1)"><g class="mark-group role-scope" role="graphics-object" aria-roledescription="group mark container"><g transform="translate(0,-396.4935810678013)"><path class="background" aria-hidden="true" d="M0,0h135v0h-135Z"/><g><g class="mark-rect role-mark layer_0_marks" role="graphics-object" aria-roledescription="rect mark container"><path aria-label="Parser: yaml_rs; Execution Time (seconds, lower=better): 0.0493719000006; parser: yaml_rs; Execution Time (s): 0.0494; Slowdown: 1.00" role="graphics-symbol" aria-roledescription="bar" d="M0,396.4935810678013h135v3.5064189321986987h-135Z" fill="#e7298a"/></g></g><path class="foreground" aria-hidden="true" d="" display="none"/></g></g></g><path class="foreground" aria-hidden="true" d="" display="none"/></g><g transform="translate(157.5,343.28059734006706)"><path class="background" aria-hidden="true" d="M6,0L129,0C132.311490146964,0,135,2.688509853036,135,6L135,56.71940265993294C135,56.71940265993294,135,56.71940265993294,135,56.71940265993294L0,56.71940265993294C0,56.71940265993294,0,56.71940265993294,0,56.71940265993294L0,6C0,2.688509853036,2.688509853036,0,6,0Z"/><g clip-path="url(#clip2)"><g class="mark-group role-scope" role="graphics-object" aria-roledescription="group mark container"><g transform="translate(0,-343.28059734006706)"><path class="background" aria-hidden="true" d="M0,0h135v0h-135Z"/><g><g class="mark-rect role-mark layer_0_marks" role="graphics-object" aria-roledescription="rect mark container"><path aria-label="Parser: ruamel.yaml; Execution Time (seconds, lower=better): 0.798633800001; parser: ruamel.yaml; Execution Time (s): 0.7986; Slowdown: 16.18" role="graphics-symbol" aria-roledescription="bar" d="M0,343.28059734006706h135v56.71940265993294h-135Z" fill="#7570b3"/></g></g><path class="foreground" aria-hidden="true" d="" display="none"/></g></g></g><path class="foreground" aria-hidden="true" d="" display="none"/></g><g transform="translate(307.5,22.72647009854465)"><path class="background" aria-hidden="true" d="M6,0L129,0C132.311490146964,0,135,2.688509853036,135,6L135,377.27352990145533C135,377.27352990145533,135,377.27352990145533,135,377.27352990145533L0,377.27352990145533C0,377.27352990145533,0,377.27352990145533,0,377.27352990145533L0,6C0,2.688509853036,2.688509853036,0,6,0Z"/><g clip-path="url(#clip3)"><g class="mark-group role-scope" role="graphics-object" aria-roledescription="group mark container"><g transform="translate(0,-22.72647009854465)"><path class="background" aria-hidden="true" d="M0,0h135v0h-135Z"/><g><g class="mark-rect role-mark layer_0_marks" role="graphics-object" aria-roledescription="rect mark container"><path aria-label="Parser: oyaml; Execution Time (seconds, lower=better): 5.312175; parser: oyaml; Execution Time (s): 5.3122; Slowdown: 107.60" role="graphics-symbol" aria-roledescription="bar" d="M0,22.72647009854465h135v377.27352990145533h-135Z" fill="#d95f02"/></g></g><path class="foreground" aria-hidden="true" d="" display="none"/></g></g></g><path class="foreground" aria-hidden="true" d="" display="none"/></g><g transform="translate(457.5,15.384615384615374)"><path class="background" aria-hidden="true" d="M6,0L129,0C132.311490146964,0,135,2.688509853036,135,6L135,384.61538461538464C135,384.61538461538464,135,384.61538461538464,135,384.61538461538464L0,384.61538461538464C0,384.61538461538464,0,384.61538461538464,0,384.61538461538464L0,6C0,2.688509853036,2.688509853036,0,6,0Z"/><g clip-path="url(#clip4)"><g class="mark-group role-scope" role="graphics-object" aria-roledescription="group mark container"><g transform="translate(0,-15.384615384615374)"><path class="background" aria-hidden="true" d="M0,0h135v0h-135Z"/><g><g class="mark-rect role-mark layer_0_marks" role="graphics-object" aria-roledescription="rect mark container"><path aria-label="Parser: PyYAML; Execution Time (seconds, lower=better): 5.4155515; parser: PyYAML; Execution Time (s): 5.4156; Slowdown: 109.69" role="graphics-symbol" aria-roledescription="bar" d="M0,15.384615384615374h135v384.61538461538464h-135Z" fill="#1b9e77"/></g></g><path class="foreground" aria-hidden="true" d="" display="none"/></g></g></g><path class="foreground" aria-hidden="true" d="" display="none"/></g></g><g class="mark-text role-mark layer_1_marks" role="graphics-object" aria-roledescription="text mark container"><text aria-label="Parser: yaml_rs; Execution Time (seconds, lower=better): 0.0493719000006; parser: yaml_rs; label: 0.0494s (x1.00); Execution Time (s): 0.0494; Slowdown: 1.00" role="graphics-symbol" aria-roledescription="text mark" text-anchor="middle" transform="translate(75,392.4935810678013)" font-family="sans-serif" font-size="9px" font-weight="bold" fill="#e7298a">0.0494s (x1.00)</text><text aria-label="Parser: ruamel.yaml; Execution Time (seconds, lower=better): 0.798633800001; parser: ruamel.yaml; label: 0.7986s (x16.18); Execution Time (s): 0.7986; Slowdown: 16.18" role="graphics-symbol" aria-roledescription="text mark" text-anchor="middle" transform="translate(225,339.28059734006706)" font-family="sans-serif" font-size="9px" font-weight="bold" fill="#7570b3">0.7986s (x16.18)</text><text aria-label="Parser: oyaml; Execution Time (seconds, lower=better): 5.312175; parser: oyaml; label: 5.3122s (x107.60); Execution Time (s): 5.3122; Slowdown: 107.60" role="graphics-symbol" aria-roledescription="text mark" text-anchor="middle" transform="translate(375,18.72647009854465)" font-family="sans-serif" font-size="9px" font-weight="bold" fill="#d95f02">5.3122s (x107.60)</text><text aria-label="Parser: PyYAML; Execution Time (seconds, lower=better): 5.4155515; parser: PyYAML; label: 5.4156s (x109.69); Execution Time (s): 5.4156; Slowdown: 109.69" role="graphics-symbol" aria-roledescription="text mark" text-anchor="middle" transform="translate(525,11.384615384615374)" font-family="sans-serif" font-size="9px" font-weight="bold" fill="#1b9e77">5.4156s (x109.69)</text></g><g class="mark-group role-title"><g transform="translate(300,-31)"><path class="background" aria-hidden="true" d="M0,0h0v0h0Z" pointer-events="none"/><g><g class="mark-text role-title-text" role="graphics-symbol" aria-roledescription="title" aria-label="Title text 'YAML parsers benchmark (loads)'" pointer-events="none"><text text-anchor="middle" transform="translate(0,10)" font-family="sans-serif" font-size="13px" font-weight="bold" fill="#000" opacity="1">YAML parsers benchmark (loads)</text></g><g class="mark-text role-title-subtitle" role="graphics-symbol" aria-roledescription="subtitle" aria-label="Subtitle text 'Python: 3.13.8 (Windows 10) | CPU: 11th Gen Intel(R) Core(TM) i5-11300H @ 3.10GHz'" pointer-events="none"><text text-anchor="middle" transform="translate(0,25)" font-family="sans-serif" font-size="12px" fill="#000" opacity="1">Python: 3.13.8 (Windows 10) | CPU: 11th Gen Intel(R) Core(TM) i5-11300H @ 3.10GHz</text></g></g><path class="foreground" aria-hidden="true" d="" pointer-events="none" display="none"/></g></g></g><path class="foreground" aria-hidden="true" d="" display="none"/></g></g></g><defs><clipPath id="clip1"><path d="M1.7532094660993494,0L133.24679053390065,0C134.214413179326,0,135,0.7855868206740143,135,1.7532094660993494L135,3.5064189321986987C135,3.5064189321986987,135,3.5064189321986987,135,3.5064189321986987L0,3.5064189321986987C0,3.5064189321986987,0,3.5064189321986987,0,3.5064189321986987L0,1.7532094660993494C0,0.7855868206740143,0.7855868206740143,0,1.7532094660993494,0Z"/></clipPath><clipPath id="clip2"><path d="M6,0L129,0C132.311490146964,0,135,2.688509853036,135,6L135,56.71940265993294C135,56.71940265993294,135,56.71940265993294,135,56.71940265993294L0,56.71940265993294C0,56.71940265993294,0,56.71940265993294,0,56.71940265993294L0,6C0,2.688509853036,2.688509853036,0,6,0Z"/></clipPath><clipPath id="clip3"><path d="M6,0L129,0C132.311490146964,0,135,2.688509853036,135,6L135,377.27352990145533C135,377.27352990145533,135,377.27352990145533,135,377.27352990145533L0,377.27352990145533C0,377.27352990145533,0,377.27352990145533,0,377.27352990145533L0,6C0,2.688509853036,2.688509853036,0,6,0Z"/></clipPath><clipPath id="clip4"><path d="M6,0L129,0C132.311490146964,0,135,2.688509853036,135,6L135,384.61538461538464C135,384.61538461538464,135,384.61538461538464,135,384.61538461538464L0,384.61538461538464C0,384.61538461538464,0,384.61538461538464,0,384.61538461538464L0,6C0,2.688509853036,2.688509853036,0,6,0Z"/></clipPath></defs></svg>