<svg xmlns="http://www.w3.org/2000/svg" xmlns:xlink="http://www.w3.org/1999/xlink" version="1.1" class="marks" width="649" height="473" viewBox="0 0 649 473"><rect width="649" height="473" fill="white"/><g fill="none" stroke-miterlimit="10" transform="translate(44,36)"><g class="mark-group role-frame root" role="graphics-object" aria-roledescription="group mark container"><g transform="translate(0,0)"><path class="background" aria-hidden="true" d="M0.5,0.5h600v400h-600Z" stroke="#ddd"/><g><g class="mark-group role-axis" role="graphics-symbol" aria-roledescription="axis" aria-label="X-axis titled 'Parser' for a discrete scale with 6 values: yaml_rs, yaml_rs (parse_dt=False), ryaml, ruamel.yaml, PyYAML, oyaml"><g transform="translate(0.5,400.5)"><path class="background" aria-hidden="true" d="M0,0h0v0h0Z" pointer-events="none"/><g><g class="mark-rule role-axis-tick" pointer-events="none"><line transform="translate(50,0)" x2="0" y2="5" stroke="#888" stroke-width="1" opacity="1"/><line transform="translate(150,0)" x2="0" y2="5" stroke="#888" stroke-width="1" opacity="1"/><line transform="translate(250,0)" x2="0" y2="5" stroke="#888" stroke-width="1" opacity="1"/><line transform="translate(350,0)" x2="0" y2="5" stroke="#888" stroke-width="1" opacity="1"/><line transform="translate(450,0)" x2="0" y2="5" stroke="#888" stroke-width="1" opacity="1"/><line transform="translate(550,0)" x2="0" y2="5" stroke="#888" stroke-width="1" opacity="1"/></g><g class="mark-text role-axis-label" pointer-events="none"><text text-anchor="middle" transform="translate(49.5,15)" font-family="sans-serif" font-size="10px" fill="#000" opacity="1">yaml_rs</text><text text-anchor="middle" transform="translate(149.5,15)" font-family="sans-serif" font-size="10px" fill="#000" opacity="1">yaml_rs (parse_dt=False)</text><text text-anchor="middle" transform="translate(249.5,15)" font-family="sans-serif" font-size="10px" fill="#000" opacity="1">ryaml</text><text text-anchor="middle" transform="translate(349.5,15)" font-family="sans-serif" font-size="10px" fill="#000" opacity="1">ruamel.yaml</text><text text-anchor="middle" transform="translate(449.5,15)" font-family="sans-serif" font-size="10px" fill="#000" opacity="1">PyYAML</text><text text-anchor="middle" transform="translate(549.5,15)" font-family="sans-serif" font-size="10px" fill="#000" opacity="1">oyaml</text></g><g class="mark-rule role-axis-domain" pointer-events="none"><line transform="translate(0,0)" x2="600" y2="0" stroke="#888" stroke-width="1" opacity="1"/></g><g class="mark-text role-axis-title" pointer-events="none"><text text-anchor="middle" transform="translate(300,30)" font-family="sans-serif" font-size="11px" font-weight="bold" fill="#000" opacity="1">Parser</text></g></g><path class="foreground" aria-hidden="true" d="" pointer-events="none" display="none"/></g></g><g class="mark-group role-axis" role="graphics-symbol" aria-roledescription="axis" aria-label="Y-axis titled 'Execution Time (seconds, lower=better)' for a linear scale with values from 0 to 159"><g transform="translate(0.5,0.5)"><path class="background" aria-hidden="true" d="M0,0h0v0h0Z" pointer-events="none"/><g><g class="mark-rule role-axis-tick" pointer-events="none"><line transform="translate(0,400)" x2="-5" y2="0" stroke="#888" stroke-width="1" opacity="1"/><line transform="translate(0,350)" x2="-5" y2="0" stroke="#888" stroke-width="1" opacity="1"/><line transform="translate(0,299)" x2="-5" y2="0" stroke="#888" stroke-width="1" opacity="1"/><line transform="translate(0,249)" x2="-5" y2="0" stroke="#888" stroke-width="1" opacity="1"/><line transform="translate(0,198)" x2="-5" y2="0" stroke="#888" stroke-width="1" opacity="1"/><line transform="translate(0,148)" x2="-5" y2="0" stroke="#888" stroke-width="1" opacity="1"/><line transform="translate(0,97)" x2="-5" y2="0" stroke="#888" stroke-width="1" opacity="1"/><line transform="translate(0,47)" x2="-5" y2="0" stroke="#888" stroke-width="1" opacity="1"/></g><g class="mark-text role-axis-label" pointer-events="none"><text text-anchor="end" transform="translate(-7,403)" font-family="sans-serif" font-size="10px" fill="#000" opacity="1">0</text><text text-anchor="end" transform="translate(-7,352.52889269619567)" font-family="sans-serif" font-size="10px" fill="#000" opacity="1">20</text><text text-anchor="end" transform="translate(-7,302.0577853923913)" font-family="sans-serif" font-size="10px" fill="#000" opacity="1">40</text><text text-anchor="end" transform="translate(-7,251.58667808858695)" font-family="sans-serif" font-size="10px" fill="#000" opacity="1">60</text><text text-anchor="end" transform="translate(-7,201.1155707847826)" font-family="sans-serif" font-size="10px" fill="#000" opacity="1">80</text><text text-anchor="end" transform="translate(-7,150.64446348097823)" font-family="sans-serif" font-size="10px" fill="#000" opacity="1">100</text><text text-anchor="end" transform="translate(-7,100.17335617717384)" font-family="sans-serif" font-size="10px" fill="#000" opacity="1">120</text><text text-anchor="end" transform="translate(-7,49.70224887336949)" font-family="sans-serif" font-size="10px" fill="#000" opacity="1">140</text></g><g class="mark-rule role-axis-domain" pointer-events="none"><line transform="translate(0,400)" x2="0" y2="-400" stroke="#888" stroke-width="1" opacity="1"/></g><g class="mark-text role-axis-title" pointer-events="none"><text text-anchor="middle" transform="translate(-27.6845703125,200) rotate(-90) translate(0,-2)" font-family="sans-serif" font-size="11px" font-weight="bold" fill="#000" opacity="1">Execution Time (seconds, lower=better)</text></g></g><path class="foreground" aria-hidden="true" d="" pointer-events="none" display="none"/></g></g><g class="mark-group role-scope" role="graphics-object" aria-roledescription="group mark container"><g transform="translate(5,394.32940857745547)"><path class="background" aria-hidden="true" d="M2.8352957112722663,0L87.16470428872773,0C88.7295465906623,0,90,1.2704534093377005,90,2.8352957112722663L90,5.670591422544533C90,5.670591422544533,90,5.670591422544533,90,5.670591422544533L0,5.670591422544533C0,5.670591422544533,0,5.670591422544533,0,5.670591422544533L0,2.8352957112722663C0,1.2704534093377005,1.2704534093377005,0,2.8352957112722663,0Z"/><g clip-path="url(#clip1)"><g class="mark-group role-scope" role="graphics-object" aria-roledescription="group mark container"><g transform="translate(0,-394.32940857745547)"><path class="background" aria-hidden="true" d="M0,0h90v0h-90Z"/><g><g class="mark-rect role-mark layer_0_marks" role="graphics-object" aria-roledescription="rect mark container"><path aria-label="Parser: yaml_rs; Execution Time (seconds, lower=better): 2.2470644; parser: yaml_rs; Execution Time (s): 2.2471; Slowdown: 1.00" role="graphics-symbol" aria-roledescription="bar" d="M0,394.32940857745547h90v5.670591422544533h-90Z" fill="#66a61e"/></g></g><path class="foreground" aria-hidden="true" d="" display="none"/></g></g></g><path class="foreground" aria-hidden="true" d="" display="none"/></g><g transform="translate(105,394.26724987584345)"><path class="background" aria-hidden="true" d="M2.8663750620782764,0L87.13362493792172,0C88.71562040051765,0,90,1.2843795994823537,90,2.8663750620782764L90,5.732750124156553C90,5.732750124156553,90,5.732750124156553,90,5.732750124156553L0,5.732750124156553C0,5.732750124156553,0,5.732750124156553,0,5.732750124156553L0,2.8663750620782764C0,1.2843795994823537,1.2843795994823537,0,2.8663750620782764,0Z"/><g clip-path="url(#clip2)"><g class="mark-group role-scope" role="graphics-object" aria-roledescription="group mark container"><g transform="translate(0,-394.26724987584345)"><path class="background" aria-hidden="true" d="M0,0h90v0h-90Z"/><g><g class="mark-rect role-mark layer_0_marks" role="graphics-object" aria-roledescription="rect mark container"><path aria-label="Parser: yaml_rs (parse_dt=False); Execution Time (seconds, lower=better): 2.27169579999; parser: yaml_rs (parse_dt=False); Execution Time (s): 2.2717; Slowdown: 1.01" role="graphics-symbol" aria-roledescription="bar" d="M0,394.26724987584345h90v5.732750124156553h-90Z" fill="#e6ab02"/></g></g><path class="foreground" aria-hidden="true" d="" display="none"/></g></g></g><path class="foreground" aria-hidden="true" d="" display="none"/></g><g transform="translate(205,389.2813621127263)"><path class="background" aria-hidden="true" d="M5.3593189436368505,0L84.64068105636315,0C87.59856970241164,0,90,2.40143029758836,90,5.3593189436368505L90,10.718637887273701C90,10.718637887273701,90,10.718637887273701,90,10.718637887273701L0,10.718637887273701C0,10.718637887273701,0,10.718637887273701,0,10.718637887273701L0,5.3593189436368505C0,2.40143029758836,2.40143029758836,0,5.3593189436368505,0Z"/><g clip-path="url(#clip3)"><g class="mark-group role-scope" role="graphics-object" aria-roledescription="group mark container"><g transform="translate(0,-389.2813621127263)"><path class="background" aria-hidden="true" d="M0,0h90v0h-90Z"/><g><g class="mark-rect role-mark layer_0_marks" role="graphics-object" aria-roledescription="rect mark container"><path aria-label="Parser: ryaml; Execution Time (seconds, lower=better): 4.24743520001; parser: ryaml; Execution Time (s): 4.2474; Slowdown: 1.89" role="graphics-symbol" aria-roledescription="bar" d="M0,389.2813621127263h90v10.718637887273701h-90Z" fill="#e7298a"/></g></g><path class="foreground" aria-hidden="true" d="" display="none"/></g></g></g><path class="foreground" aria-hidden="true" d="" display="none"/></g><g transform="translate(305,325.9949454249921)"><path class="background" aria-hidden="true" d="M6,0L84,0C87.311490146964,0,90,2.688509853036,90,6L90,74.00505457500788C90,74.00505457500788,90,74.00505457500788,90,74.00505457500788L0,74.00505457500788C0,74.00505457500788,0,74.00505457500788,0,74.00505457500788L0,6C0,2.688509853036,2.688509853036,0,6,0Z"/><g clip-path="url(#clip4)"><g class="mark-group role-scope" role="graphics-object" aria-roledescription="group mark container"><g transform="translate(0,-325.9949454249921)"><path class="background" aria-hidden="true" d="M0,0h90v0h-90Z"/><g><g class="mark-rect role-mark layer_0_marks" role="graphics-object" aria-roledescription="rect mark container"><path aria-label="Parser: ruamel.yaml; Execution Time (seconds, lower=better): 29.3257107; parser: ruamel.yaml; Execution Time (s): 29.3257; Slowdown: 13.05" role="graphics-symbol" aria-roledescription="bar" d="M0,325.9949454249921h90v74.00505457500788h-90Z" fill="#7570b3"/></g></g><path class="foreground" aria-hidden="true" d="" display="none"/></g></g></g><path class="foreground" aria-hidden="true" d="" display="none"/></g><g transform="translate(405,18.343594834400268)"><path class="background" aria-hidden="true" d="M6,0L84,0C87.311490146964,0,90,2.688509853036,90,6L90,381.6564051655997C90,381.6564051655997,90,381.6564051655997,90,381.6564051655997L0,381.6564051655997C0,381.6564051655997,0,381.6564051655997,0,381.6564051655997L0,6C0,2.688509853036,2.688509853036,0,6,0Z"/><g clip-path="url(#clip5)"><g class="mark-group role-scope" role="graphics-object" aria-roledescription="group mark container"><g transform="translate(0,-18.343594834400268)"><path class="background" aria-hidden="true" d="M0,0h90v0h-90Z"/><g><g class="mark-rect role-mark layer_0_marks" role="graphics-object" aria-roledescription="rect mark container"><path aria-label="Parser: PyYAML; Execution Time (seconds, lower=better): 151.2375795; parser: PyYAML; Execution Time (s): 151.2376; Slowdown: 67.30" role="graphics-symbol" aria-roledescription="bar" d="M0,18.343594834400268h90v381.6564051655997h-90Z" fill="#1b9e77"/></g></g><path class="foreground" aria-hidden="true" d="" display="none"/></g></g></g><path class="foreground" aria-hidden="true" d="" display="none"/></g><g transform="translate(505,15.384615384615419)"><path class="background" aria-hidden="true" d="M6,0L84,0C87.311490146964,0,90,2.688509853036,90,6L90,384.6153846153846C90,384.6153846153846,90,384.6153846153846,90,384.6153846153846L0,384.6153846153846C0,384.6153846153846,0,384.6153846153846,0,384.6153846153846L0,6C0,2.688509853036,2.688509853036,0,6,0Z"/><g clip-path="url(#clip6)"><g class="mark-group role-scope" role="graphics-object" aria-roledescription="group mark container"><g transform="translate(0,-15.384615384615419)"><path class="background" aria-hidden="true" d="M0,0h90v0h-90Z"/><g><g class="mark-rect role-mark layer_0_marks" role="graphics-object" aria-roledescription="rect mark container"><path aria-label="Parser: oyaml; Execution Time (seconds, lower=better): 152.4101234; parser: oyaml; Execution Time (s): 152.4101; Slowdown: 67.83" role="graphics-symbol" aria-roledescription="bar" d="M0,15.384615384615419h90v384.6153846153846h-90Z" fill="#d95f02"/></g></g><path class="foreground" aria-hidden="true" d="" display="none"/></g></g></g><path class="foreground" aria-hidden="true" d="" display="none"/></g></g><g class="mark-text role-mark layer_1_marks" role="graphics-object" aria-roledescription="text mark container"><text aria-label="Parser: yaml_rs; Execution Time (seconds, lower=better): 2.2470644; parser: yaml_rs; label: 2.2471s (x1.00); Execution Time (s): 2.2471; Slowdown: 1.00" role="graphics-symbol" aria-roledescription="text mark" text-anchor="middle" transform="translate(50,390.32940857745547)" font-family="sans-serif" font-size="9px" font-weight="bold" fill="#66a61e">2.2471s (x1.00)</text><text aria-label="Parser: yaml_rs (parse_dt=False); Execution Time (seconds, lower=better): 2.27169579999; parser: yaml_rs (parse_dt=False); label: 2.2717s (x1.01); Execution Time (s): 2.2717; Slowdown: 1.01" role="graphics-symbol" aria-roledescription="text mark" text-anchor="middle" transform="translate(150,390.26724987584345)" font-family="sans-serif" font-size="9px" font-weight="bold" fill="#e6ab02">2.2717s (x1.01)</text><text aria-label="Parser: ryaml; Execution Time (seconds, lower=better): 4.24743520001; parser: ryaml; label: 4.2474s (x1.89); Execution Time (s): 4.2474; Slowdown: 1.89" role="graphics-symbol" aria-roledescription="text mark" text-anchor="middle" transform="translate(250,385.2813621127263)" font-family="sans-serif" font-size="9px" font-weight="bold" fill="#e7298a">4.2474s (x1.89)</text><text aria-label="Parser: ruamel.yaml; Execution Time (seconds, lower=better): 29.3257107; parser: ruamel.yaml; label: 29.3257s (x13.05); Execution Time (s): 29.3257; Slowdown: 13.05" role="graphics-symbol" aria-roledescription="text mark" text-anchor="middle" transform="translate(350,321.9949454249921)" font-family="sans-serif" font-size="9px" font-weight="bold" fill="#7570b3">29.3257s (x13.05)</text><text aria-label="Parser: PyYAML; Execution Time (seconds, lower=better): 151.2375795; parser: PyYAML; label: 151.2376s (x67.30); Execution Time (s): 151.2376; Slowdown: 67.30" role="graphics-symbol" aria-roledescription="text mark" text-anchor="middle" transform="translate(450,14.343594834400268)" font-family="sans-serif" font-size="9px" font-weight="bold" fill="#1b9e77">151.2376s (x67.30)</text><text aria-label="Parser: oyaml; Execution Time (seconds, lower=better): 152.4101234; parser: oyaml; label: 152.4101s (x67.83); Execution Time (s): 152.4101; Slowdown: 67.83" role="graphics-symbol" aria-roledescription="text mark" text-anchor="middle" transform="translate(550,11.384615384615419)" font-family="sans-serif" font-size="9px" font-weight="bold" fill="#d95f02">152.4101s (x67.83)</text></g><g class="mark-group role-title"><g transform="translate(300,-31)"><path class="background" aria-hidden="true" d="M0,0h0v0h0Z" pointer-events="none"/><g><g class="mark-text role-title-text" role="graphics-symbol" aria-roledescription="title" aria-label="Title text 'YAML parsers benchmark (loads)'" pointer-events="none"><text text-anchor="middle" transform="translate(0,10)" font-family="sans-serif" font-size="13px" font-weight="bold" fill="#000" opacity="1">YAML parsers benchmark (loads)</text></g><g class="mark-text role-title-subtitle" role="graphics-symbol" aria-roledescription="subtitle" aria-label="Subtitle text 'Python: 3.13.8 (Windows 10) | CPU: 11th Gen Intel(R) Core(TM) i5-11300H @ 3.10GHz'" pointer-events="none"><text text-anchor="middle" transform="translate(0,25)" font-family="sans-serif" font-size="12px" fill="#000" opacity="1">Python: 3.13.8 (Windows 10) | CPU: 11th Gen Intel(R) Core(TM) i5-11300H @ 3.10GHz</text></g></g><path class="foreground" aria-hidden="true" d="" pointer-events="none" display="none"/></g></g></g><path class="foreground" aria-hidden="true" d="" display="none"/></g></g></g><defs><clipPath id="clip1"><path d="M2.8352957112722663,0L87.16470428872773,0C88.7295465906623,0,90,1.2704534093377005,90,2.8352957112722663L90,5.670591422544533C90,5.670591422544533,90,5.670591422544533,90,5.670591422544533L0,5.670591422544533C0,5.670591422544533,0,5.670591422544533,0,5.670591422544533L0,2.8352957112722663C0,1.2704534093377005,1.2704534093377005,0,2.8352957112722663,0Z"/></clipPath><clipPath id="clip2"><path d="M2.8663750620782764,0L87.13362493792172,0C88.71562040051765,0,90,1.2843795994823537,90,2.8663750620782764L90,5.732750124156553C90,5.732750124156553,90,5.732750124156553,90,5.732750124156553L0,5.732750124156553C0,5.732750124156553,0,5.732750124156553,0,5.732750124156553L0,2.8663750620782764C0,1.2843795994823537,1.2843795994823537,0,2.8663750620782764,0Z"/></clipPath><clipPath id="clip3"><path d="M5.3593189436368505,0L84.64068105636315,0C87.59856970241164,0,90,2.40143029758836,90,5.3593189436368505L90,10.718637887273701C90,10.718637887273701,90,10.718637887273701,90,10.718637887273701L0,10.718637887273701C0,10.718637887273701,0,10.718637887273701,0,10.718637887273701L0,5.3593189436368505C0,2.40143029758836,2.40143029758836,0,5.3593189436368505,0Z"/></clipPath><clipPath id="clip4"><path d="M6,0L84,0C87.311490146964,0,90,2.688509853036,90,6L90,74.00505457500788C90,74.00505457500788,90,74.00505457500788,90,74.00505457500788L0,74.00505457500788C0,74.00505457500788,0,74.00505457500788,0,74.00505457500788L0,6C0,2.688509853036,2.688509853036,0,6,0Z"/></clipPath><clipPath id="clip5"><path d="M6,0L84,0C87.311490146964,0,90,2.688509853036,90,6L90,381.6564051655997C90,381.6564051655997,90,381.6564051655997,90,381.6564051655997L0,381.6564051655997C0,381.6564051655997,0,381.6564051655997,0,381.6564051655997L0,6C0,2.688509853036,2.688509853036,0,6,0Z"/></clipPath><clipPath id="clip6"><path d="M6,0L84,0C87.311490146964,0,90,2.688509853036,90,6L90,384.6153846153846C90,384.6153846153846,90,384.6153846153846,90,384.6153846153846L0,384.6153846153846C0,384.6153846153846,0,384.6153846153846,0,384.6153846153846L0,6C0,2.688509853036,2.688509853036,0,6,0Z"/></clipPath></defs></svg>