<svg xmlns="http://www.w3.org/2000/svg" xmlns:xlink="http://www.w3.org/1999/xlink" version="1.1" class="marks" width="844" height="687" viewBox="0 0 844 687"><rect width="844" height="687" fill="white"/><g fill="none" stroke-miterlimit="10" transform="translate(39,36)"><g class="mark-group role-frame root" role="graphics-object" aria-roledescription="group mark container"><g transform="translate(0,0)"><path class="background" aria-hidden="true" d="M0.5,0.5h800v600h-800Z" stroke="#ddd"/><g><g class="mark-group role-axis" role="graphics-symbol" aria-roledescription="axis" aria-label="X-axis titled 'Parser' for a discrete scale with 8 values: yaml_rs (parse_dt=False)&#xA;v0.0.13, yaml_rs&#xA;v0.0.13, ryaml&#xA;v0.6.0, PyYAML (CSafeLoader)&#xA;v6.0.3, PyYAML (CLoader)&#xA;v6.0.3, ending with ruamel.yaml&#xA;v0.19.1"><g transform="translate(0.5,600.5)"><path class="background" aria-hidden="true" d="M0,0h0v0h0Z" pointer-events="none"/><g><g class="mark-rule role-axis-tick" pointer-events="none"><line transform="translate(50,0)" x2="0" y2="5" stroke="#888" stroke-width="1" opacity="1"/><line transform="translate(150,0)" x2="0" y2="5" stroke="#888" stroke-width="1" opacity="1"/><line transform="translate(250,0)" x2="0" y2="5" stroke="#888" stroke-width="1" opacity="1"/><line transform="translate(350,0)" x2="0" y2="5" stroke="#888" stroke-width="1" opacity="1"/><line transform="translate(450,0)" x2="0" y2="5" stroke="#888" stroke-width="1" opacity="1"/><line transform="translate(550,0)" x2="0" y2="5" stroke="#888" stroke-width="1" opacity="1"/><line transform="translate(650,0)" x2="0" y2="5" stroke="#888" stroke-width="1" opacity="1"/><line transform="translate(750,0)" x2="0" y2="5" stroke="#888" stroke-width="1" opacity="1"/></g><g class="mark-text role-axis-label" pointer-events="none"><text text-anchor="middle" transform="translate(49.5,15)" font-family="sans-serif" font-size="10px" fill="#000" opacity="1"><tspan>yaml_rs (parse_dt=False)</tspan><tspan x="0" dy="14">v0.0.13</tspan></text><text text-anchor="middle" transform="translate(149.5,15)" font-family="sans-serif" font-size="10px" fill="#000" opacity="1"><tspan>yaml_rs</tspan><tspan x="0" dy="14">v0.0.13</tspan></text><text text-anchor="middle" transform="translate(249.5,15)" font-family="sans-serif" font-size="10px" fill="#000" opacity="1"><tspan>ryaml</tspan><tspan x="0" dy="14">v0.6.0</tspan></text><text text-anchor="middle" transform="translate(349.5,15)" font-family="sans-serif" font-size="10px" fill="#000" opacity="1"><tspan>PyYAML (CSafeLoader)</tspan><tspan x="0" dy="14">v6.0.3</tspan></text><text text-anchor="middle" transform="translate(449.5,15)" font-family="sans-serif" font-size="10px" fill="#000" opacity="1"><tspan>PyYAML (CLoader)</tspan><tspan x="0" dy="14">v6.0.3</tspan></text><text text-anchor="middle" transform="translate(549.5,15)" font-family="sans-serif" font-size="10px" fill="#000" opacity="1"><tspan>PyYAML</tspan><tspan x="0" dy="14">v6.0.3</tspan></text><text text-anchor="middle" transform="translate(649.5,15)" font-family="sans-serif" font-size="10px" fill="#000" opacity="1"><tspan>oyaml</tspan><tspan x="0" dy="14">v1.0</tspan></text><text text-anchor="middle" transform="translate(749.5,15)" font-family="sans-serif" font-size="10px" fill="#000" opacity="1"><tspan>ruamel.yaml</tspan><tspan x="0" dy="14">v0.19.1</tspan></text></g><g class="mark-rule role-axis-domain" pointer-events="none"><line transform="translate(0,0)" x2="800" y2="0" stroke="#888" stroke-width="1" opacity="1"/></g><g class="mark-text role-axis-title" pointer-events="none"><text text-anchor="middle" transform="translate(400,44)" font-family="sans-serif" font-size="11px" font-weight="bold" fill="#000" opacity="1">Parser</text></g></g><path class="foreground" aria-hidden="true" d="" pointer-events="none" display="none"/></g></g><g class="mark-group role-axis" role="graphics-symbol" aria-roledescription="axis" aria-label="Y-axis titled 'Execution Time (seconds, lower=better)' for a linear scale with values from 0 to 37"><g transform="translate(0.5,0.5)"><path class="background" aria-hidden="true" d="M0,0h0v0h0Z" pointer-events="none"/><g><g class="mark-rule role-axis-tick" pointer-events="none"><line transform="translate(0,600)" x2="-5" y2="0" stroke="#888" stroke-width="1" opacity="1"/><line transform="translate(0,567)" x2="-5" y2="0" stroke="#888" stroke-width="1" opacity="1"/><line transform="translate(0,535)" x2="-5" y2="0" stroke="#888" stroke-width="1" opacity="1"/><line transform="translate(0,502)" x2="-5" y2="0" stroke="#888" stroke-width="1" opacity="1"/><line transform="translate(0,470)" x2="-5" y2="0" stroke="#888" stroke-width="1" opacity="1"/><line transform="translate(0,437)" x2="-5" y2="0" stroke="#888" stroke-width="1" opacity="1"/><line transform="translate(0,405)" x2="-5" y2="0" stroke="#888" stroke-width="1" opacity="1"/><line transform="translate(0,372)" x2="-5" y2="0" stroke="#888" stroke-width="1" opacity="1"/><line transform="translate(0,340)" x2="-5" y2="0" stroke="#888" stroke-width="1" opacity="1"/><line transform="translate(0,307)" x2="-5" y2="0" stroke="#888" stroke-width="1" opacity="1"/><line transform="translate(0,275)" x2="-5" y2="0" stroke="#888" stroke-width="1" opacity="1"/><line transform="translate(0,242)" x2="-5" y2="0" stroke="#888" stroke-width="1" opacity="1"/><line transform="translate(0,209)" x2="-5" y2="0" stroke="#888" stroke-width="1" opacity="1"/><line transform="translate(0,177)" x2="-5" y2="0" stroke="#888" stroke-width="1" opacity="1"/><line transform="translate(0,144)" x2="-5" y2="0" stroke="#888" stroke-width="1" opacity="1"/><line transform="translate(0,112)" x2="-5" y2="0" stroke="#888" stroke-width="1" opacity="1"/><line transform="translate(0,79)" x2="-5" y2="0" stroke="#888" stroke-width="1" opacity="1"/><line transform="translate(0,47)" x2="-5" y2="0" stroke="#888" stroke-width="1" opacity="1"/><line transform="translate(0,14)" x2="-5" y2="0" stroke="#888" stroke-width="1" opacity="1"/></g><g class="mark-text role-axis-label" pointer-events="none"><text text-anchor="end" transform="translate(-7,603)" font-family="sans-serif" font-size="10px" fill="#000" opacity="1">0</text><text text-anchor="end" transform="translate(-7,570.4565057032191)" font-family="sans-serif" font-size="10px" fill="#000" opacity="1">2</text><text text-anchor="end" transform="translate(-7,537.9130114064383)" font-family="sans-serif" font-size="10px" fill="#000" opacity="1">4</text><text text-anchor="end" transform="translate(-7,505.3695171096574)" font-family="sans-serif" font-size="10px" fill="#000" opacity="1">6</text><text text-anchor="end" transform="translate(-7,472.82602281287643)" font-family="sans-serif" font-size="10px" fill="#000" opacity="1">8</text><text text-anchor="end" transform="translate(-7,440.28252851609557)" font-family="sans-serif" font-size="10px" fill="#000" opacity="1">10</text><text text-anchor="end" transform="translate(-7,407.7390342193147)" font-family="sans-serif" font-size="10px" fill="#000" opacity="1">12</text><text text-anchor="end" transform="translate(-7,375.1955399225338)" font-family="sans-serif" font-size="10px" fill="#000" opacity="1">14</text><text text-anchor="end" transform="translate(-7,342.65204562575286)" font-family="sans-serif" font-size="10px" fill="#000" opacity="1">16</text><text text-anchor="end" transform="translate(-7,310.108551328972)" font-family="sans-serif" font-size="10px" fill="#000" opacity="1">18</text><text text-anchor="end" transform="translate(-7,277.56505703219113)" font-family="sans-serif" font-size="10px" fill="#000" opacity="1">20</text><text text-anchor="end" transform="translate(-7,245.02156273541027)" font-family="sans-serif" font-size="10px" fill="#000" opacity="1">22</text><text text-anchor="end" transform="translate(-7,212.4780684386294)" font-family="sans-serif" font-size="10px" fill="#000" opacity="1">24</text><text text-anchor="end" transform="translate(-7,179.93457414184846)" font-family="sans-serif" font-size="10px" fill="#000" opacity="1">26</text><text text-anchor="end" transform="translate(-7,147.3910798450676)" font-family="sans-serif" font-size="10px" fill="#000" opacity="1">28</text><text text-anchor="end" transform="translate(-7,114.84758554828672)" font-family="sans-serif" font-size="10px" fill="#000" opacity="1">30</text><text text-anchor="end" transform="translate(-7,82.30409125150584)" font-family="sans-serif" font-size="10px" fill="#000" opacity="1">32</text><text text-anchor="end" transform="translate(-7,49.76059695472497)" font-family="sans-serif" font-size="10px" fill="#000" opacity="1">34</text><text text-anchor="end" transform="translate(-7,17.217102657944093)" font-family="sans-serif" font-size="10px" fill="#000" opacity="1">36</text></g><g class="mark-rule role-axis-domain" pointer-events="none"><line transform="translate(0,600)" x2="0" y2="-600" stroke="#888" stroke-width="1" opacity="1"/></g><g class="mark-text role-axis-title" pointer-events="none"><text text-anchor="middle" transform="translate(-22.123046875,300) rotate(-90) translate(0,-2)" font-family="sans-serif" font-size="11px" font-weight="bold" fill="#000" opacity="1">Execution Time (seconds, lower=better)</text></g></g><path class="foreground" aria-hidden="true" d="" pointer-events="none" display="none"/></g></g><g class="mark-group role-scope" role="graphics-object" aria-roledescription="group mark container"><g transform="translate(5,595.3271485376571)"><path class="background" aria-hidden="true" d="M2.3364257311714596,0L87.66357426882854,0C88.95308273347645,0,90,1.0469172665235515,90,2.3364257311714596L90,4.672851462342919C90,4.672851462342919,90,4.672851462342919,90,4.672851462342919L0,4.672851462342919C0,4.672851462342919,0,4.672851462342919,0,4.672851462342919L0,2.3364257311714596C0,1.0469172665235515,1.0469172665235515,0,2.3364257311714596,0Z"/><g clip-path="url(#clip1)"><g class="mark-group role-scope" role="graphics-object" aria-roledescription="group mark container"><g transform="translate(0,-595.3271485376571)"><path class="background" aria-hidden="true" d="M0,0h90v0h-90Z"/><g><g class="mark-rect role-mark layer_0_marks" role="graphics-object" aria-roledescription="rect mark container"><path aria-label="Parser: yaml_rs (parse_dt=False)&#xA;v0.0.13; Execution Time (seconds, lower=better): 0.287175766667; parser: yaml_rs (parse_dt=False); Execution Time (s): 0.2872; Slowdown: 1.00" role="graphics-symbol" aria-roledescription="bar" d="M0,595.3271485376571h90v4.672851462342919h-90Z" fill="#666666"/></g></g><path class="foreground" aria-hidden="true" d="" display="none"/></g></g></g><path class="foreground" aria-hidden="true" d="" display="none"/></g><g transform="translate(105,595.286724093814)"><path class="background" aria-hidden="true" d="M2.3566379530930135,0L87.64336204690699,0C88.9440259405118,0,90,1.055974059488193,90,2.3566379530930135L90,4.713275906186027C90,4.713275906186027,90,4.713275906186027,90,4.713275906186027L0,4.713275906186027C0,4.713275906186027,0,4.713275906186027,0,4.713275906186027L0,2.3566379530930135C0,1.055974059488193,1.055974059488193,0,2.3566379530930135,0Z"/><g clip-path="url(#clip2)"><g class="mark-group role-scope" role="graphics-object" aria-roledescription="group mark container"><g transform="translate(0,-595.286724093814)"><path class="background" aria-hidden="true" d="M0,0h90v0h-90Z"/><g><g class="mark-rect role-mark layer_0_marks" role="graphics-object" aria-roledescription="rect mark container"><path aria-label="Parser: yaml_rs&#xA;v0.0.13; Execution Time (seconds, lower=better): 0.289660100001; parser: yaml_rs; Execution Time (s): 0.2897; Slowdown: 1.01" role="graphics-symbol" aria-roledescription="bar" d="M0,595.286724093814h90v4.713275906186027h-90Z" fill="#a6761d"/></g></g><path class="foreground" aria-hidden="true" d="" display="none"/></g></g></g><path class="foreground" aria-hidden="true" d="" display="none"/></g><g transform="translate(205,590.7605738222387)"><path class="background" aria-hidden="true" d="M4.619713088880644,0L85.38028691111936,0C87.92997597372417,0,90,2.070024026275831,90,4.619713088880644L90,9.239426177761288C90,9.239426177761288,90,9.239426177761288,90,9.239426177761288L0,9.239426177761288C0,9.239426177761288,0,9.239426177761288,0,9.239426177761288L0,4.619713088880644C0,2.070024026275831,2.070024026275831,0,4.619713088880644,0Z"/><g clip-path="url(#clip3)"><g class="mark-group role-scope" role="graphics-object" aria-roledescription="group mark container"><g transform="translate(0,-590.7605738222387)"><path class="background" aria-hidden="true" d="M0,0h90v0h-90Z"/><g><g class="mark-rect role-mark layer_0_marks" role="graphics-object" aria-roledescription="rect mark container"><path aria-label="Parser: ryaml&#xA;v0.6.0; Execution Time (seconds, lower=better): 0.567820166667; parser: ryaml; Execution Time (s): 0.5678; Slowdown: 1.98" role="graphics-symbol" aria-roledescription="bar" d="M0,590.7605738222387h90v9.239426177761288h-90Z" fill="#e6ab02"/></g></g><path class="foreground" aria-hidden="true" d="" display="none"/></g></g></g><path class="foreground" aria-hidden="true" d="" display="none"/></g><g transform="translate(305,558.7818783776859)"><path class="background" aria-hidden="true" d="M6,0L84,0C87.311490146964,0,90,2.688509853036,90,6L90,41.21812162231413C90,41.21812162231413,90,41.21812162231413,90,41.21812162231413L0,41.21812162231413C0,41.21812162231413,0,41.21812162231413,0,41.21812162231413L0,6C0,2.688509853036,2.688509853036,0,6,0Z"/><g clip-path="url(#clip4)"><g class="mark-group role-scope" role="graphics-object" aria-roledescription="group mark container"><g transform="translate(0,-558.7818783776859)"><path class="background" aria-hidden="true" d="M0,0h90v0h-90Z"/><g><g class="mark-rect role-mark layer_0_marks" role="graphics-object" aria-roledescription="rect mark container"><path aria-label="Parser: PyYAML (CSafeLoader)&#xA;v6.0.3; Execution Time (seconds, lower=better): 2.53310976667; parser: PyYAML (CSafeLoader); Execution Time (s): 2.5331; Slowdown: 8.82" role="graphics-symbol" aria-roledescription="bar" d="M0,558.7818783776859h90v41.21812162231413h-90Z" fill="#7570b3"/></g></g><path class="foreground" aria-hidden="true" d="" display="none"/></g></g></g><path class="foreground" aria-hidden="true" d="" display="none"/></g><g transform="translate(405,558.141919782994)"><path class="background" aria-hidden="true" d="M6,0L84,0C87.311490146964,0,90,2.688509853036,90,6L90,41.85808021700598C90,41.85808021700598,90,41.85808021700598,90,41.85808021700598L0,41.85808021700598C0,41.85808021700598,0,41.85808021700598,0,41.85808021700598L0,6C0,2.688509853036,2.688509853036,0,6,0Z"/><g clip-path="url(#clip5)"><g class="mark-group role-scope" role="graphics-object" aria-roledescription="group mark container"><g transform="translate(0,-558.141919782994)"><path class="background" aria-hidden="true" d="M0,0h90v0h-90Z"/><g><g class="mark-rect role-mark layer_0_marks" role="graphics-object" aria-roledescription="rect mark container"><path aria-label="Parser: PyYAML (CLoader)&#xA;v6.0.3; Execution Time (seconds, lower=better): 2.5724392; parser: PyYAML (CLoader); Execution Time (s): 2.5724; Slowdown: 8.96" role="graphics-symbol" aria-roledescription="bar" d="M0,558.141919782994h90v41.85808021700598h-90Z" fill="#d95f02"/></g></g><path class="foreground" aria-hidden="true" d="" display="none"/></g></g></g><path class="foreground" aria-hidden="true" d="" display="none"/></g><g transform="translate(505,175.29534531671388)"><path class="background" aria-hidden="true" d="M6,0L84,0C87.311490146964,0,90,2.688509853036,90,6L90,424.7046546832861C90,424.7046546832861,90,424.7046546832861,90,424.7046546832861L0,424.7046546832861C0,424.7046546832861,0,424.7046546832861,0,424.7046546832861L0,6C0,2.688509853036,2.688509853036,0,6,0Z"/><g clip-path="url(#clip6)"><g class="mark-group role-scope" role="graphics-object" aria-roledescription="group mark container"><g transform="translate(0,-175.29534531671388)"><path class="background" aria-hidden="true" d="M0,0h90v0h-90Z"/><g><g class="mark-rect role-mark layer_0_marks" role="graphics-object" aria-roledescription="rect mark container"><path aria-label="Parser: PyYAML&#xA;v6.0.3; Execution Time (seconds, lower=better): 26.1007408; parser: PyYAML; Execution Time (s): 26.1007; Slowdown: 90.89" role="graphics-symbol" aria-roledescription="bar" d="M0,175.29534531671388h90v424.7046546832861h-90Z" fill="#1b9e77"/></g></g><path class="foreground" aria-hidden="true" d="" display="none"/></g></g></g><path class="foreground" aria-hidden="true" d="" display="none"/></g><g transform="translate(605,175.25437034543648)"><path class="background" aria-hidden="true" d="M6,0L84,0C87.311490146964,0,90,2.688509853036,90,6L90,424.7456296545635C90,424.7456296545635,90,424.7456296545635,90,424.7456296545635L0,424.7456296545635C0,424.7456296545635,0,424.7456296545635,0,424.7456296545635L0,6C0,2.688509853036,2.688509853036,0,6,0Z"/><g clip-path="url(#clip7)"><g class="mark-group role-scope" role="graphics-object" aria-roledescription="group mark container"><g transform="translate(0,-175.25437034543648)"><path class="background" aria-hidden="true" d="M0,0h90v0h-90Z"/><g><g class="mark-rect role-mark layer_0_marks" role="graphics-object" aria-roledescription="rect mark container"><path aria-label="Parser: oyaml&#xA;v1.0; Execution Time (seconds, lower=better): 26.1032589667; parser: oyaml; Execution Time (s): 26.1033; Slowdown: 90.90" role="graphics-symbol" aria-roledescription="bar" d="M0,175.25437034543648h90v424.7456296545635h-90Z" fill="#e7298a"/></g></g><path class="foreground" aria-hidden="true" d="" display="none"/></g></g></g><path class="foreground" aria-hidden="true" d="" display="none"/></g><g transform="translate(705,23.07692307692313)"><path class="background" aria-hidden="true" d="M6,0L84,0C87.311490146964,0,90,2.688509853036,90,6L90,576.9230769230769C90,576.9230769230769,90,576.9230769230769,90,576.9230769230769L0,576.9230769230769C0,576.9230769230769,0,576.9230769230769,0,576.9230769230769L0,6C0,2.688509853036,2.688509853036,0,6,0Z"/><g clip-path="url(#clip8)"><g class="mark-group role-scope" role="graphics-object" aria-roledescription="group mark container"><g transform="translate(0,-23.07692307692313)"><path class="background" aria-hidden="true" d="M0,0h90v0h-90Z"/><g><g class="mark-rect role-mark layer_0_marks" role="graphics-object" aria-roledescription="rect mark container"><path aria-label="Parser: ruamel.yaml&#xA;v0.19.1; Execution Time (seconds, lower=better): 35.4555089667; parser: ruamel.yaml; Execution Time (s): 35.4555; Slowdown: 123.46" role="graphics-symbol" aria-roledescription="bar" d="M0,23.07692307692313h90v576.9230769230769h-90Z" fill="#66a61e"/></g></g><path class="foreground" aria-hidden="true" d="" display="none"/></g></g></g><path class="foreground" aria-hidden="true" d="" display="none"/></g></g><g class="mark-text role-mark layer_1_marks" role="graphics-object" aria-roledescription="text mark container"><text aria-label="Parser: yaml_rs (parse_dt=False)&#xA;v0.0.13; Execution Time (seconds, lower=better): 0.287175766667; parser: yaml_rs (parse_dt=False); label: 0.2872s (x1.00); Execution Time (s): 0.2872; Slowdown: 1.00" role="graphics-symbol" aria-roledescription="text mark" text-anchor="middle" transform="translate(50,591.3271485376571)" font-family="sans-serif" font-size="9px" font-weight="bold" fill="#666666">0.2872s (x1.00)</text><text aria-label="Parser: yaml_rs&#xA;v0.0.13; Execution Time (seconds, lower=better): 0.289660100001; parser: yaml_rs; label: 0.2897s (x1.01); Execution Time (s): 0.2897; Slowdown: 1.01" role="graphics-symbol" aria-roledescription="text mark" text-anchor="middle" transform="translate(150,591.286724093814)" font-family="sans-serif" font-size="9px" font-weight="bold" fill="#a6761d">0.2897s (x1.01)</text><text aria-label="Parser: ryaml&#xA;v0.6.0; Execution Time (seconds, lower=better): 0.567820166667; parser: ryaml; label: 0.5678s (x1.98); Execution Time (s): 0.5678; Slowdown: 1.98" role="graphics-symbol" aria-roledescription="text mark" text-anchor="middle" transform="translate(250,586.7605738222387)" font-family="sans-serif" font-size="9px" font-weight="bold" fill="#e6ab02">0.5678s (x1.98)</text><text aria-label="Parser: PyYAML (CSafeLoader)&#xA;v6.0.3; Execution Time (seconds, lower=better): 2.53310976667; parser: PyYAML (CSafeLoader); label: 2.5331s (x8.82); Execution Time (s): 2.5331; Slowdown: 8.82" role="graphics-symbol" aria-roledescription="text mark" text-anchor="middle" transform="translate(350,554.7818783776859)" font-family="sans-serif" font-size="9px" font-weight="bold" fill="#7570b3">2.5331s (x8.82)</text><text aria-label="Parser: PyYAML (CLoader)&#xA;v6.0.3; Execution Time (seconds, lower=better): 2.5724392; parser: PyYAML (CLoader); label: 2.5724s (x8.96); Execution Time (s): 2.5724; Slowdown: 8.96" role="graphics-symbol" aria-roledescription="text mark" text-anchor="middle" transform="translate(450,554.141919782994)" font-family="sans-serif" font-size="9px" font-weight="bold" fill="#d95f02">2.5724s (x8.96)</text><text aria-label="Parser: PyYAML&#xA;v6.0.3; Execution Time (seconds, lower=better): 26.1007408; parser: PyYAML; label: 26.1007s (x90.89); Execution Time (s): 26.1007; Slowdown: 90.89" role="graphics-symbol" aria-roledescription="text mark" text-anchor="middle" transform="translate(550,171.29534531671388)" font-family="sans-serif" font-size="9px" font-weight="bold" fill="#1b9e77">26.1007s (x90.89)</text><text aria-label="Parser: oyaml&#xA;v1.0; Execution Time (seconds, lower=better): 26.1032589667; parser: oyaml; label: 26.1033s (x90.90); Execution Time (s): 26.1033; Slowdown: 90.90" role="graphics-symbol" aria-roledescription="text mark" text-anchor="middle" transform="translate(650,171.25437034543648)" font-family="sans-serif" font-size="9px" font-weight="bold" fill="#e7298a">26.1033s (x90.90)</text><text aria-label="Parser: ruamel.yaml&#xA;v0.19.1; Execution Time (seconds, lower=better): 35.4555089667; parser: ruamel.yaml; label: 35.4555s (x123.46); Execution Time (s): 35.4555; Slowdown: 123.46" role="graphics-symbol" aria-roledescription="text mark" text-anchor="middle" transform="translate(750,19.07692307692313)" font-family="sans-serif" font-size="9px" font-weight="bold" fill="#66a61e">35.4555s (x123.46)</text></g><g class="mark-group role-title"><g transform="translate(400,-31)"><path class="background" aria-hidden="true" d="M0,0h0v0h0Z" pointer-events="none"/><g><g class="mark-text role-title-text" role="graphics-symbol" aria-roledescription="title" aria-label="Title text 'YAML parsers benchmark (loads)'" pointer-events="none"><text text-anchor="middle" transform="translate(0,10)" font-family="sans-serif" font-size="13px" font-weight="bold" fill="#000" opacity="1">YAML parsers benchmark (loads)</text></g><g class="mark-text role-title-subtitle" role="graphics-symbol" aria-roledescription="subtitle" aria-label="Subtitle text 'Python: 3.13.8 (Windows 10) | CPU: 11th Gen Intel(R) Core(TM) i5-11300H @ 3.10GHz'" pointer-events="none"><text text-anchor="middle" transform="translate(0,25)" font-family="sans-serif" font-size="12px" fill="#000" opacity="1">Python: 3.13.8 (Windows 10) | CPU: 11th Gen Intel(R) Core(TM) i5-11300H @ 3.10GHz</text></g></g><path class="foreground" aria-hidden="true" d="" pointer-events="none" display="none"/></g></g></g><path class="foreground" aria-hidden="true" d="" display="none"/></g></g></g><defs><clipPath id="clip1"><path d="M2.3364257311714596,0L87.66357426882854,0C88.95308273347645,0,90,1.0469172665235515,90,2.3364257311714596L90,4.672851462342919C90,4.672851462342919,90,4.672851462342919,90,4.672851462342919L0,4.672851462342919C0,4.672851462342919,0,4.672851462342919,0,4.672851462342919L0,2.3364257311714596C0,1.0469172665235515,1.0469172665235515,0,2.3364257311714596,0Z"/></clipPath><clipPath id="clip2"><path d="M2.3566379530930135,0L87.64336204690699,0C88.9440259405118,0,90,1.055974059488193,90,2.3566379530930135L90,4.713275906186027C90,4.713275906186027,90,4.713275906186027,90,4.713275906186027L0,4.713275906186027C0,4.713275906186027,0,4.713275906186027,0,4.713275906186027L0,2.3566379530930135C0,1.055974059488193,1.055974059488193,0,2.3566379530930135,0Z"/></clipPath><clipPath id="clip3"><path d="M4.619713088880644,0L85.38028691111936,0C87.92997597372417,0,90,2.070024026275831,90,4.619713088880644L90,9.239426177761288C90,9.239426177761288,90,9.239426177761288,90,9.239426177761288L0,9.239426177761288C0,9.239426177761288,0,9.239426177761288,0,9.239426177761288L0,4.619713088880644C0,2.070024026275831,2.070024026275831,0,4.619713088880644,0Z"/></clipPath><clipPath id="clip4"><path d="M6,0L84,0C87.311490146964,0,90,2.688509853036,90,6L90,41.21812162231413C90,41.21812162231413,90,41.21812162231413,90,41.21812162231413L0,41.21812162231413C0,41.21812162231413,0,41.21812162231413,0,41.21812162231413L0,6C0,2.688509853036,2.688509853036,0,6,0Z"/></clipPath><clipPath id="clip5"><path d="M6,0L84,0C87.311490146964,0,90,2.688509853036,90,6L90,41.85808021700598C90,41.85808021700598,90,41.85808021700598,90,41.85808021700598L0,41.85808021700598C0,41.85808021700598,0,41.85808021700598,0,41.85808021700598L0,6C0,2.688509853036,2.688509853036,0,6,0Z"/></clipPath><clipPath id="clip6"><path d="M6,0L84,0C87.311490146964,0,90,2.688509853036,90,6L90,424.7046546832861C90,424.7046546832861,90,424.7046546832861,90,424.7046546832861L0,424.7046546832861C0,424.7046546832861,0,424.7046546832861,0,424.7046546832861L0,6C0,2.688509853036,2.688509853036,0,6,0Z"/></clipPath><clipPath id="clip7"><path d="M6,0L84,0C87.311490146964,0,90,2.688509853036,90,6L90,424.7456296545635C90,424.7456296545635,90,424.7456296545635,90,424.7456296545635L0,424.7456296545635C0,424.7456296545635,0,424.7456296545635,0,424.7456296545635L0,6C0,2.688509853036,2.688509853036,0,6,0Z"/></clipPath><clipPath id="clip8"><path d="M6,0L84,0C87.311490146964,0,90,2.688509853036,90,6L90,576.9230769230769C90,576.9230769230769,90,576.9230769230769,90,576.9230769230769L0,576.9230769230769C0,576.9230769230769,0,576.9230769230769,0,576.9230769230769L0,6C0,2.688509853036,2.688509853036,0,6,0Z"/></clipPath></defs></svg>